<ttFont>
<head>
    <!-- Most of this table will be recalculated by the compiler -->
    <tableVersion value="1.0"/>
    <fontRevision value="2.004"/>
    <checkSumAdjustment value="0x4bb13ade"/>
    <magicNumber value="0x5f0f3cf5"/>
    <flags value="00000000 00000011"/>
    <unitsPerEm value="1000"/>
    <created value="Thu Oct  8 09:58:06 2009"/>
    <modified value="Thu Oct  8 09:58:06 2009"/>
    <xMin value="-470"/>
    <yMin value="-292"/>
    <xMax value="1483"/>
    <yMax value="1128"/>
    <macStyle value="00000000 00000000"/>
    <lowestRecPPEM value="3"/>
    <fontDirectionHint value="2"/>
    <indexToLocFormat value="0"/>
    <glyphDataFormat value="0"/>
  </head>
          <CharString index="0">
            736 18 callsubr
            -62 -9 9 28 -6 hvcurveto
            -122 627 rlineto
            13 -3 -2 8 -16 hhcurveto
            -16 -3 -6 -16 -8 hvcurveto
            -314 -594 -18 -33 -29 -35 -77 -1 rlinecurve
            -86 callsubr
            3 39 27 0 37 hhcurveto
            112 -3 5 31 -57 1 -11 31 3 19 rlinecurve
            1 9 3 5 3 5 68 129 rcurveline
            259 hlineto
            29 -151 3 -10 0 -3 -1 -5 rlinecurve
            -30 -5 -56 0 -26 147 callgsubr
            3 46 52 0 46 hhcurveto
            -89 258 rmoveto
            -236 hlineto
            172 327 rlineto
            return
          </CharString>
          <CharString index="1">
            hstemhm
            -107 callgsubr
            return
          </CharString>
          <CharString index="2">
            520 213 rmoveto
            131 21 -86 104 -123 hhcurveto
            -127 -119 -107 -128 168 callsubr
            87 -99 123 hhcurveto
            127 118 101 123 21 hvcurveto
            -85 9 rmoveto
            -6 -37 -10 -58 -32 -44 rrcurveto
            -46 -36 -49 -20 -42 hhcurveto
            -50 -38 25 39 -16 hvcurveto
            -19 42 7 53 8 46 6 37 10 57 32 41 rrcurveto
            51 38 53 15 36 hhcurveto
            57 35 -32 -34 15 hvcurveto
            16 -42 -8 -51 -7 -42 rrcurveto
            return
          </CharString>
          <CharString index="3">
            -106 callsubr
            hintmask 00001100
            return
          </CharString>
          <CharString index="4">
            -77 callgsubr
            -68 -8 7 49 9 hvcurveto
            59 355 -153 -82 callsubr
            -29 -177 rlineto
            -89 -15 -61 -64 -72 hhcurveto
            -83 3 43 54 9 hvcurveto
            55 331 34 callsubr
            77 -1 -3 -89 -15 hvcurveto
            -25 -150 -10 -65 -7 -42 40 -35 rlinecurve
            -20 25 40 -7 40 hhcurveto
            52 53 23 60 39 hvcurveto
            61 callsubr
            return
          </CharString>
          <CharString index="5">
            -20 hstemhm
            hintmask 11100000
            -107 callsubr
            return
          </CharString>
          <CharString index="6">
            -102 callsubr
            hintmask 00011000
            return
          </CharString>
          <CharString index="7">
            -85 callsubr
            -12 3 rrcurveto
            10 14 21 6 23 hhcurveto
            19 14 -3 -9 7 hvcurveto
            6 -6 1 65 callsubr
            -7 -10 -7 -5 -34 -69 callgsubr
            44 20 rlinecurve
            19 42 callgsubr
          </CharString>
          <CharString index="8">
            756 0 31 298 25 298 195 callsubr
            0 87 -56 102 223 102 -4 102 cntrmask 11100000
            hintmask 11100010
            767 89 rmoveto
            6 1 2 12 -14 hhcurveto
            -13 -2 -9 -8 -2 hvcurveto
            -63 -15 -35 -24 -31 hhcurveto
            -32 -8 20 17 -5 hvcurveto
            -6 22 3 68 1 45 3 62 2 67 -105 35 rrcurveto
            hintmask 11110101
            99 27 88 59 13 78 rrcurveto
            99 16 -107 81 -147 hhcurveto
            -319 -56 callgsubr
            3 48 50 0 48 hhcurveto
            48 50 0 -3 47 40 callsubr
            hintmask 11101000
            -14 callsubr
            42 250 rlineto
            120 hlineto
            72 26 -38 -4 3 hvcurveto
            24 -37 -3 -15 -12 -71 -11 -67 -7 -44 42 -38 rrcurveto
            -37 40 60 0 11 hhcurveto
            84 30 87 24 4 hvcurveto
            -158 414 rmoveto
            -86 -14 -55 -63 -136 hhcurveto
            hintmask 11100101
            -116 hlineto
            43 257 4 26 4 9 19 4 rlinecurve
            2 10 32 0 21 hhcurveto
            86 127 0 -149 -25 hvcurveto
            return
          </CharString>
          <CharString index="9">
            rmoveto
            24 8 -14 22 -24 hhcurveto
            -11 -7 -6 -7 -10 hvcurveto
            -168 -128 11 -24 184 90 16 8 11 6 4 15 rlinecurve
            endchar
          </CharString>
          <CharString index="10">
            841 652 69 callgsubr
            -2 -54 -16 -1 -48 hhcurveto
            -49 -12 1 2 -56 -30 callsubr
            102 -8 -48 -27 -5 hvcurveto
            -71 -427 -276 521 rlineto
            12 -6 -3 0 -19 65 callgsubr
            28 hlineto
            48 25 -7 0 hvcurveto
            -90 -539 rlineto
            -27 -5 -8 -48 -102 96 callsubr
            55 15 1 49 hhcurveto
            48 14 -1 -2 54 hvcurveto
            154 callgsubr
            8 48 27 5 hvcurveto
            86 516 323 -610 rlineto
            -12 6 5 0 5 hhcurveto
            16 1 8 19 4 hvcurveto
            91 550 rlineto
            27 5 8 48 102 hhcurveto
            return
          </CharString>
          <CharString index="11">
            -95 callgsubr
            hintmask 0011000000000000
            return
          </CharString>
          <CharString index="12">
            391 128 rmoveto
            8 45 -16 27 -18 23 -28 33 -35 7 -72 14 -25 5 -71 13 10 57 rrcurveto
            32 5 30 42 91 hhcurveto
            108 -7 -83 -25 -2 hvcurveto
            -12 -1 -1 -6 13 hhcurveto
            14 1 7 19 3 hvcurveto
            16 96 rlineto
            17 3 2 9 -12 hhcurveto
            -5 -2 0 -12 -15 hvcurveto
            -3 -2 -10 -9 -7 -5 rrcurveto
            22 -27 -30 6 -34 hhcurveto
            -132 -45 -73 -51 -9 hvcurveto
            -5 -32 9 -26 20 -22 29 -31 36 -7 50 -9 49 -10 17 -3 19 -17 9 -8 21 -19 -6 -38 rrcurveto
            -88 -15 -101 0 -14 hhcurveto
            -102 -11 85 54 -3 hvcurveto
            10 -2 0 6 -12 hhcurveto
            -14 -1 -8 -18 -3 hvcurveto
            -21 -128 rlineto
            -17 -3 -2 -9 12 hhcurveto
            6 1 1 19 22 hvcurveto
            5 6 13 13 6 5 rrcurveto
            -41 35 45 -3 25 hhcurveto
            123 55 72 67 11 hvcurveto
            return
          </CharString>
          <CharString index="13">
            -55 callsubr
            -54 callsubr
            27 24 22 27 5 hvcurveto
            return
          </CharString>
          <CharString index="14">
            rmoveto
            4 33 callsubr
            -25 -45 callsubr
            -9 123 callsubr
            15 21 6 23 hhcurveto
            19 13 -3 -9 8 hvcurveto
            6 -6 0 65 callsubr
            -6 26 callgsubr
            -4 -19 rcurveline
            -6 -1 5 187 callgsubr
            5 5 6 1 hvcurveto
            4 19 4 27 27 20 45 20 rlinecurve
            18 42 callgsubr
          </CharString>
          <CharString index="15">
            hintmask 00010000
            1145 652 55 callgsubr
            -32 -32 0 -31 hhcurveto
            -117 3 -5 -31 63 -1 18 -30 -4 -23 rlinecurve
            -1 -5 -3 -4 -3 -7 -234 -467 rcurveline
            -82 491 rlineto
            hintmask 00100000
            4 -2 7 1 4 vhcurveto
            31 5 57 0 27 hhcurveto
            hintmask 01010000
            103 callsubr
            -50 0 -45 hhcurveto
            -55 -7 0 3 -61 -30 callsubr
            51 18 -2 -17 9 hvcurveto
            6 -13 9 -68 0 vvcurveto
            0 -5 -11 -1 -2 vhcurveto
            -212 -424 -81 488 rlineto
            hintmask 00100000
            -3 13 0 2 1 3 rrcurveto
            31 5 57 0 27 hhcurveto
            hintmask 11010000
            103 callsubr
            -50 0 -45 hhcurveto
            -55 -7 0 3 -61 -30 callsubr
            57 20 0 -38 6 hvcurveto
            103 -616 rlineto
            -14 2 4 -6 12 hhcurveto
            8 9 2 19 9 hvcurveto
            254 509 85 -506 rlineto
            -17 3 1 -7 14 hhcurveto
            12 6 6 14 8 hvcurveto
            291 583 22 45 32 25 59 1 rlinecurve
            return
          </CharString>
          <CharString index="16">
            27 4 -17 21 -27 hhcurveto
            -94 callsubr
            return
          </CharString>
          <CharString index="17">
            788 49 callgsubr
            -41 -2 0 -33 hhcurveto
            -38 -14 0 3 -39 hvcurveto
            -5 -31 43 -1 9 -27 -3 -20 rlinecurve
            -2 -10 -3 -6 -4 -7 -134 -250 rcurveline
            -55 274 rlineto
            -3 13 1 3 3 vvcurveto
            26 4 32 2 26 153 callsubr
            -47 -41 0 -16 hhcurveto
            -31 -29 0 3 -31 185 callsubr
            20 -1 -14 8 hvcurveto
            7 -11 7 -40 -1 -3 -7 -14 rcurveline
            -120 -225 -51 260 rlineto
            -4 15 1 2 4 vvcurveto
            27 5 39 0 19 hhcurveto
            5 31 -110 -3 rlineto
            -33 -29 0 3 -33 -30 callsubr
            48 12 -2 -34 7 hvcurveto
            70 -353 rlineto
            -12 3 1 -10 15 hhcurveto
            15 6 11 10 6 hvcurveto
            148 280 57 -280 rlineto
            -10 2 2 -11 15 hhcurveto
            15 5 10 10 6 hvcurveto
            173 325 32 61 42 4 21 1 rlinecurve
            return
          </CharString>
          <CharString index="18">
            rmoveto
            23 4 -18 16 -18 hhcurveto
            -17 -6 -7 -11 -11 hvcurveto
            -147 -151 16 -21 170 118 15 10 9 8 3 15 rlinecurve
            endchar
          </CharString>
          <CharString index="19">
            86 callgsubr
            0 87 -54 87 hintmask 0100010000000000
            866 652 55 callgsubr
            -36 -29 0 -34 hhcurveto
            -112 3 -86 callsubr
            36 16 -16 -23 -4 hvcurveto
            -2 -12 -4 -5 -10 -12 -215 -269 rcurveline
            -140 292 rlineto
            hintmask 0100100010000000
            -4 10 -2 5 1 5 rrcurveto
            24 4 37 1 31 hhcurveto
            41 callsubr
            -61 0 -43 hhcurveto
            -131 3 -86 callsubr
            17 hlineto
            60 12 -8 -28 14 hvcurveto
            163 -343 rlineto
            hintmask 1000001000000000
            -33 -194 -67 callgsubr
            hintmask 1000010000000000
            -23 hlineto
            hintmask 1000100100000000
            -86 callsubr
            3 48 50 0 48 hhcurveto
            48 50 0 -3 47 40 callsubr
            -76 -1 11 36 6 hvcurveto
            hintmask 0100000010000000
            33 195 249 310 26 32 37 36 79 1 rlinecurve
            return
          </CharString>
          <CharString index="20">
            865 725 rmoveto
            35 6 -16 31 -33 47 callgsubr
            6 5 1 1 5 hvcurveto
            -19 -26 -33 -18 -34 -5 8 47 rcurveline
            hintmask 000100000000000010000000
            -2 -5 -6 -1 -5 hhcurveto
            hintmask 000010000000001000000000
            -116 3 -86 callsubr
            hintmask 010000000000010010000000
            26 26 -2 -14 21 hvcurveto
            14 -10 6 -19 -3 -19 rrcurveto
            hintmask 100000000100000100000000
            -60 -360 -10 -59 -29 -55 -45 -42 rlinecurve
            -40 -43 -54 -23 -53 hhcurveto
            -49 -44 23 39 -23 hvcurveto
            -25 40 -3 53 11 64 rrcurveto
            hintmask 001100000001100000000000
            65 387 2 13 7 14 13 4 rlinecurve
            6 18 39 0 28 hhcurveto
            hintmask 000010000000100000000000
            -77 callgsubr
            hintmask 000100000000000000000000
            -147 -3 rlineto
            hintmask 001010001000000000000000
            -145 3 -86 callsubr
            28 39 0 -6 16 hvcurveto
            11 -4 3 -14 -2 -13 rrcurveto
            hintmask 000000000100000000000000
            -65 -387 rlineto
            hintmask 100000000010010000000000
            -11 -67 17 -63 41 -47 rrcurveto
            -47 41 61 -26 68 hhcurveto
            61 64 28 46 50 hvcurveto
            hintmask 010000000000000100000000
            52 47 33 63 11 66 63 380 rcurveline
            66 7 60 48 10 62 rrcurveto
            return
          </CharString>
          <CharString index="21">
            -5 -31 rlineto
            return
          </CharString>
          <CharString index="22">
            rmoveto
            3 21 -9 19 -17 -70 callsubr
            2 16 -8 10 return
          </CharString>
          <CharString index="23">
            204 34 -128 162 -187 hhcurveto
            -187 -183 -163 -203 -33 hvcurveto
            -203 -34 129 -158 186 hhcurveto
            return
          </CharString>
          <CharString index="24">
            rmoveto
            -49 -8 -38 -7 -28 hhcurveto
            -20 -45 3 53 9 hvcurveto
            49 8 38 7 28 hhcurveto
            20 45 -3 -53 -9 hvcurveto
            35 -1 rmoveto
            50 8 -38 39 -55 hhcurveto
            -58 -49 -41 -46 -8 hvcurveto
            -50 -8 38 -39 55 hhcurveto
            58 49 41 46 8 hvcurveto
            return
          </CharString>
          <CharString index="25">
            -11 -86 callsubr
            68 8 -7 -49 -9 hvcurveto
            return
          </CharString>
          <CharString index="26">
            667 472 rmoveto
            35 6 -17 31 -20 callgsubr
            3 2 1 3 hhcurveto
            -19 -21 -29 -13 -31 -6 rrcurveto
            hintmask 0001000000000000
            9 50 rlineto
            hintmask 0000100000000000
            -153 -11 rlineto
            hintmask 1011000011100000
            -86 callsubr
            22 29 0 -9 11 hvcurveto
            11 -9 -2 -17 -3 -16 -32 -190 rcurveline
            -79 -15 -61 -65 -68 hhcurveto
            -34 -25 6 18 -12 hvcurveto
            -10 15 1 25 7 43 54 320 rcurveline
            hintmask 0000100000000000
            -153 -11 rlineto
            hintmask 0111000010100000
            10 callgsubr
            29 0 -9 10 hvcurveto
            12 -9 -4 -20 -3 -17 -37 -223 rcurveline
            -6 -40 5 -37 26 -23 rrcurveto
            -25 27 38 -7 51 hhcurveto
            56 51 36 51 33 hvcurveto
            -15 -87 150 11 59 callgsubr
            -29 0 9 -11 hvcurveto
            -11 9 4 20 2 17 46 272 rcurveline
            hintmask 0000100000000000
            66 11 61 42 10 61 rrcurveto
            return
          </CharString>
          <CharString index="27">
            -67 callgsubr
            -23 hlineto
            return
          </CharString>
          <CharString index="28">
            10 callgsubr
            hlineto
            77 0 -11 -37 -6 hvcurveto
            return
          </CharString>
          <CharString index="29">
            -92 callgsubr
            178 43 callsubr
            return
          </CharString>
          <CharString index="30">
            -64 callgsubr
            44 261 rlineto
            310 hlineto
            -44 -261 -70 callgsubr
            return
          </CharString>
          <CharString index="31">
            40 callgsubr
            -88 -525 rlineto
            183 callgsubr
            3 42 68 195 callgsubr
            68 0 -3 40 hvcurveto
            return
          </CharString>
          <CharString index="32">
            -117 -100 -91 -102 -17 hvcurveto
            -13 -78 39 -48 5 -5 37 -44 17 -5 115 -28 78 -19 8 -2 28 -34 rrcurveto
            0 28 -38 -10 -59 vhcurveto
            -68 -11 -61 -75 -91 hhcurveto
            -77 -134 32 165 19 hvcurveto
            15 2 1 6 -13 hhcurveto
            -14 -1 -8 -20 -4 hvcurveto
            return
          </CharString>
          <CharString index="33">
            39 callsubr
            hintmask 11000101
            -88 callgsubr
            hintmask 10001010
            -76 callsubr
            return
          </CharString>
          <CharString index="34">
            -46 -8 -11 0 -66 hhcurveto
            -5 -31 return
          </CharString>
          <CharString index="35">
            -83 callgsubr
            2 47 20 1 46 hhcurveto
            47 16 -1 -2 49 hvcurveto
            return
          </CharString>
          <CharString index="36">
            -7 12 21 -13 24 hhcurveto
            37 22 20 59 64 hvcurveto
            endchar
          </CharString>
          <CharString index="37">
            11 rrcurveto
            12 -19 -24 -85 callgsubr
            return
          </CharString>
          <CharString index="38">
            27 5 -15 27 -35 hhcurveto
            -13 -13 -4 -9 -13 hvcurveto
            -2 -2 -2 -1 0 vvcurveto
            0 -1 6 1 9 vhcurveto
            11 66 40 61 56 45 2 2 4 3 1 5 rrcurveto
            5 -4 7 -7 -10 -98 -75 -120 -20 vhcurveto
            -64 -11 19 -42 42 hhcurveto
            35 24 27 27 4 hvcurveto
            return
          </CharString>
          <CharString index="39">
            77 0 -11 -37 -6 hvcurveto
            -40 callgsubr
            return
          </CharString>
          <CharString index="40">
            79 callgsubr
            hintmask 00100000
            77 callgsubr
            -18 71 callsubr
            hintmask 00010000
            7 -12 -20 13 -24 hhcurveto
            -37 -23 -20 -59 -64 hvcurveto
            hintmask 00100000
            16 -17 rlineto
            hintmask 00010000
            -63 callgsubr
            hintmask 00100000
            -71 callsubr
          </CharString>
          <CharString index="41">
            -48 rmoveto
            82 490 -158 -11 -86 callsubr
            76 8 -7 -49 -9 hvcurveto
            -66 -395 rlineto
            -29 -4 -21 -100 -68 hhcurveto
            -3 -26 0 12 -22 hvcurveto
            34 10 4 28 1 6 rrcurveto
            26 5 -16 20 -27 hhcurveto
            -29 -21 -20 -27 -5 hvcurveto
            -52 -9 54 -28 57 hhcurveto
            79 74 65 92 15 hvcurveto
            return
          </CharString>
          <CharString index="42">
            -20 -74 callsubr
            return
          </CharString>
          <CharString index="43">
            64 10 171 callsubr
            -23 -27 -27 -5 hvcurveto
            -27 -4 14 -27 35 hhcurveto
            13 14 4 9 13 hvcurveto
            2 2 2 1 0 vvcurveto
            0 1 -6 -2 -9 vhcurveto
            -11 -66 -40 -61 -55 -45 -3 -2 -3 -3 -1 -5 rrcurveto
            -5 -1 5 -7 7 hhcurveto
            10 98 75 120 20 hvcurveto
            return
          </CharString>
          <CharString index="44">
            54 24 82 50 13 81 rrcurveto
            94 16 -85 55 -90 hhcurveto
            -105 -94 -75 -92 -16 hvcurveto
            -6 -38 8 -36 19 -29 14 -19 5 -4 52 -37 -95 -42 -69 -61 -14 -82 rrcurveto
            -106 -17 93 -67 108 hhcurveto
            116 112 82 108 18 hvcurveto
            -18 349 rmoveto
            -11 -70 -68 -46 -44 -23 -109 76 rcurveline
            -27 19 -19 27 7 37 rrcurveto
            65 10 77 39 66 hhcurveto
            77 53 -54 -70 -12 hvcurveto
            -42 -384 rmoveto
            -79 -13 -88 -48 -79 hhcurveto
            -87 -63 62 83 14 hvcurveto
            12 72 60 60 76 36 113 -78 rcurveline
            21 -15 44 -32 -10 -61 rrcurveto
            endchar
          </CharString>
          <CharString index="45">
            hlineto
            -79 callsubr
            return
          </CharString>
          <CharString index="46">
            102 -4 102 cntrmask 1110000000000000
            hintmask 1110000100000000
            767 89 rmoveto
            6 1 2 12 -14 hhcurveto
            -13 -2 -9 -8 -2 hvcurveto
            -63 -15 -35 -24 -31 hhcurveto
            -32 -8 20 17 -5 hvcurveto
            -6 22 3 68 1 45 3 62 2 67 -105 35 rrcurveto
            hintmask 1111010010000000
            99 27 88 59 13 78 rrcurveto
            99 16 -107 81 -147 hhcurveto
            -319 -56 callgsubr
            3 48 50 0 48 hhcurveto
            48 50 0 -3 47 40 callsubr
            hintmask 1110100000000000
            -14 callsubr
            42 250 rlineto
            120 hlineto
            72 26 -38 -4 3 hvcurveto
            24 -37 -3 -15 -12 -71 -11 -67 -7 -44 42 -38 rrcurveto
            -37 40 60 0 11 hhcurveto
            84 30 87 24 4 hvcurveto
            -158 414 rmoveto
            -86 -14 -55 -63 -136 hhcurveto
            return
          </CharString>
          <CharString index="47">
            -77 callgsubr
            -20 hlineto
            -73 -1 11 37 6 hvcurveto
            25 150 rlineto
            41 7 36 147 114 hhcurveto
            -1 -1 -2 -1 -18 -12 -4 -24 rlinecurve
            -27 -4 18 -17 23 hhcurveto
            21 25 15 30 5 hvcurveto
            return
          </CharString>
          <CharString index="48">
            79 callgsubr
            hintmask 10000000
            77 callgsubr
            -18 71 callsubr
            hintmask 01000000
            7 -12 -20 13 -24 hhcurveto
            -37 -23 -20 -59 -64 hvcurveto
            hintmask 10000000
            16 -24 callsubr
          </CharString>
          <CharString index="49">
            -82 callgsubr
            endchar
          </CharString>
          <CharString index="50">
            rmoveto
            -125 162 -179 -162 11 -14 157 108 121 -108 rlineto
            return
          </CharString>
          <CharString index="51">
            -87 -522 -91 callgsubr
            return
          </CharString>
          <CharString index="52">
            -27 -26 -21 -27 -4 hvcurveto
            return
          </CharString>
          <CharString index="53">
            -27 -5 19 -22 27 hhcurveto
            return
          </CharString>
          <CharString index="54">
            445 190 rmoveto
            -28 hlineto
            -111 -29 -21 -51 -125 hhcurveto
            -117 hlineto
            343 371 rlineto
            10 11 1 2 4 vvcurveto
            15 3 -10 0 -17 hhcurveto
            -329 hlineto
            -38 -164 rlineto
            28 hlineto
            102 23 24 37 113 hhcurveto
            112 hlineto
            -344 -372 -11 -11 0 -2 -1 -5 rlinecurve
            -16 -3 9 0 18 hhcurveto
            340 hlineto
            return
          </CharString>
          <CharString index="55">
            -51 -25 0 31 4 hvcurveto
            32 192 14 83 5 29 -22 35 rlinecurve
            28 -18 -36 13 -50 hhcurveto
            return
          </CharString>
          <CharString index="56">
            584 652 55 callgsubr
            -67 -12 0 -54 hhcurveto
            -40 -88 0 3 -34 -30 callsubr
            34 hlineto
            95 1 -12 -37 -6 hvcurveto
            -76 -455 rlineto
            -92 -16 -60 -53 -52 hhcurveto
            -40 -45 19 38 -19 hvcurveto
            38 -4 28 27 5 31 rrcurveto
            30 5 -18 24 -32 hhcurveto
            -31 -27 -21 -35 -6 hvcurveto
            -73 -12 59 -61 92 hhcurveto
            85 98 52 96 30 hvcurveto
            2 8 8 44 4 26 68 407 rcurveline
            41 7 15 0 61 hhcurveto
            return
          </CharString>
          <CharString index="57">
            rmoveto
            -97 151 rlineto
            11 -7 -4 7 -17 hhcurveto
            -18 -22 -16 -23 -4 hvcurveto
            -3 -15 7 -8 11 -10 132 -118 rcurveline
            endchar
          </CharString>
          <CharString index="58">
            515 213 rmoveto
            16 97 -44 68 -35 27 88 117 rcurveline
            -20 12 -87 -115 rlineto
            22 -34 -36 7 -31 hhcurveto
            -125 -116 -107 -128 -21 hvcurveto
            -8 -47 2 -78 71 -60 -90 -118 rcurveline
            19 -13 91 118 rlineto
            -12 23 31 -14 45 hhcurveto
            124 116 100 124 21 hvcurveto
            -104 178 rmoveto
            -251 -330 -30 41 4 55 10 57 rlinecurve
            6 35 11 61 35 46 rrcurveto
            55 44 55 12 32 hhcurveto
            38 28 -15 -17 18 hvcurveto
            30 -177 rmoveto
            -7 -41 -12 -59 -39 -44 rrcurveto
            -30 -27 -44 -26 -54 hhcurveto
            -43 -29 20 8 -10 hvcurveto
            250 330 27 -42 -2 -52 -10 -64 rlinecurve
            return
          </CharString>
          <CharString index="59">
            64 11 171 callsubr
            -24 -27 -27 -4 hvcurveto
            -27 -5 15 -27 35 hhcurveto
            13 13 4 9 13 hvcurveto
            2 2 2 1 0 vvcurveto
            0 1 -6 -1 -9 vhcurveto
            -11 -66 -40 -61 -56 -45 rrcurveto
            -2 -2 -4 -3 -5 vvcurveto
            -5 -1 5 -7 7 hhcurveto
            return
          </CharString>
          <CharString index="60">
            44 callgsubr
            18 113 -31 105 -68 67 86 100 rcurveline
            -20 16 -84 -98 rlineto
            27 -36 -57 36 -89 hhcurveto
            -187 -183 -163 -203 -33 hvcurveto
            -21 -122 40 -99 61 -60 -85 -99 rcurveline
            19 -16 85 98 rlineto
            -54 67 71 -9 44 hhcurveto
            186 183 158 203 34 hvcurveto
            -130 269 rmoveto
            -441 -511 -32 56 -10 72 19 114 rlinecurve
            328 54 214 13 40 hhcurveto
            80 52 -41 -31 24 hvcurveto
            40 -269 rmoveto
            -11 -62 -21 -99 -68 -76 rrcurveto
            -69 -62 -79 -30 -67 hhcurveto
            -80 -55 41 31 -21 hvcurveto
            440 510 33 -58 9 -75 -18 -113 rlinecurve
            return
          </CharString>
          <CharString index="61">
            -27 callgsubr
            200 hmoveto
            0 callgsubr
          </CharString>
          <CharString index="62">
            -85 callgsubr
            3 16 return
          </CharString>
          <CharString index="63">
            898 hmoveto
            1 callsubr
            101 callsubr
            -168 hlineto
            -21 -7 0 -18 -10 hvcurveto
            -319 -567 -130 563 rlineto
            20 -4 -1 2 -27 hhcurveto
            -168 -62 callsubr
            -83 -498 rlineto
            -27 -5 -8 -48 -102 96 callsubr
            55 15 1 49 hhcurveto
            48 14 -1 -2 54 hvcurveto
            154 callgsubr
            8 48 27 5 hvcurveto
            89 535 1 1 143 -620 rlineto
            -13 3 2 -9 12 hhcurveto
            11 7 9 9 5 hvcurveto
            return
          </CharString>
          <CharString index="64">
            144 callsubr
            12 2 -11 0 -3 hhcurveto
            -11 0 -2 -17 -9 hvcurveto
            -69 -35 -60 -26 -51 hhcurveto
            -64 -73 52 148 24 hvcurveto
            156 26 88 47 60 hhcurveto
            13 54 -2 -25 33 hvcurveto
            -22 -4 -22 -14 -5 -29 rrcurveto
            return
          </CharString>
          <CharString index="65">
            133 -101 callsubr
            return
          </CharString>
          <CharString index="66">
            rmoveto
            6 35 rlineto
            -371 hlineto
            -6 -35 rlineto
            endchar
          </CharString>
          <CharString index="67">
            742 -11 25 -25 28 77 25 108 24 -22 24 41 94 35 25 hstemhm
            62 80 81 80 81 62 -62 67 236 67 hintmask 0100100001000000
            732 119 rmoveto
            7 1 -4 6 -9 hhcurveto
            -11 -3 -7 -4 -2 hvcurveto
            -101 -49 -78 -3 -16 hhcurveto
            -12 -138 1 211 35 hvcurveto
            277 hlineto
            hintmask 0111011111010000
            23 4 0 22 4 hvcurveto
            108 18 -43 89 -113 hhcurveto
            -87 -56 -54 -21 -23 hvcurveto
            31 -18 -44 44 -85 hhcurveto
            -86 -76 -43 -63 -11 hvcurveto
            -31 -5 18 -17 26 hhcurveto
            27 22 20 26 5 hvcurveto
            7 43 -44 5 0 vvcurveto
            32 42 52 3 17 hhcurveto
            51 50 -38 -88 -14 hvcurveto
            -8 -46 rlineto
            -162 -136 -59 -98 -16 hvcurveto
            -78 -13 86 -27 72 hhcurveto
            123 58 76 10 8 hvcurveto
            -57 33 61 -29 61 hhcurveto
            115 63 110 20 3 hvcurveto
            -45 134 rmoveto
            hintmask 1010101100110000
            -236 hlineto
            132 31 83 38 46 hhcurveto
            98 -18 -134 -36 -4 hvcurveto
            -319 -121 rmoveto
            -71 -12 -75 -47 -63 hhcurveto
            -52 -32 36 44 8 hvcurveto
            hintmask 0001000000000000
            9 54 57 73 164 6 -4 -23 -2 -15 2 -37 2 -8 0 -2 -2 -10 rrcurveto
            endchar
          </CharString>
          <CharString index="68">
            1042 -22 25 -3 31 308 31 282 31 -3 25 hstemhm
            585 78 207 28 -28 99 -55 28 85 28 -23 28 hintmask 0111011011000000
            1055 258 rmoveto
            -28 hlineto
            -156 -51 -34 -71 -167 hhcurveto
            -115 -30 callgsubr
            45 267 rlineto
            111 hlineto
            101 10 -30 -87 -15 hvcurveto
            28 hlineto
            44 265 rlineto
            -28 hlineto
            -86 -14 -19 -31 -102 hhcurveto
            -111 hlineto
            40 241 rlineto
            34 6 3 7 47 hhcurveto
            116 hlineto
            hintmask 0001000000100000
            146 13 -57 -137 -7 hvcurveto
            28 hlineto
            10 225 rlineto
            -385 hlineto
            -22 -13 1 12 -55 hvcurveto
            hintmask 1010100000000000
            8 -35 -18 1 -13 hhcurveto
            -180 -187 -158 -208 -34 hvcurveto
            -208 -35 136 -153 178 hhcurveto
            13 19 1 8 38 hvcurveto
            hintmask 0100000101000000
            12 58 14 1 22 hhcurveto
            398 hlineto
            -384 342 rmoveto
            -17 -104 -14 -85 -10 -36 rrcurveto
            hintmask 1000110000000000
            -63 -18 -15 -51 -95 hhcurveto
            -135 -84 156 195 32 hvcurveto
            188 31 136 138 132 hhcurveto
            88 6 -44 -61 -3 hvcurveto
            -2 -43 -14 -83 -18 -107 rrcurveto
            endchar
          </CharString>
          <CharString index="69">
            -77 callgsubr
            -66 -11 0 46 return
          </CharString>
          <CharString index="70">
            928 0 31 41 31 210 31 308 31 hstemhm
            137 28 0 84 108 84 39 84 -79 84 169 28 16 28 103 28 -23 28 hintmask 1110000101110000
            941 258 rmoveto
            -28 hlineto
            -155 -51 -33 -72 -163 hhcurveto
            -100 -30 callgsubr
            40 241 rlineto
            88 hlineto
            95 5 -32 -85 108 callsubr
            -84 -14 -16 -33 -95 hhcurveto
            hintmask 1011100010001000
            -88 hlineto
            45 267 rlineto
            34 6 3 7 47 hhcurveto
            102 hlineto
            143 10 -60 -134 -7 hvcurveto
            28 hlineto
            10 225 rlineto
            -573 107 callgsubr
            45 hlineto
            11 18 -1 12 hhcurveto
            -299 -550 rlineto
            -34 -19 -29 -36 -78 147 callgsubr
            3 44 52 0 7 hhcurveto
            hintmask 1110011100010000
            112 -3 5 31 -41 1 -28 18 6 32 rlinecurve
            1 8 0 1 7 12 114 210 rcurveline
            167 hlineto
            -39 -236 rlineto
            -46 -8 -11 0 -65 147 callgsubr
            503 hlineto
            -370 344 rmoveto
            -155 hlineto
            165 304 41 -2 -4 -25 -4 -19 rlinecurve
            hintmask 0010000010000000
            endchar
          </CharString>
          <CharString index="71">
            -20 -3 -2 -8 12 hhcurveto
            7 1 1 12 9 hvcurveto
            17 18 -13 -13 42 52 rrcurveto
            -60 52 77 -10 49 hhcurveto
            122 98 100 107 18 hvcurveto
            return
          </CharString>
          <CharString index="72">
            -6 callsubr
            -30 -50 0 -10 hhcurveto
            -123 3 -5 -31 28 -1 12 -13 -3 -19 rlinecurve
            -1 -8 -4 -8 -7 -7 -384 -308 rcurveline
            53 316 -86 callgsubr
            return
          </CharString>
          <CharString index="73">
            514 -11 25 -20 35 211 25 158 25 return
          </CharString>
          <CharString index="74">
            46 277 rlineto
            145 66 callgsubr
            -145 hlineto
            31 184 rlineto
            -28 hlineto
            -15 -84 -53 -103 -97 -3 -4 -25 rcurveline
            87 hlineto
            return
          </CharString>
          <CharString index="75">
            -43 callsubr
            hintmask 01000010
            111 callgsubr
            hintmask 00000001
            110 callsubr
            return
          </CharString>
          <CharString index="76">
            799 -11 25 -25 28 74 28 104 28 -22 24 170 25 hstemhm
            66 80 100 74 108 80 236 67 hintmask 0100100000000000
            789 119 rmoveto
            7 1 -4 6 -9 hhcurveto
            -11 -3 -7 -4 -2 hvcurveto
            -101 -49 -78 -3 -16 hhcurveto
            -12 -138 1 211 35 hvcurveto
            277 hlineto
            hintmask 0111011101000000
            23 4 0 22 4 hvcurveto
            108 18 -43 89 -113 hhcurveto
            -89 -67 -59 -40 -32 hvcurveto
            39 -18 -51 60 -93 hhcurveto
            -118 -118 -99 -130 -21 hvcurveto
            -128 -22 83 -102 119 hhcurveto
            72 74 37 65 51 hvcurveto
            -46 22 55 -56 88 hhcurveto
            115 63 110 20 3 hvcurveto
            -45 134 rmoveto
            hintmask 1000110011000000
            -236 hlineto
            132 31 83 38 46 hhcurveto
            98 -18 -134 -36 -4 hvcurveto
            -316 -30 rmoveto
            -191 -32 -116 -18 -29 hhcurveto
            hintmask 0001011110000000
            -31 -106 16 193 32 hvcurveto
            191 32 117 9 25 hhcurveto
            28 111 -15 -185 -31 hvcurveto
            endchar
          </CharString>
          <CharString index="77">
            hvcurveto
            -86 callsubr
            return
          </CharString>
          <CharString index="78">
            hmoveto
            29 callsubr
            return
          </CharString>
          <CharString index="79">
            -102 callgsubr
            12 callsubr
            return
          </CharString>
          <CharString index="80">
            -41 -8 34 -53 64 hhcurveto
            49 59 30 59 22 hvcurveto
            return
          </CharString>
          <CharString index="81">
            88 525 4 26 3 9 20 4 rlinecurve
            2 11 27 0 18 hhcurveto
            150 15 -29 -165 -14 hvcurveto
            return
          </CharString>
          <CharString index="82">
            -86 callsubr
            64 8 -6 -49 -8 hvcurveto
            -45 -268 rlineto
            return
          </CharString>
          <CharString index="83">
            -17 rlineto
            hintmask 01000000
            -63 callgsubr
            hintmask 10000000
            -71 callsubr
          </CharString>
          <CharString index="84">
            -72 callsubr
            -58 callgsubr
            return
          </CharString>
          <CharString index="85">
            785 0 31 296 30 295 195 callsubr
            -1 87 -44 87 -82 87 205 99 91 99 hintmask 0010100000000000
            -4 callsubr
            hintmask 0100001000000000
            -41 -247 rlineto
            -102 172 callsubr
            hintmask 1101010110000000
            102 hlineto
            -42 -248 55 callsubr
            hintmask 0000100000000000
            -47 -1 7 34 6 hvcurveto
            hintmask 0100010000000000
            43 255 rlineto
            164 173 callgsubr
            hintmask 0110001110000000
            -164 hlineto
            42 254 108 callgsubr
          </CharString>
          <CharString index="86">
            hstemhm
            38 28 358 90 -44 28 16 28 142 28 -23 28 return
          </CharString>
          <CharString index="87">
            200 rmoveto
            121 21 -70 99 -109 hhcurveto
            -48 -52 -16 -36 -41 hvcurveto
            33 197 rlineto
            -9 29 30 -5 31 hhcurveto
            123 87 89 13 2 hvcurveto
            9 1 -5 4 -5 hhcurveto
            0 -4 0 -10 -5 vhcurveto
            -19 -50 -47 -8 -42 hhcurveto
            -43 -44 8 19 -43 hvcurveto
            hintmask 1001010100000000
            -9 5 -3 0 0 vvcurveto
            -12 -2 -10 -17 -2 hvcurveto
            -49 -294 rlineto
            -18 -3 -2 -11 14 hhcurveto
            8 3 4 9 8 hvcurveto
            42 37 52 24 52 hhcurveto
            107 -26 -154 -36 -6 hvcurveto
            -5 -31 -10 -62 -36 -45 rrcurveto
            -42 -34 -45 -19 -39 hhcurveto
            hintmask 0010001000000000
            -59 -61 37 74 -11 hvcurveto
            hintmask 1100000000000000
            0 6 -2 7 20 31 13 36 6 vhcurveto
            31 6 -19 18 -27 hhcurveto
            -21 -30 -12 -40 -7 hvcurveto
            -91 -15 60 -92 111 hhcurveto
            hintmask 0010000000000000
            121 120 98 124 20 hvcurveto
            endchar
          </CharString>
          <CharString index="88">
            rrcurveto
            -27 callsubr
            return
          </CharString>
          <CharString index="89">
            -54 -323 -23 callsubr
            return
          </CharString>
          <CharString index="90">
            728 0 31 312 25 284 31 hstemhm
            155 84 90 84 119 99 0 96 hintmask 00000100
            700 182 rmoveto
            15 90 -74 73 -109 12 rrcurveto
            hintmask 11111010
            102 20 80 63 13 74 rrcurveto
            88 14 -82 81 -132 hhcurveto
            -372 -56 callgsubr
            400 hlineto
            135 109 89 93 15 hvcurveto
            -69 332 rmoveto
            -77 -13 -79 -69 -94 hhcurveto
            -157 hlineto
            41 243 rlineto
            34 6 3 7 47 hhcurveto
            130 hlineto
            98 28 -78 -60 -10 hvcurveto
            -29 -330 rmoveto
            -77 -13 -73 -76 -103 hhcurveto
            -132 -30 callgsubr
            45 271 rlineto
            189 hlineto
            116 23 -98 -61 -10 hvcurveto
            endchar
          </CharString>
          <CharString index="91">
            hmoveto
            -77 callgsubr
            return
          </CharString>
          <CharString index="92">
            89 531 rlineto
            37 6 6 12 91 hhcurveto
            32 106 callsubr
            -36 -91 0 -40 hhcurveto
            return
          </CharString>
          <CharString index="93">
            -77 0 11 37 6 hvcurveto
            return
          </CharString>
          <CharString index="94">
            17 3 2 9 -12 hhcurveto
            -7 -4 -3 -9 -7 hvcurveto
            return
          </CharString>
          <CharString index="95">
            135 rmoveto
            271 45 -109 66 -90 hhcurveto
            -115 -118 -93 -131 -22 hvcurveto
            -127 -21 76 -96 113 hhcurveto
            73 49 53 43 25 hvcurveto
            -3 -22 rlineto
            -244 -41 -118 -43 -57 hhcurveto
            -23 -51 4 33 -20 hvcurveto
            4 hlineto
            hintmask 0100000100000000
            7 -2 41 8 6 40 rrcurveto
            26 5 -15 20 -28 hhcurveto
            hintmask 1001010100000000
            -28 -22 -18 -30 -5 hvcurveto
            -66 -11 46 -43 90 hhcurveto
            129 151 132 219 37 hvcurveto
            -78 92 rmoveto
            -73 -12 -51 -104 -94 hhcurveto
            -16 -49 0 62 -21 hvcurveto
            hintmask 0000011010000000
            -13 38 8 49 8 48 8 48 9 50 27 38 rrcurveto
            51 38 42 13 36 hhcurveto
            68 15 -69 -10 2 hvcurveto
            8 -37 -6 -61 -7 -43 rrcurveto
            endchar
          </CharString>
          <CharString index="96">
            203 rmoveto
            127 21 -76 96 -113 hhcurveto
            -60 -49 -35 -60 -38 hvcurveto
            17 102 21 57 35 52 rrcurveto
            41 27 59 58 74 hhcurveto
            20 45 -4 -36 17 hvcurveto
            -37 -19 -19 -27 -4 hvcurveto
            -26 -5 15 -20 28 hhcurveto
            28 22 18 30 5 hvcurveto
            56 9 -31 53 -91 hhcurveto
            -129 -162 -127 -223 -37 hvcurveto
            -271 -45 110 -67 94 hhcurveto
            111 116 93 132 22 hvcurveto
            -91 1 rmoveto
            hintmask 01000000
            -8 -48 -8 -49 -25 -37 rrcurveto
            hintmask 10100100
            -57 -41 -45 -7 -27 hhcurveto
            -57 -25 47 29 -7 hvcurveto
            -12 45 13 83 3 16 rrcurveto
            67 11 49 108 96 hhcurveto
            16 49 0 -62 22 hvcurveto
            12 -38 -8 -49 -8 -48 rrcurveto
            endchar
          </CharString>
          <CharString index="97">
            699 0 31 -28 28 283 28 310 31 hstemhm
            155 90 377 102 hintmask 01011000
            724 497 rmoveto
            99 16 -88 87 -139 hhcurveto
            -359 -62 callsubr
            -88 -525 -80 callsubr
            hintmask 10000000
            -86 callsubr
            hintmask 01000000
            3 46 56 0 46 hhcurveto
            hintmask 10111100
            89 callsubr
            39 235 rlineto
            167 hlineto
            140 117 87 96 16 hvcurveto
            -102 hmoveto
            -45 -8 -18 -110 -166 hhcurveto
            -144 hlineto
            45 269 rlineto
            34 6 3 7 47 hhcurveto
            96 hlineto
            165 -19 -110 -45 -7 hvcurveto
            endchar
          </CharString>
          <CharString index="98">
            314 0 97 callgsubr
            243 31 -25 25 hstemhm
            126 71 -17 71 132 89 hintmask 01100100
            472 634 rmoveto
            38 6 -32 33 -55 hhcurveto
            -78 -92 -59 -100 -17 hvcurveto
            -19 -115 136 callgsubr
            hintmask 10001000
            13 callgsubr
            hintmask 01010100
            54 321 rlineto
            116 66 callgsubr
            -119 hlineto
            19 113 rlineto
            91 15 56 45 43 hhcurveto
            hintmask 00100010
            10 10 -2 -4 9 46 callgsubr
            endchar
          </CharString>
          <CharString index="99">
            -150 -82 callsubr
            -86 -519 -81 callgsubr
            112 3 110 -3 109 callsubr
            101 73 54 75 -131 12 -22 6 -12 -2 -14 rlinecurve
            -10 -2 -5 -12 -31 hhcurveto
            -5 -31 109 3 rlineto
            29 32 0 -3 28 hvcurveto
            return
          </CharString>
          <CharString index="100">
            24 -23 -25 5 -18 hhcurveto
            -77 -88 -83 -118 -19 hvcurveto
            -122 -21 63 -80 75 hhcurveto
            74 75 88 113 18 hvcurveto
            3 15 7 45 -11 49 rrcurveto
            -35 56 55 -7 35 hhcurveto
            44 47 10 23 46 hvcurveto
            1 -1 -566 -661 -2 -2 -10 -11 -1 -7 rlinecurve
            -13 -2 9 -9 12 hhcurveto
            11 6 8 8 7 hvcurveto
            return
          </CharString>
          <CharString index="101">
            -77 callgsubr
            -3 return
          </CharString>
          <CharString index="102">
            520 213 rmoveto
            131 21 -86 104 -123 hhcurveto
            -127 -119 -107 -128 -21 hvcurveto
            -19 -111 67 -91 102 -18 -36 -31 -36 -46 -6 -37 -50 callgsubr
            -66 3 -18 52 33 49 13 20 17 18 20 13 rrcurveto
            1 hlineto
            127 118 101 123 21 hvcurveto
            -85 9 rmoveto
            -6 -37 -10 -58 -32 -44 rrcurveto
            -46 -36 -49 -20 -42 hhcurveto
            -50 -38 25 39 -16 hvcurveto
            -19 42 7 53 8 46 6 37 10 57 32 41 rrcurveto
            51 38 53 15 36 hhcurveto
            57 35 -32 -34 15 hvcurveto
            16 -42 -8 -51 -7 -42 rrcurveto
            return
          </CharString>
          <CharString index="103">
            783 336 rmoveto
            190 32 -113 157 -176 33 callgsubr
            return
          </CharString>
          <CharString index="104">
            rmoveto
            90 15 -142 23 -60 hhcurveto
            -13 hlineto
            -66 -7 -104 -22 -25 -77 -1 -3 0 -2 -1 -3 -1 -8 2 -6 9 -1 rrcurveto
            2 hlineto
            16 0 21 11 9 hvcurveto
            47 35 82 15 57 hhcurveto
            49 95 -11 -56 12 hvcurveto
            3 -9 -5 -16 13 -2 rrcurveto
            6 hlineto
            9 1 3 8 1 7 rrcurveto
            endchar
          </CharString>
          <CharString index="105">
            117 20 -47 85 -73 hhcurveto
            -77 -88 -83 -118 -20 hvcurveto
            -122 -20 63 -80 75 hhcurveto
            74 74 88 113 19 hvcurveto
            return
          </CharString>
          <CharString index="106">
            799 -271 -21 145 81 66 148 callgsubr
            hintmask 00110010
            755 -16 callsubr
            -63 -12 9 46 -25 hvcurveto
            -178 332 216 173 72 59 63 1 17 1 rlinecurve
            hintmask 00010101
            -35 callsubr
            return
          </CharString>
          <CharString index="107">
            -20 145 callgsubr
            hintmask 11001000
            -105 callsubr
            hintmask 00110000
            62 309 -25 callgsubr
            return
          </CharString>
          <CharString index="108">
            24 callsubr
            -14 callsubr
            return
          </CharString>
          <CharString index="109">
            133 -92 callgsubr
            210 -29 callsubr
            return
          </CharString>
          <CharString index="110">
            524 -16 callsubr
            -33 -24 1 48 -28 hvcurveto
            -109 193 112 85 52 39 69 3 rlinecurve
            -6 callsubr
            -36 -2 0 -37 hhcurveto
            -109 3 -5 -31 15 -1 10 -7 -2 -16 rlinecurve
            -3 -19 -19 -13 -10 -8 -161 -119 rcurveline
            80 477 rlineto
            return
          </CharString>
          <CharString index="111">
            177 rmoveto
            -28 hlineto
            -5 -13 -17 -59 -16 -16 rrcurveto
            -9 -8 -69 0 -20 hhcurveto
            -178 hlineto
            115 94 188 142 70 53 17 102 rlinecurve
            115 19 -82 80 -123 hhcurveto
            -115 -93 -91 -91 -15 hvcurveto
            -50 -9 43 -5 9 hhcurveto
            22 32 16 36 6 hvcurveto
            hintmask 01001000
            30 5 -17 22 -31 hhcurveto
            hintmask 00010000
            -5 -3 0 -1 -4 hvcurveto
            hintmask 00100110
            71 36 69 32 54 hhcurveto
            102 19 -95 -69 -11 hvcurveto
            hintmask 10001000
            -17 -102 -91 -83 -57 -52 -216 -198 rcurveline
            -13 -11 0 -2 -4 -23 rrcurveto
            383 hlineto
            endchar
          </CharString>
          <CharString index="112">
            hmoveto
            154 callgsubr
            hlineto
            71 427 rlineto
            hintmask 0011000100000000
            20 4 1 7 -19 hhcurveto
            -12 -3 -4 -11 -10 hvcurveto
            -385 -439 -86 callsubr
            hintmask 0010010000000000
            273 hlineto
            hintmask 0100100000000000
            -19 -115 rlineto
            -37 -6 -5 -11 -75 hhcurveto
            -22 hlineto
            hintmask 1000000000000000
            -86 callsubr
            hintmask 0100000000000000
            3 63 70 0 7 hhcurveto
            hintmask 1000100010000000
            5 72 0 -3 63 hvcurveto
            -77 callgsubr
            -22 hlineto
            -75 -1 11 37 6 hvcurveto
            hintmask 0010010000000000
            19 115 rlineto
            -69 31 rmoveto
            -247 hlineto
            hintmask 0000000010000000
            304 343 rlineto
            hintmask 0010001000000000
            endchar
          </CharString>
          <CharString index="113">
            225 rmoveto
            11 66 0 69 -36 50 rrcurveto
            45 -32 -58 17 -61 hhcurveto
            -61 -64 -17 -45 -48 hvcurveto
            -52 -50 -22 -69 -11 -66 -11 -66 -1 -69 36 -50 rrcurveto
            -45 32 58 -17 61 hhcurveto
            61 64 17 45 48 hvcurveto
            52 50 23 69 11 66 rrcurveto
            -87 hmoveto
            -10 -57 -14 -59 -37 -50 rrcurveto
            -35 -26 -40 -21 -40 hhcurveto
            -40 -34 21 35 -14 hvcurveto
            -21 50 6 59 10 57 9 57 14 59 37 50 rrcurveto
            35 26 41 21 40 hhcurveto
            40 33 -21 -35 14 hvcurveto
            21 -50 -6 -59 -9 -57 rrcurveto
            endchar
          </CharString>
          <CharString index="114">
            290 532 -87 callgsubr
            return
          </CharString>
          <CharString index="115">
            -88 -525 -64 callgsubr
            return
          </CharString>
          <CharString index="116">
            140 rmoveto
            -19 hlineto
            -21 2 -54 -8 -28 hvcurveto
            0 -18 -3 -16 vhcurveto
            -209 hlineto
            174 90 75 39 78 43 14 83 rlinecurve
            111 19 -120 31 -94 hhcurveto
            hintmask 01101000
            -64 -126 -23 -99 -17 hvcurveto
            -26 -4 11 -17 32 hhcurveto
            22 2 16 19 3 19 4 24 -15 11 -19 5 rrcurveto
            38 35 53 16 47 hhcurveto
            67 70 -34 -78 -13 hvcurveto
            hintmask 10010000
            -13 -75 -95 -66 -60 -36 -174 -106 rcurveline
            -14 -8 -18 -7 -3 -17 rrcurveto
            -4 0 -6 -1 -4 vhcurveto
            387 hlineto
            endchar
          </CharString>
          <CharString index="117">
            52 callsubr
            74 -21 133 -65 callsubr
            return
          </CharString>
          <CharString index="118">
            rlineto
            34 6 3 7 47 hhcurveto
            107 hlineto
            97 51 -51 -36 21 hvcurveto
            35 -58 3 -72 -17 -99 rrcurveto
            return
          </CharString>
          <CharString index="119">
            163 450 rmoveto
            -25 hlineto
            -88 -18 -74 -93 callgsubr
            return
          </CharString>
          <CharString index="120">
            644 9 rmoveto
            17 15 -12 15 -9 10 -168 202 rcurveline
            234 201 12 10 18 15 -13 15 rlinecurve
            -12 16 -17 -14 -12 -11 -236 -202 rcurveline
            -168 202 -9 12 -12 13 -18 -15 rlinecurve
            -17 -15 12 -15 9 -10 168 -202 rcurveline
            -236 -202 -11 -10 -18 -15 13 -15 rlinecurve
            12 -16 16 14 13 11 236 202 rcurveline
            169 -202 9 -11 11 -14 19 16 rlinecurve
            return
          </CharString>
          <CharString index="121">
            165 rmoveto
            154 callgsubr
            hlineto
            75 454 rlineto
            hintmask 11101000
            20 4 1 7 -19 hhcurveto
            -12 -1 -1 -14 -12 hvcurveto
            -389 -466 -86 callsubr
            273 hlineto
            -15 -86 rlineto
            -37 -6 -5 -11 -75 hhcurveto
            -22 107 callgsubr
            3 64 70 0 7 hhcurveto
            5 72 0 -3 62 hvcurveto
            -77 callgsubr
            -22 hlineto
            -75 -1 11 37 6 hvcurveto
            15 86 rlineto
            -69 31 rmoveto
            -247 hlineto
            308 370 rlineto
            hintmask 01010000
            endchar
          </CharString>
          <CharString index="122">
            133 -20 hstemhm
            hintmask 11000000
            -103 callgsubr
            hintmask 00110000
            return
          </CharString>
          <CharString index="123">
            171 callgsubr
            -65 90 -43 108 -90 90 22 90 125 108 -73 90 -60 31 29 31 return
          </CharString>
          <CharString index="124">
            -9 -54 rlineto
            -74 -12 -37 -36 -36 hhcurveto
            -67 15 88 18 3 hvcurveto
            return
          </CharString>
          <CharString index="125">
            -16 callsubr
            -17 hlineto
            return
          </CharString>
          <CharString index="126">
            566 403 rmoveto
            19 3 -8 31 -40 hhcurveto
            -29 -47 -11 -36 -41 hvcurveto
            22 -24 -36 14 -42 hhcurveto
            -95 -84 -68 -79 -13 hvcurveto
            -8 -51 24 -36 13 -15 -2 -2 -34 -35 -8 -46 -5 -34 10 -36 24 -18 -54 -16 -46 194 callsubr
            -71 -12 90 -57 128 hhcurveto
            123 113 53 77 13 hvcurveto
            7 41 -11 44 -33 24 rrcurveto
            35 -51 -58 0 -95 hhcurveto
            return
          </CharString>
          <CharString index="127">
            hvcurveto
            -167 -128 11 -24 184 90 15 8 11 6 return
          </CharString>
          <CharString index="128">
            514 483 97 83 -21 165 28 callsubr
            return
          </CharString>
          <CharString index="129">
            105 callgsubr
            -32 -189 110 -150 166 -20 -31 -29 -29 -40 -5 -32 -50 callgsubr
            -66 3 -17 52 32 49 rrcurveto
            return
          </CharString>
          <CharString index="130">
            514 -206 27 184 63 80 27 240 27 return
          </CharString>
          <CharString index="131">
            59 callgsubr
            hlineto
            return
          </CharString>
          <CharString index="132">
            17 -28 -29 12 -36 hhcurveto
            -75 -80 -38 -67 -11 hvcurveto
            -58 -10 38 -47 58 hhcurveto
            98 108 27 77 26 hvcurveto
            -55 58 53 -63 87 hhcurveto
            77 47 91 89 15 hvcurveto
            -402 -28 rmoveto
            -68 -11 -77 -42 -74 hhcurveto
            -42 -28 35 42 7 hvcurveto
            53 9 65 24 60 hhcurveto
            hintmask 11101000
            36 30 -11 -17 28 hvcurveto
            endchar
          </CharString>
          <CharString index="133">
            -38 callsubr
            7 hvcurveto
            28 165 rlineto
            -26 22 28 -33 66 hhcurveto
            119 126 96 131 22 hvcurveto
            -86 hmoveto
            -114 -19 -83 -88 -81 hhcurveto
            -45 -33 26 35 -18 hvcurveto
            -10 20 0 2 3 19 37 220 rcurveline
            58 44 58 20 42 hhcurveto
            78 45 -90 -108 -18 hvcurveto
            endchar
          </CharString>
          <CharString index="134">
            79 callgsubr
            hintmask 00000100
            38 callsubr
            hintmask 00000010
            38 callgsubr
            hintmask 00000100
            15 -17 rlineto
            hintmask 00000010
            -63 callgsubr
            hintmask 00000100
            -71 callsubr
          </CharString>
          <CharString index="135">
            -20 hstemhm
            193 97 113 97 hintmask 10011000
            7 callsubr
            return
          </CharString>
          <CharString index="136">
            -54 callgsubr
            -55 callsubr
            return
          </CharString>
          <CharString index="137">
            31 199 31 455 return
          </CharString>
          <CharString index="138">
            526 36 callgsubr
            return
          </CharString>
          <CharString index="139">
            355 632 1 -1 -95 -570 -91 callgsubr
            3 61 67 0 15 hhcurveto
            6 74 0 -3 62 hvcurveto
            return
          </CharString>
          <CharString index="140">
            21 -9 19 -17 11 rrcurveto
            12 -19 return
          </CharString>
          <CharString index="141">
            -153 -11 -86 callsubr
            return
          </CharString>
          <CharString index="142">
            362 306 rmoveto
            3 18 rlineto
            -23 hlineto
            -67 -1 8 22 4 hvcurveto
            56 335 rlineto
            15 2 0 1 -18 hhcurveto
            -38 -51 -67 0 -22 hhcurveto
            return
          </CharString>
          <CharString index="143">
            42 callsubr
            -374 403 rmoveto
            return
          </CharString>
          <CharString index="144">
            -36 -6 -4 -12 -80 hhcurveto
            return
          </CharString>
          <CharString index="145">
            67 callgsubr
            -29 hvcurveto
            return
          </CharString>
          <CharString index="146">
            58 callgsubr
            0 90 return
          </CharString>
          <CharString index="147">
            hvcurveto
            24 callsubr
            return
          </CharString>
          <CharString index="148">
            -6 callsubr
            -42 return
          </CharString>
          <CharString index="149">
            -106 -17 -15 callgsubr
            38 -74 -102 -17 hvcurveto
            -335 hmoveto
            -106 -17 -15 callgsubr
            38 -74 -102 -17 hvcurveto
            return
          </CharString>
          <CharString index="150">
            hmoveto
            -54 callgsubr
            return
          </CharString>
          <CharString index="151">
            rrcurveto
            108 18 44 116 94 hhcurveto
            59 48 -32 -49 12 hvcurveto
            1 -2 -3 0 -3 hhcurveto
            -26 -24 179 callgsubr
            17 -21 26 hhcurveto
            25 24 21 25 4 hvcurveto
            88 15 -68 66 -91 hhcurveto
            -120 -94 -123 -129 -21 hvcurveto
            return
          </CharString>
          <CharString index="152">
            -4 -1 -4 rlinecurve
            -12 -2 9 -9 11 hhcurveto
            8 7 4 6 5 hvcurveto
            518 643 2 3 2 4 1 4 rlinecurve
            endchar
          </CharString>
          <CharString index="153">
            rmoveto
            10 62 rlineto
            -274 hlineto
            hintmask 11000000
            -10 -62 rlineto
            endchar
          </CharString>
          <CharString index="154">
            -83 callgsubr
            2 53 14 1 51 hhcurveto
            126 -3 return
          </CharString>
          <CharString index="155">
            110 callgsubr
            621 31 return
          </CharString>
          <CharString index="156">
            98 17 89 41 70 hhcurveto
            21 21 -2 -6 21 hvcurveto
            -15 -7 -12 -16 -2 -16 -3 -14 5 -16 14 -9 rrcurveto
            endchar
          </CharString>
          <CharString index="157">
            21 callgsubr
            hstemhm
            109 64 return
          </CharString>
          <CharString index="158">
            25 -25 42 -31 31 22 25 0 42 238 25 34 25 return
          </CharString>
          <CharString index="159">
            371 41 callgsubr
            return
          </CharString>
          <CharString index="160">
            571 101 callgsubr
            return
          </CharString>
          <CharString index="161">
            542 -205 25 57 31 492 31 return
          </CharString>
          <CharString index="162">
            -91 callgsubr
            372 hlineto
            173 167 148 188 31 hvcurveto
            -99 hmoveto
            -7 -41 -17 -105 -67 -70 rrcurveto
            -68 -63 -76 -21 -63 hhcurveto
            -108 hlineto
            return
          </CharString>
          <CharString index="163">
            771 -22 31 599 28 -21 31 6 28 -28 31 return
          </CharString>
          <CharString index="164">
            hstemhm
            147 31 63 90 -64 31 return
          </CharString>
          <CharString index="165">
            116 callgsubr
            14 71 return
          </CharString>
          <CharString index="166">
            540 -16 callsubr
            -68 -8 7 49 9 hvcurveto
            101 607 rlineto
            return
          </CharString>
          <CharString index="167">
            2 vlineto
            1 4 -1 4 -1 3 -25 119 rcurveline
            19 -4 -3 23 -26 hhcurveto
            -20 -22 -16 -20 -4 hvcurveto
            -3 -16 9 -12 7 -12 66 -113 rcurveline
            8 4 15 5 3 6 rrcurveto
            return
          </CharString>
          <CharString index="168">
            1 hlineto
            -14 -83 rlineto
            return
          </CharString>
          <CharString index="169">
            128 -215 rmoveto
            155 930 84 callgsubr
            -155 -930 83 callgsubr
            return
          </CharString>
          <CharString index="170">
            -126 rmoveto
            7 17 -24 12 -8 -18 -16 -37 -33 -15 -29 1 return
          </CharString>
          <CharString index="171">
            28 109 98 -96 83 195 25 131 83 32 -20 hstemhm
            return
          </CharString>
          <CharString index="172">
            -9 -3 -18 -2 -10 return
          </CharString>
          <CharString index="173">
            108 18 87 50 60 hhcurveto
            55 11 -39 -70 -12 -66 callgsubr
            return
          </CharString>
          <CharString index="174">
            363 124 rmoveto
            153 callgsubr
            return
          </CharString>
          <CharString index="175">
            -14 1 -14 3 -28 8 rrcurveto
            6 -20 -24 6 -17 hhcurveto
            -36 -8 -29 -6 -1 hvcurveto
            -11 -2 2 -25 33 hhcurveto
            17 26 6 6 22 hvcurveto
            31 8 15 3 14 1 return
          </CharString>
          <CharString index="176">
            -20 hstem
            31 callsubr
            return
          </CharString>
          <CharString index="177">
            -12 -2 8 -9 12 hhcurveto
            7 8 4 6 4 hvcurveto
            519 643 2 3 2 4 1 4 rlinecurve
            -130 -545 rmoveto
            -178 hlineto
            215 222 rlineto
            return
          </CharString>
          <CharString index="178">
            9 17 -28 hvcurveto
            return
          </CharString>
          <CharString index="179">
            rlineto
            37 6 6 12 91 hhcurveto
            32 106 callsubr
            -36 -94 0 -40 hhcurveto
            -40 -94 0 3 -34 185 callsubr
            hlineto
            91 2 -12 -37 -6 hvcurveto
            return
          </CharString>
          <CharString index="180">
            rmoveto
            21 6 -15 16 -21 hhcurveto
            -21 -21 -16 -21 -2 hvcurveto
            -17 -245 rlineto
            28 hlineto
            return
          </CharString>
          <CharString index="181">
            1056 -1 -21 530 31 82 31 0 31 return
          </CharString>
          <CharString index="182">
            151 callsubr
            222 90 -2 90 return
          </CharString>
          <CharString index="183">
            22 131 rmoveto
            -3 -18 0 -3 -19 -21 rrcurveto
            return
          </CharString>
          <CharString index="184">
            771 41 callgsubr
            return
          </CharString>
          <CharString index="185">
            98 callsubr
            hstemhm
            return
          </CharString>
          <CharString index="186">
            -38 -6 rlineto
            -3 -1 1 3 -8 hvcurveto
            12 -29 -37 1 -16 hhcurveto
            -114 -118 -60 -101 112 callgsubr
            return
          </CharString>
          <CharString index="187">
            -7 12 20 -13 24 hhcurveto
            37 23 20 59 64 hvcurveto
            endchar
          </CharString>
          <CharString index="188">
            343 185 62 hstemhm
            65 274 -264 274 hintmask 10100000
            339 185 46 callsubr
          </CharString>
          <CharString index="189">
            -11 -6 -6 -9 -7 hvcurveto
            -84 -78 -86 -11 -46 hhcurveto
            -97 -56 48 33 -30 hvcurveto
            return
          </CharString>
          <CharString index="190">
            571 -11 91 callgsubr
            return
          </CharString>
          <CharString index="191">
            457 -11 28 283 91 29 28 return
          </CharString>
          <CharString index="192">
            31 307 42 20 31 -31 42 return
          </CharString>
          <CharString index="193">
            30 callgsubr
            66 31 return
          </CharString>
          <CharString index="194">
            rmoveto
            3 19 rlineto
            -74 hlineto
            45 272 rlineto
            12 2 1 4 -13 hhcurveto
            -9 -1 0 -9 -8 hvcurveto
            -271 -279 -3 -19 rlineto
            197 hlineto
            return
          </CharString>
          <CharString index="195">
            145 43 callgsubr
            return
          </CharString>
          <CharString index="196">
            46 56 0 -3 44 hvcurveto
            1 callsubr
            return
          </CharString>
          <CharString index="197">
            hstemhm
            131 74 73 108 36 108 return
          </CharString>
          <CharString index="198">
            807 -22 78 callgsubr
            return
          </CharString>
          <CharString index="199">
            140 callsubr
            62 0 46 hhcurveto
            40 91 0 -3 34 hvcurveto
            -77 callgsubr
            return
          </CharString>
          <CharString index="200">
            hvcurveto
            -19 -113 136 callgsubr
            return
          </CharString>
          <CharString index="201">
            24 -17 -38 12 -46 hhcurveto
            -72 -56 -42 -53 -37 hvcurveto
            59 -2 -34 36 -84 hhcurveto
            -80 -58 -52 -46 -29 hvcurveto
            -1 hlineto
            17 98 rlineto
            return
          </CharString>
          <CharString index="202">
            hlineto
            125 280 6 12 0 2 1 4 rlinecurve
            13 2 -7 9 -13 hhcurveto
            -15 -6 -12 -12 -5 hvcurveto
            -133 -296 rlineto
            return
          </CharString>
          <CharString index="203">
            147 callgsubr
            2 return
          </CharString>
          <CharString index="204">
            314 -205 25 580 42 return
          </CharString>
          <CharString index="205">
            -21 190 -20 return
          </CharString>
          <CharString index="206">
            rmoveto
            -106 -17 -15 callgsubr
            38 -74 -102 -17 hvcurveto
            return
          </CharString>
          <CharString index="207">
            28 383 31 184 148 callsubr
            return
          </CharString>
          <CharString index="208">
            158 callsubr
            37 6 4 11 77 hhcurveto
            23 66 callgsubr
            return
          </CharString>
          <CharString index="209">
            74 186 callsubr
            return
          </CharString>
          <CharString index="210">
            -6 callsubr
            -46 return
          </CharString>
          <CharString index="211">
            50 -4 50 hstemhm
            return
          </CharString>
          <CharString index="212">
            -54 -323 -72 callsubr
            return
          </CharString>
          <CharString index="213">
            hlineto
            -6 callsubr
            return
          </CharString>
          <CharString index="214">
            -20 hstem
            497 531 -25 callgsubr
            return
          </CharString>
          <CharString index="215">
            -14 hvcurveto
            28 hlineto
            44 265 rlineto
            -28 hlineto
            return
          </CharString>
          <CharString index="216">
            -58 callgsubr
            17 return
          </CharString>
          <CharString index="217">
            26 24 17 31 5 hvcurveto
            return
          </CharString>
          <CharString index="218">
            136 0 67 11 hvcurveto
            return
          </CharString>
          <CharString index="219" raw="1">
            9b83957e 8e08959a a091a21b 9e0b
          </CharString>
          <CharString index="220">
            110 111 callsubr
            return
          </CharString>
          <CharString index="221">
            514 -11 28 405 25 return
          </CharString>
          <CharString index="222">
            25 114 25 273 22 return
          </CharString>
          <CharString index="223">
            rlineto
            -46 -7 -11 0 -66 96 callsubr
            47 19 1 48 hhcurveto
            48 13 -1 -2 53 hvcurveto
            return
          </CharString>
          <CharString index="224">
            -49 604 128 callgsubr
            return
          </CharString>
          <CharString index="225">
            -22 398 rmoveto
            -71 callgsubr
            return
          </CharString>
          <CharString index="226">
            -16 -2 -3 -19 22 hhcurveto
            21 3 21 14 2 hvcurveto
            return
          </CharString>
          <CharString index="227">
            25 63 25 1 25 61 25 63 25 1 25 vstem
            return
          </CharString>
          <CharString index="228">
            94 196 callsubr
            hstemhm
            return
          </CharString>
          <CharString index="229">
            158 31 506 31 return
          </CharString>
          <CharString index="230">
            10 -12 3 rrcurveto
            10 return
          </CharString>
          <CharString index="231">
            -16 rlineto
            hintmask 10000000
            151 66 rlineto
            hintmask 01000000
            129 -66 rlineto
            hintmask 10010000
            74 252 rmoveto
            return
          </CharString>
          <CharString index="232">
            -25 -50 rlineto
            -134 hlineto
            -9 50 rlineto
            128 -80 rmoveto
            -86 -172 -28 172 rlineto
            return
          </CharString>
          <CharString index="233">
            134 callgsubr
            endchar
          </CharString>
          <CharString index="234">
            14 -1 13 -3 29 -8 rrcurveto
            -6 20 24 -6 17 hhcurveto
            36 8 29 6 1 hvcurveto
            return
          </CharString>
          <CharString index="235">
            572 216 rmoveto
            125 21 -82 101 -120 hhcurveto
            -68 -53 -35 -27 -29 hvcurveto
            return
          </CharString>
          <CharString index="236">
            732 144 rmoveto
            -28 hlineto
            -69 -11 -65 -55 -68 hhcurveto
            -68 -45 43 42 -46 hvcurveto
            return
          </CharString>
          <CharString index="237">
            799 -36 -21 35 25 677 25 35 -20 return
          </CharString>
          <CharString index="238">
            799 53 callgsubr
            70 30 669 28 return
          </CharString>
          <CharString index="239">
            536 196 callsubr
            hstem
            return
          </CharString>
          <CharString index="240">
            29 callsubr
            -54 callsubr
            return
          </CharString>
          <CharString index="241">
            -216 28 208 -21 142 28 116 100 -100 187 -25 25 hstemhm
            return
          </CharString>
          <CharString index="242">
            414 -21 193 108 hstemhm
            return
          </CharString>
          <CharString index="243">
            47 8 -52 20 -54 hhcurveto
            return
          </CharString>
          <CharString index="244">
            84 169 callgsubr
            return
          </CharString>
          <CharString index="245">
            -21 188 -20 return
          </CharString>
          <CharString index="246">
            31 0 31 338 31 -25 25 -14 25 158 callgsubr
            121 74 return
          </CharString>
          <CharString index="247">
            -56 callsubr
            3 46 return
          </CharString>
          <CharString index="248">
            528 -22 25 57 108 484 31 return
          </CharString>
          <CharString index="249">
            400 -11 28 383 31 184 -20 return
          </CharString>
          <CharString index="250">
            -30 callsubr
            45 return
          </CharString>
          <CharString index="251">
            447 119 rmoveto
            return
          </CharString>
          <CharString index="252">
            rlineto
            -286 hlineto
            -14 -21 0 -21 -3 hvcurveto
            -22 -4 19 0 16 hhcurveto
            return
          </CharString>
          <CharString index="253">
            25 -33 hhcurveto
            -17 -26 -6 -6 -22 hvcurveto
            -32 -8 -14 -3 -14 -1 3 return
          </CharString>
          <CharString index="254">
            -56 25 353 25 0 25 243 25 70 25 -10 25 hstemhm
            return
          </CharString>
          <CharString index="255">
            -20 hstemhm
            127 152 callgsubr
            return
          </CharString>
          <CharString index="256">
            rmoveto
            -131 117 -171 -117 return
          </CharString>
          <CharString index="257">
            457 0 28 378 25 return
          </CharString>
          <CharString index="258">
            hstemhm
            153 90 -2 90 return
          </CharString>
          <CharString index="259">
            28 52 28 -19 28 return
          </CharString>
          <CharString index="260">
            hhcurveto
            -6 callsubr
            return
          </CharString>
          <CharString index="261">
            -16 rlineto
            hintmask 00010000
            151 66 rlineto
            hintmask 00001000
            129 -66 rlineto
            return
          </CharString>
          <CharString index="262">
            35 -9 35 0 31 2 90 -80 98 0 31 hintmask 0001000100100000
            return
          </CharString>
          <CharString index="263">
            0 97 callgsubr
            249 185 callgsubr
            return
          </CharString>
          <CharString index="264">
            32 112 32 return
          </CharString>
          <CharString index="265">
            88 525 rlineto
            return
          </CharString>
          <CharString index="266">
            25 63 25 0 25 62 25 63 25 0 25 hintmask 11110000
            return
          </CharString>
          <CharString index="267">
            571 -11 25 341 25 37 25 210 42 hstemhm
            return
          </CharString>
          <CharString index="268">
            -9 -52 rlineto
            -22 -4 -3 -6 -54 hhcurveto
            -16 hlineto
            -3 -19 return
          </CharString>
          <CharString index="269">
            35 -5 33 25 5 34 rrcurveto
            33 6 -22 21 -29 hhcurveto
            return
          </CharString>
          <CharString index="270">
            hlineto
            -8 -8 -5 -5 -1 hvcurveto
            -6 -1 7 -5 8 hhcurveto
            return
          </CharString>
          <CharString index="271">
            0 -6 -20 -4 hvcurveto
            -46 -281 rlineto
            -20 -4 -2 -6 return
          </CharString>
          <CharString index="272">
            43 rmoveto
            -85 hlineto
            152 914 rlineto
            85 hlineto
            endchar
          </CharString>
          <CharString index="273">
            2 hvcurveto
            8 1 -6 7 -8 hhcurveto
            return
          </CharString>
          <CharString index="274">
            -20 hstemhm
            218 102 return
          </CharString>
          <CharString index="275">
            -21 hvcurveto
            -125 -21 return
          </CharString>
          <CharString index="276">
            514 504 -21 return
          </CharString>
          <CharString index="277">
            hlineto
            -8 -8 -7 -8 return
          </CharString>
          <CharString index="278">
            -19 42 -42 hhcurveto
            -35 return
          </CharString>
          <CharString index="279">
            hlineto
            -5 -30 rlineto
            return
          </CharString>
          <CharString index="280">
            80 -61 80 -69 74 -17 74 -74 80 hintmask 0010001000000000
            return
          </CharString>
          <CharString index="281">
            -8 -11 -35 -11 -10 rrcurveto
            -5 -5 -50 0 -14 hhcurveto
            return
          </CharString>
          <CharString index="282">
            -194 31 -28 28 163 31 454 -20 hstemhm
            return
          </CharString>
          <CharString index="283">
            -35 -5 21 -14 23 hhcurveto
            26 23 19 27 5 hvcurveto
            return
          </CharString>
          <CharString index="284">
            29 5 -20 15 -24 hhcurveto
            -24 -26 -15 -29 -5 hvcurveto
            return
          </CharString>
          <CharString index="285">
            -233 41 133 -20 return
          </CharString>
          <CharString index="286">
            52 186 callsubr
            return
          </CharString>
          <CharString index="287">
            194 callgsubr
            0 88 return
          </CharString>
          <CharString index="288">
            -8 -1 5 -7 8 hhcurveto
            return
          </CharString>
          <CharString index="289">
            167 callsubr
            272 108 -46 102 return
          </CharString>
          <CharString index="290">
            hhcurveto
            -25 -25 188 callgsubr
            return
          </CharString>
          <CharString index="291">
            742 0 31 615 31 return
          </CharString>
          <CharString index="292">
            -30 callsubr
            32 return
          </CharString>
          <CharString index="293">
            -21 133 -20 hstemhm
            return
          </CharString>
          <CharString index="294">
            -21 208 -20 return
          </CharString>
          <CharString index="295">
            -32 -193 rlineto
            return
          </CharString>
          <CharString index="296">
            104 -92 92 -49 104 110 92 hintmask 11100110
            return
          </CharString>
          <CharString index="297">
            26 153 rlineto
            6 1 -4 5 -6 hhcurveto
            return
          </CharString>
          <CharString index="298">
            571 110 callgsubr
            0 31 return
          </CharString>
          <CharString index="299">
            50 callgsubr
            hstemhm
            152 90 -1 90 return
          </CharString>
          <CharString index="300">
            75 120 20 hvcurveto
            endchar
          </CharString>
          <CharString index="301">
            -37 -8 -47 rrcurveto
            return
          </CharString>
          <CharString index="302">
            31 hstemhm
            68 87 return
          </CharString>
          <CharString index="303">
            -21 176 -20 return
          </CharString>
        <CharString name=".notdef">
          280 endchar
        </CharString>
        <CharString name="A">
          2 callgsubr
          hstem
          -107 callsubr
          endchar
        </CharString>
        <CharString name="AE">
          -37 callsubr
        </CharString>
        <CharString name="AE.dup">
          -37 callsubr
        </CharString>
        <CharString name="AEacute">
          928 0 31 41 31 210 31 308 31 137 callsubr
          137 28 0 84 108 84 39 84 -79 84 169 28 16 28 103 28 -23 28 hintmask 1110000001011100
          941 258 rmoveto
          -28 hlineto
          -155 -51 -33 -72 -163 hhcurveto
          -100 -30 callgsubr
          40 241 rlineto
          88 hlineto
          95 5 -32 -85 108 callsubr
          -84 -14 -16 -33 -95 hhcurveto
          hintmask 1011001000100010
          -88 hlineto
          45 267 rlineto
          34 6 3 7 47 hhcurveto
          102 hlineto
          143 10 -60 -134 -7 hvcurveto
          28 hlineto
          10 225 rlineto
          -573 107 callgsubr
          45 hlineto
          11 18 -1 12 hhcurveto
          -299 -550 rlineto
          -34 -19 -29 -36 -78 147 callgsubr
          3 44 52 0 7 hhcurveto
          hintmask 1110000111000100
          112 -3 5 31 -41 1 -28 18 6 32 rlinecurve
          1 8 0 1 7 12 114 210 rcurveline
          167 hlineto
          -39 -236 rlineto
          -46 -8 -11 0 -65 147 callgsubr
          503 hlineto
          -370 344 rmoveto
          -155 hlineto
          165 304 41 -2 -4 -25 -4 -19 rlinecurve
          hintmask 0010000000100000
          hintmask 0000110000000000
          220 263 -98 callsubr
        </CharString>
        <CharString name="Aacute">
          2 callgsubr
          71 -21 165 -101 callsubr
          217 277 -98 callsubr
        </CharString>
        <CharString name="Abreve">
          2 callgsubr
          50 41 -42 callsubr
          12 callgsubr
          endchar
        </CharString>
        <CharString name="Abreveacute">
          2 callgsubr
          50 41 318 -101 callsubr
          12 callgsubr
          -27 139 rmoveto
          24 8 -14 22 -24 hhcurveto
          -11 -7 -6 -7 -10 20 callsubr
          4 15 rlinecurve
          endchar
        </CharString>
        <CharString name="Abrevedotbelow">
          106 callgsubr
          50 41 133 -20 hstemhm
          308 108 hintmask 01111100
          -107 callsubr
          12 callgsubr
          hintmask 10000010
          -277 -1066 -106 callgsubr
          endchar
        </CharString>
        <CharString name="Abrevegrave">
          2 callgsubr
          50 41 -42 callsubr
          12 callgsubr
          -41 44 rmoveto
          -19 -24 -154 90 rlineto
          -13 8 -9 6 15 vvcurveto
          24 -1 23 22 24 hhcurveto
          11 5 -6 -7 8 hvcurveto
          endchar
        </CharString>
        <CharString name="Abrevehookabove">
          2 callgsubr
          50 41 341 -101 callsubr
          12 callgsubr
          -30 141 -100 callsubr
        </CharString>
        <CharString name="Abrevetilde">
          2 callgsubr
          50 41 122 callgsubr
          hintmask 11100000
          -107 callsubr
          hintmask 00010100
          12 callgsubr
          36 119 79 callgsubr
          hintmask 00001000
          67 callgsubr
          -28 hvcurveto
          hintmask 00000100
          51 callgsubr
          hintmask 00001000
          15 -17 rlineto
          hintmask 00000100
          27 31 27 19 31 hhcurveto
          22 17 -9 -17 28 hvcurveto
          hintmask 00001000
          -71 callsubr
        </CharString>
        <CharString name="Acaron">
          2 callgsubr
          61 -21 -42 callsubr
          226 265 -45 callgsubr
        </CharString>
        <CharString name="Acircumflex">
          2 callgsubr
          61 -21 -42 callsubr
          118 callgsubr
          endchar
        </CharString>
        <CharString name="Acircumflexacute">
          2 callgsubr
          61 -21 318 -101 callsubr
          118 callgsubr
          11 272 rmoveto
          24 8 -14 22 -24 hhcurveto
          -11 -7 -6 -7 -11 8 callgsubr
        </CharString>
        <CharString name="Acircumflexdotbelow">
          106 callgsubr
          61 186 callsubr
          308 108 hintmask 01111100
          -107 callsubr
          118 callgsubr
          hintmask 10000010
          -232 -882 -106 callgsubr
          endchar
        </CharString>
        <CharString name="Acircumflexgrave">
          2 callgsubr
          61 -21 -42 callsubr
          209 164 14 callgsubr
        </CharString>
        <CharString name="Acircumflexhookabove">
          2 callgsubr
          61 -21 341 -101 callsubr
          209 164 -43 callgsubr
        </CharString>
        <CharString name="Acircumflextilde">
          2 callgsubr
          56 85 callgsubr
          hintmask 11100000
          -107 callsubr
          hintmask 00010000
          209 164 141 callgsubr
          hintmask 00001000
          8 154 callsubr
          hintmask 00010010
          74 252 rmoveto
          -16 17 rlineto
          hintmask 00000100
          -27 -31 -26 -19 -31 hhcurveto
          -22 -18 71 callsubr
          hintmask 00000010
          51 callgsubr
          hintmask 00000100
          15 -17 rlineto
          hintmask 00000010
          27 32 26 19 31 hhcurveto
          22 18 -9 -17 28 hvcurveto
          hintmask 00000100
          80 callsubr
        </CharString>
        <CharString name="Adblgrave">
          2 callgsubr
          71 -21 188 -101 callsubr
          156 171 -60 callgsubr
        </CharString>
        <CharString name="Adieresis">
          2 callgsubr
          40 97 hstemhm
          364 97 113 97 hintmask 11100000
          -107 callsubr
          hintmask 00011100
          8 197 -87 callgsubr
          endchar
        </CharString>
        <CharString name="Adotbelow">
          106 callgsubr
          hstemhm
          308 108 hintmask 01110000
          -107 callsubr
          hintmask 10001000
          -37 -734 -106 callgsubr
          endchar
        </CharString>
        <CharString name="Agrave">
          2 callgsubr
          71 -21 165 -101 callsubr
          131 182 -62 callgsubr
        </CharString>
        <CharString name="Ahookabove">
          2 callgsubr
          83 -21 208 -101 callsubr
          182 311 -93 callsubr
        </CharString>
        <CharString name="Alpha">
          2 callgsubr
          hstem
          -107 callsubr
          endchar
        </CharString>
        <CharString name="Amacron">
          2 callgsubr
          60 35 hstemhm
          hintmask 11100000
          -107 callsubr
          hintmask 00010000
          244 168 -41 callsubr
        </CharString>
        <CharString name="Aogonek">
          771 -215 49 166 30 callsubr
          -20 hstemhm
          249 274 -61 274 -269 274 hintmask 01010010
          736 18 callsubr
          -62 -9 9 28 -6 hvcurveto
          -122 627 rlineto
          13 -3 -2 8 -16 hhcurveto
          -16 -3 -6 -16 -8 hvcurveto
          -314 -594 -18 -33 -29 -35 -77 -1 rlinecurve
          -86 callsubr
          3 39 27 0 37 hhcurveto
          hintmask 01101000
          112 -3 5 31 -57 1 -11 31 3 19 rlinecurve
          1 9 3 5 3 5 68 129 rcurveline
          259 hlineto
          29 -151 3 -10 0 -3 -1 -5 rlinecurve
          hintmask 01000010
          -30 -5 -56 0 -26 hhcurveto
          hintmask 11100100
          -86 callsubr
          3 39 44 0 40 hhcurveto
          -41 -27 -43 -50 -8 -47 -50 callgsubr
          -94 5 6 108 107 56 rrcurveto
          -112 258 rmoveto
          -236 hlineto
          172 327 rlineto
          endchar
        </CharString>
        <CharString name="Aogonekacute">
          771 -215 49 166 30 callsubr
          -20 71 169 callgsubr
          249 274 -61 274 -269 274 hintmask 0101000010000000
          736 18 callsubr
          -62 -9 9 28 -6 hvcurveto
          -122 627 rlineto
          13 -3 -2 8 -16 hhcurveto
          -16 -3 -6 -16 -8 hvcurveto
          -314 -594 -18 -33 -29 -35 -77 -1 rlinecurve
          -86 callsubr
          3 39 27 0 37 hhcurveto
          hintmask 0110001000000000
          112 -3 5 31 -57 1 -11 31 3 19 rlinecurve
          1 9 3 5 3 5 68 129 rcurveline
          259 hlineto
          29 -151 3 -10 0 -3 -1 -5 rlinecurve
          hintmask 0100000010000000
          -30 -5 -56 0 -26 hhcurveto
          hintmask 1110000100000000
          -86 callsubr
          3 39 44 0 40 hhcurveto
          -41 -27 -43 -50 -8 -47 -50 callgsubr
          -94 5 6 108 107 56 rrcurveto
          -112 258 rmoveto
          -236 hlineto
          172 327 rlineto
          hintmask 0000110000000000
          217 277 -98 callsubr
        </CharString>
        <CharString name="Aring">
          4 callgsubr
          157 callsubr
          hstemhm
          hintmask 11100000
          -107 callsubr
          hintmask 00110000
          131 216 -57 callgsubr
        </CharString>
        <CharString name="Aringacute">
          4 callgsubr
          157 callsubr
          185 -102 callsubr
          hintmask 00111000
          131 216 -83 callsubr
          43 228 rmoveto
          24 8 -15 22 -24 hhcurveto
          -11 -7 -6 -7 -10 8 callgsubr
        </CharString>
        <CharString name="Atilde">
          2 callgsubr
          40 104 callsubr
          hintmask 11100000
          -107 callsubr
          hintmask 00001000
          239 227 79 callgsubr
          hintmask 00010000
          -53 callgsubr
        </CharString>
        <CharString name="B">
          -17 callsubr
        </CharString>
        <CharString name="Beta">
          -17 callsubr
        </CharString>
        <CharString name="C">
          102 callgsubr
          hstem
          114 102 479 102 vstem
          -74 callgsubr
          -206 -34 139 -158 192 hhcurveto
          166 126 137 117 20 hvcurveto
          endchar
        </CharString>
        <CharString name="Cacute">
          102 callgsubr
          62 169 callgsubr
          114 102 479 102 hintmask 11001100
          -74 callgsubr
          -206 -34 139 -158 192 hhcurveto
          166 126 137 117 20 hvcurveto
          hintmask 00110000
          -31 633 -98 callsubr
        </CharString>
        <CharString name="Ccaron">
          102 callgsubr
          179 callsubr
          114 102 479 102 hintmask 11001100
          -74 callgsubr
          -206 -34 139 -158 192 hhcurveto
          166 126 137 117 20 hvcurveto
          hintmask 00110000
          -22 621 -45 callgsubr
        </CharString>
        <CharString name="Ccedilla">
          102 callgsubr
          hstem
          114 102 479 102 vstem
          -74 callgsubr
          -32 -193 120 -152 175 -17 -13 -74 rcurveline
          19 callgsubr
          113 callsubr
          136 callsubr
          7 45 156 11 116 130 19 112 rlinecurve
          endchar
        </CharString>
        <CharString name="Ccircumflex">
          102 callgsubr
          179 callsubr
          114 102 441 27 11 102 hintmask 11001010
          -74 callgsubr
          -206 -34 139 -158 192 hhcurveto
          166 126 137 117 20 hvcurveto
          hintmask 00110100
          -39 520 rmoveto
          -71 callgsubr
          endchar
        </CharString>
        <CharString name="Cdotaccent">
          102 callgsubr
          53 108 hstemhm
          114 102 274 108 97 102 hintmask 11010100
          -74 callgsubr
          -206 -34 139 -158 192 hhcurveto
          166 126 137 117 20 hvcurveto
          hintmask 00101000
          -125 580 -106 callgsubr
          endchar
        </CharString>
        <CharString name="Chi">
          -28 callgsubr
        </CharString>
        <CharString name="D">
          785 41 callgsubr
          hstemhm
          68 87 -1 87 253 99 91 99 hintmask 01010000
          -4 callsubr
          hintmask 10101100
          -3 callgsubr
          hintmask 01011100
          -47 -1 7 34 6 hvcurveto
          90 539 108 callgsubr
        </CharString>
        <CharString name="Dcaron">
          785 41 callgsubr
          102 callsubr
          68 87 -1 87 253 99 91 99 hintmask 01000100
          -4 callsubr
          hintmask 10001011
          -3 callgsubr
          hintmask 01000111
          -47 -1 7 34 6 hvcurveto
          90 539 11 callsubr
          hintmask 00110000
          -59 517 -45 callgsubr
        </CharString>
        <CharString name="Dcroat">
          -22 callsubr
        </CharString>
        <CharString name="Ddotbelow">
          785 48 callsubr
          hstemhm
          68 87 -1 87 13 108 132 99 91 99 hintmask 00101000
          -4 callsubr
          hintmask 01010011
          -3 callgsubr
          hintmask 00101011
          -47 -1 7 34 6 hvcurveto
          90 539 11 callsubr
          hintmask 10000100
          -322 -482 -106 callgsubr
          endchar
        </CharString>
        <CharString name="Delta">
          856 0 77 639 -20 hstem
          808 9 rmoveto
          0 0 3 -3 10 vhcurveto
          -232 671 rlineto
          18 -6 -5 5 -16 hhcurveto
          -14 -6 -5 -14 -10 hvcurveto
          -457 -673 rlineto
          -5 -8 -3 -7 0 vvcurveto
          -9 -2 7 0 16 hhcurveto
          711 hlineto
          16 7 0 9 2 hvcurveto
          -123 68 rmoveto
          -555 hlineto
          367 540 rlineto
          endchar
        </CharString>
        <CharString name="Dlinebelow">
          785 -163 35 128 31 621 195 callsubr
          -1 87 253 99 91 99 hintmask 00101000
          -4 callsubr
          hintmask 01010110
          -3 callgsubr
          hintmask 00101110
          -47 -1 7 34 6 hvcurveto
          90 539 11 callsubr
          hintmask 10000000
          -194 -499 -41 callsubr
        </CharString>
        <CharString name="E">
          -13 callgsubr
          -21 callsubr
          hintmask 1100010010000000
          -84 callgsubr
          hintmask 1111101101000000
          -104 callgsubr
          588 hlineto
          hintmask 0000000010000000
          endchar
        </CharString>
        <CharString name="Eacute">
          -13 callgsubr
          87 -21 165 -20 -21 callsubr
          hintmask 1100000100100000
          -84 callgsubr
          hintmask 1111001011010000
          -104 callgsubr
          588 hlineto
          hintmask 0000000000100000
          hintmask 0000110000000000
          8 865 -98 callsubr
        </CharString>
        <CharString name="Ebreve">
          -13 callgsubr
          66 41 -5 callgsubr
          31 920 -72 callgsubr
          endchar
        </CharString>
        <CharString name="Ecaron">
          -13 callgsubr
          77 -21 -5 callgsubr
          17 853 -45 callgsubr
        </CharString>
        <CharString name="Ecircumflex">
          -13 callgsubr
          77 -21 -5 callgsubr
          752 vmoveto
          -71 callgsubr
          endchar
        </CharString>
        <CharString name="Ecircumflexacute">
          -13 callgsubr
          77 -21 318 -20 -21 callsubr
          hintmask 1100000100100000
          -84 callgsubr
          hintmask 1111001011010000
          -104 callgsubr
          588 hlineto
          hintmask 0000000000100000
          hintmask 0000110000000000
          752 vmoveto
          -71 callgsubr
          11 272 rmoveto
          24 8 -14 22 -24 hhcurveto
          -11 -7 -6 -7 -11 8 callgsubr
        </CharString>
        <CharString name="Ecircumflexdotbelow">
          699 110 callgsubr
          307 31 86 31 163 31 77 186 callsubr
          38 28 206 108 44 90 -44 28 16 28 142 28 -23 28 hintmask 0110000001001000
          -84 callgsubr
          hintmask 0111100100110100
          -104 callgsubr
          588 hlineto
          hintmask 0000011000001000
          752 vmoveto
          -71 callgsubr
          hintmask 1000000010000000
          -232 -882 -106 callgsubr
          endchar
        </CharString>
        <CharString name="Ecircumflexgrave">
          -13 callgsubr
          77 -21 -5 callgsubr
          752 vmoveto
          -71 callgsubr
          -5 177 rmoveto
          -19 -24 -154 90 -13 8 -9 6 1 15 rlinecurve
          24 -1 23 22 24 hhcurveto
          11 5 -6 -7 7 hvcurveto
          endchar
        </CharString>
        <CharString name="Ecircumflexhookabove">
          -13 callgsubr
          77 -21 341 -20 -21 callsubr
          hintmask 1100000100100000
          -84 callgsubr
          hintmask 1111001011010000
          -104 callgsubr
          588 hlineto
          hintmask 0000000000100000
          hintmask 0000110000000000
          752 vmoveto
          -71 callgsubr
          106 274 rmoveto
          4 33 callsubr
          -25 -45 callsubr
          -8 10 -13 3 rrcurveto
          10 15 21 6 23 hhcurveto
          19 13 -3 -9 8 hvcurveto
          6 -6 0 -9 -3 -18 -1 -10 -7 26 callgsubr
          -3 -19 rcurveline
          -6 -1 4 187 callgsubr
          6 5 6 1 hvcurveto
          3 19 4 27 28 20 44 20 rlinecurve
          18 42 callgsubr
        </CharString>
        <CharString name="Ecircumflextilde">
          -13 callgsubr
          72 50 -45 -21 173 50 -4 50 -21 callsubr
          hintmask 1100000001001000
          -84 callgsubr
          hintmask 1111000010110100
          -104 callgsubr
          588 hlineto
          hintmask 0000000000001000
          hintmask 0000100000000000
          752 vmoveto
          -131 117 -171 -117 rlineto
          hintmask 0000010000000000
          8 -16 rlineto
          hintmask 0000100000000000
          151 66 rlineto
          hintmask 0000010000000000
          129 -66 rlineto
          hintmask 0000100100000000
          74 252 rmoveto
          -16 17 rlineto
          hintmask 0000001001000000
          -27 -31 -26 -19 -31 hhcurveto
          -22 -18 71 callsubr
          hintmask 0000000100000000
          51 callgsubr
          hintmask 0000001000000000
          15 -17 rlineto
          hintmask 0000000100000000
          27 32 26 19 31 hhcurveto
          22 18 -9 -17 28 hvcurveto
          hintmask 0000001000000000
          80 callsubr
        </CharString>
        <CharString name="Edblgrave">
          -13 callgsubr
          87 -21 188 -20 -21 callsubr
          hintmask 1100000100100000
          -84 callgsubr
          hintmask 1111001011010000
          -104 callgsubr
          588 hlineto
          hintmask 0000000000100000
          hintmask 0000110000000000
          -24 759 -60 callgsubr
        </CharString>
        <CharString name="Edieresis">
          -13 callgsubr
          56 97 hstemhm
          38 28 262 97 -1 90 -44 28 16 28 -4 97 49 28 -23 28 hintmask 1100000100010000
          -84 callgsubr
          hintmask 1111010011001000
          -104 callgsubr
          588 hlineto
          hintmask 0000000000010000
          hintmask 0000101000100000
          -201 785 -87 callgsubr
          endchar
        </CharString>
        <CharString name="Edotaccent">
          -13 callgsubr
          78 108 hstemhm
          38 28 358 90 -82 108 -70 28 16 28 142 28 -23 28 hintmask 1100001000100000
          -84 callgsubr
          hintmask 1111010011010000
          -104 callgsubr
          588 hlineto
          hintmask 0000000000100000
          hintmask 0000100100000000
          -86 812 -106 callgsubr
          endchar
        </CharString>
        <CharString name="Edotbelow">
          699 110 callgsubr
          307 31 86 31 163 31 hstemhm
          38 28 206 108 44 90 -44 28 16 28 142 28 -23 28 hintmask 0110000100100000
          -84 callgsubr
          hintmask 0111110011010000
          -104 callgsubr
          588 hlineto
          hintmask 0000000000100000
          hintmask 1000001000000000
          -246 -146 -106 callgsubr
          endchar
        </CharString>
        <CharString name="Egrave">
          -13 callgsubr
          87 -21 165 -20 -21 callsubr
          hintmask 1100000100100000
          -84 callgsubr
          hintmask 1111001011010000
          -104 callgsubr
          588 hlineto
          hintmask 0000000000100000
          hintmask 0000110100000000
          -78 770 -62 callgsubr
        </CharString>
        <CharString name="Ehookabove">
          -13 callgsubr
          99 -21 208 -20 -21 callsubr
          hintmask 1100000100100000
          -84 callgsubr
          hintmask 1111001011010000
          -104 callgsubr
          588 hlineto
          hintmask 0000000000100000
          hintmask 0000110010000000
          -26 899 -93 callsubr
        </CharString>
        <CharString name="Emacron">
          -13 callgsubr
          76 35 -21 callsubr
          hintmask 1100001001000000
          -84 callgsubr
          hintmask 1111010110100000
          -104 callgsubr
          588 hlineto
          hintmask 0000000001000000
          hintmask 0000100000000000
          35 756 -41 callsubr
        </CharString>
        <CharString name="Eng">
          771 -22 92 -70 31 -28 28 621 28 -28 31 -6 28 123 callgsubr
          0 90 cntrmask 0000001110000000
          hintmask 0000011110000000
          789 342 rmoveto
          191 32 -98 172 -181 hhcurveto
          -78 -76 -35 -55 -55 hvcurveto
          hintmask 0000101110000000
          11 68 rlineto
          hintmask 0001001110000000
          -2 -15 -16 -1 -15 hhcurveto
          hintmask 0010101110000000
          139 callgsubr
          -88 -525 rlineto
          37 callsubr
          -25 hlineto
          hintmask 0100001110000000
          -86 callsubr
          hintmask 0010001110000000
          3 42 68 0 43 hhcurveto
          hintmask 0100011110000000
          43 68 0 -3 40 hvcurveto
          -77 callgsubr
          -25 hlineto
          -80 0 12 36 6 hvcurveto
          82 490 rlineto
          65 50 80 43 82 hhcurveto
          145 33 -170 -165 -28 hvcurveto
          -22 -130 -25 -151 -78 -43 rrcurveto
          1 2 1 2 2 vvcurveto
          hintmask 1000001110000000
          25 4 -17 21 -25 hhcurveto
          -26 -24 179 callgsubr
          16 -21 26 hhcurveto
          156 93 185 179 30 hvcurveto
          endchar
        </CharString>
        <CharString name="Eogonek">
          699 182 callgsubr
          307 31 86 31 163 31 hstemhm
          38 28 317 90 -49 90 -44 28 16 28 142 28 -23 28 hintmask 0110000100100000
          -84 callgsubr
          hintmask 0111110011010000
          -104 callgsubr
          436 hlineto
          hintmask 1100001000100000
          -41 -27 -42 -47 -8 -47 -50 callgsubr
          -94 5 6 105 106 56 rrcurveto
          108 hlineto
          endchar
        </CharString>
        <CharString name="Eogonekacute">
          699 182 callgsubr
          307 31 86 31 163 31 87 169 callgsubr
          38 28 317 90 -49 90 -44 28 16 28 142 28 -23 28 hintmask 0110000001001000
          -84 callgsubr
          hintmask 0111100100110100
          -104 callgsubr
          436 hlineto
          hintmask 1100000010001000
          -41 -27 -42 -47 -8 -47 -50 callgsubr
          -94 5 6 105 106 56 rrcurveto
          108 hlineto
          hintmask 0000011000000000
          8 865 -98 callsubr
        </CharString>
        <CharString name="Epsilon">
          -13 callgsubr
          -21 callsubr
          hintmask 1100010010000000
          -84 callgsubr
          hintmask 1111101101000000
          -104 callgsubr
          588 hlineto
          hintmask 0000000010000000
          endchar
        </CharString>
        <CharString name="Ereversed">
          -13 callgsubr
          hstem
          81 28 33 28 113 28 16 28 91 90 218 28 vstem
          669 hmoveto
          1 callsubr
          87 522 rlineto
          37 6 4 11 77 hhcurveto
          23 66 callgsubr
          -575 hlineto
          -65 -225 rlineto
          28 hlineto
          140 39 37 54 156 hhcurveto
          134 hlineto
          47 1 -7 -34 -6 hvcurveto
          -39 -239 rlineto
          -93 hlineto
          -98 -7 31 86 14 hvcurveto
          -28 hlineto
          -44 -265 rlineto
          28 hlineto
          86 14 17 31 98 hhcurveto
          93 hlineto
          -44 -266 rlineto
          -34 -6 -3 -7 -47 hhcurveto
          -140 hlineto
          -171 -14 72 155 1 hvcurveto
          -28 -258 hlineto
          endchar
        </CharString>
        <CharString name="Eta">
          90 callgsubr
          75 callsubr
          hintmask 10000100
          732 hmoveto
          1 callsubr
          hintmask 01101010
          88 525 -86 callgsubr
          -39 -233 rlineto
          -310 hlineto
          39 233 -86 callgsubr
          hintmask 11010100
          -88 -525 -77 callsubr
          endchar
        </CharString>
        <CharString name="Eth">
          -22 callsubr
        </CharString>
        <CharString name="Etilde">
          -13 callgsubr
          56 50 -4 50 -21 callsubr
          hintmask 1100000100100000
          -84 callgsubr
          hintmask 1111001011010000
          -104 callgsubr
          588 hlineto
          hintmask 0000000000100000
          hintmask 0000010000000000
          30 815 79 callgsubr
          hintmask 0000100000000000
          77 callgsubr
          -18 71 callsubr
          hintmask 0000010000000000
          7 -12 -20 13 -24 hhcurveto
          -37 -23 -20 -59 -64 hvcurveto
          hintmask 0000100000000000
          16 -17 rlineto
          hintmask 0000010000000000
          -63 callgsubr
          hintmask 0000100000000000
          -71 callsubr
        </CharString>
        <CharString name="Euro">
          643 -22 30 263 30 82 30 262 30 hstem
          171 102 288 102 vstem
          584 -11 rmoveto
          190 callsubr
          -8 hlineto
          -6 -5 -4 -5 -2 hvcurveto
          -75 -20 -68 -61 -73 hhcurveto
          -63 -48 41 54 -24 hvcurveto
          -23 50 -3 58 6 60 rrcurveto
          265 hlineto
          5 5 3 5 2 hvcurveto
          4 11 rlineto
          6 3 -5 5 -7 hhcurveto
          -269 hlineto
          6 41 7 41 rlineto
          300 hlineto
          5 5 3 5 2 hvcurveto
          5 11 rlineto
          6 2 -4 5 -7 hhcurveto
          -301 hlineto
          15 59 22 58 40 51 rrcurveto
          54 42 61 40 63 hhcurveto
          74 46 -61 -74 -4 hvcurveto
          -6 4 -4 5 vhcurveto
          8 hlineto
          6 6 5 6 1 hvcurveto
          190 callsubr
          -3 hlineto
          -3 -3 -1 -2 -3 hvcurveto
          -45 -42 rlineto
          28 -26 -38 17 -45 hhcurveto
          -82 -83 -43 -64 -63 hvcurveto
          -52 -54 -37 -64 -22 -67 rrcurveto
          -50 hlineto
          -5 -5 -4 -4 -2 hvcurveto
          -4 -8 rlineto
          -7 -3 4 -7 8 hhcurveto
          49 hlineto
          -4 -14 -3 -14 -2 -13 -2 -14 -2 -14 -1 -13 rrcurveto
          -47 hlineto
          -5 -4 -4 -4 -3 hvcurveto
          -3 -8 rlineto
          -7 -4 5 -7 7 hhcurveto
          53 hlineto
          -1 -68 16 -64 34 -54 rrcurveto
          -64 41 68 -43 83 hhcurveto
          45 43 17 28 36 hvcurveto
          31 -41 rlineto
          -3 2 3 -1 3 hhcurveto
          2 hlineto
          6 6 5 6 1 hvcurveto
          endchar
        </CharString>
        <CharString name="F">
          671 0 31 294 31 293 31 hstemhm
          38 28 87 90 -3 90 -46 90 -85 90 84 28 16 28 140 28 hintmask 0010010000000000
          703 455 rmoveto
          9 225 rlineto
          -561 -62 callsubr
          hintmask 1001100000000000
          92 callsubr
          hintmask 1000010000000000
          -32 hlineto
          hintmask 0100101011000000
          -91 -2 12 37 6 hvcurveto
          41 245 rlineto
          90 hlineto
          97 6 -32 -85 108 callsubr
          hintmask 0110000100100000
          -85 -14 -17 -32 -97 hhcurveto
          -90 hlineto
          42 252 rlineto
          34 6 3 7 47 hhcurveto
          126 hlineto
          153 16 -56 -138 -7 hvcurveto
          endchar
        </CharString>
        <CharString name="G">
          91 callsubr
          hstem
          54 callgsubr
          vstem
          -98 callgsubr
          endchar
        </CharString>
        <CharString name="Gacute">
          91 callsubr
          62 -21 165 -18 callgsubr
          -109 622 -98 callsubr
        </CharString>
        <CharString name="Gamma">
          642 0 31 618 31 hstemhm
          153 90 -3 90 hintmask 01010000
          674 455 rmoveto
          9 225 rlineto
          -532 -62 callsubr
          hintmask 10100000
          92 callsubr
          hintmask 10010000
          -32 hlineto
          hintmask 01100000
          -91 -2 12 37 6 hvcurveto
          88 528 rlineto
          34 6 3 7 47 hhcurveto
          108 hlineto
          146 11 -59 -135 -6 hvcurveto
          endchar
        </CharString>
        <CharString name="Gbreve">
          91 callsubr
          41 41 133 -18 callgsubr
          -86 677 -72 callgsubr
          endchar
        </CharString>
        <CharString name="Gcaron">
          -24 callgsubr
          hintmask 0001100000000000
          -100 610 -45 callgsubr
        </CharString>
        <CharString name="Gcedilla">
          807 30 callgsubr
          44 78 callgsubr
          hstem
          54 callgsubr
          vstem
          -98 callgsubr
          -372 -388 -100 callgsubr
        </CharString>
        <CharString name="Gcircumflex">
          -24 callgsubr
          hintmask 0001100100000000
          -117 509 rmoveto
          -71 callgsubr
          endchar
        </CharString>
        <CharString name="Gcommaaccent">
          807 30 callgsubr
          44 78 callgsubr
          hstemhm
          54 callgsubr
          hintmask 0011111110000000
          -98 callgsubr
          hintmask 1100000000000000
          -372 -388 -100 callgsubr
        </CharString>
        <CharString name="Gdotaccent">
          91 callsubr
          53 108 hstemhm
          114 102 215 102 -48 108 -57 90 62 102 hintmask 1110110110000000
          -98 callgsubr
          hintmask 0001001000000000
          -203 569 -106 callgsubr
          endchar
        </CharString>
        <CharString name="H">
          90 callgsubr
          75 callsubr
          hintmask 10000100
          732 hmoveto
          1 callsubr
          hintmask 01101010
          88 525 -86 callgsubr
          -39 -233 rlineto
          -310 hlineto
          39 233 -86 callgsubr
          hintmask 11010100
          -88 -525 -77 callsubr
          endchar
        </CharString>
        <CharString name="H_uni0303">
          90 callgsubr
          53 50 -4 50 75 callsubr
          hintmask 1000000100000000
          732 hmoveto
          1 callsubr
          hintmask 0110001010000000
          88 525 -86 callgsubr
          -39 -233 rlineto
          -310 hlineto
          39 233 -86 callgsubr
          hintmask 1100010100000000
          -88 -525 -77 callsubr
          hintmask 0000100000000000
          -40 815 62 callgsubr
          hintmask 0000100000000000
          -63 callgsubr
          hintmask 0001000000000000
          -71 callsubr
        </CharString>
        <CharString name="Hbar">
          771 0 31 309 31 127 30 124 31 hstemhm
          153 90 -20 90 -85 90 -77 90 222 90 -20 90 -85 90 -77 90 hintmask 1000000010000000
          732 hmoveto
          1 callsubr
          hintmask 0010000001000000
          70 419 rlineto
          102 173 callgsubr
          hintmask 0010000000100000
          -102 hlineto
          hintmask 0001000000010000
          13 76 -86 callgsubr
          hintmask 0010001000100000
          -13 -76 rlineto
          -310 hlineto
          hintmask 0001000100000000
          13 76 -86 callgsubr
          hintmask 0010001000000000
          -13 -76 rlineto
          -102 172 callsubr
          hintmask 0010010000000000
          102 hlineto
          hintmask 1100100010000000
          -70 -419 -77 callsubr
          -130 371 rmoveto
          -310 hlineto
          hintmask 0110010001000000
          21 127 rlineto
          310 hlineto
          endchar
        </CharString>
        <CharString name="Hbrevebelow">
          771 178 callsubr
          79 31 309 31 281 31 75 callsubr
          hintmask 0010000100000000
          732 hmoveto
          1 callsubr
          hintmask 0001101010000000
          88 525 -86 callgsubr
          -39 -233 rlineto
          -310 hlineto
          39 233 -86 callgsubr
          hintmask 0011010100000000
          -88 -525 -77 callsubr
          hintmask 1100000000000000
          -203 -59 rmoveto
          -25 hlineto
          -88 -18 -74 -93 callgsubr
          endchar
        </CharString>
        <CharString name="Hcircumflex">
          90 callgsubr
          74 -21 133 -20 75 callsubr
          hintmask 1000000100000000
          732 hmoveto
          1 callsubr
          hintmask 0110001010000000
          88 525 -86 callgsubr
          -39 -233 rlineto
          -310 hlineto
          39 233 -86 callgsubr
          hintmask 1100010100000000
          -88 -525 -77 callsubr
          hintmask 0001100000000000
          -70 752 rmoveto
          -71 callgsubr
          endchar
        </CharString>
        <CharString name="Hdieresis">
          90 callgsubr
          53 97 151 callsubr
          33 97 92 90 -69 97 -30 90 hintmask 1000000100000000
          732 hmoveto
          1 callsubr
          hintmask 0110010001000000
          88 525 -86 callgsubr
          -39 -233 rlineto
          -310 hlineto
          39 233 -86 callgsubr
          hintmask 1100100100000000
          -88 -525 -77 callsubr
          hintmask 0001001010000000
          -271 785 -87 callgsubr
          endchar
        </CharString>
        <CharString name="Hdotbelow">
          135 callgsubr
          309 31 281 31 151 callsubr
          -23 108 137 90 -2 90 hintmask 0100000100000000
          732 hmoveto
          1 callsubr
          hintmask 0011010010000000
          88 525 -86 callgsubr
          -39 -233 rlineto
          -310 hlineto
          39 233 -86 callgsubr
          hintmask 0110100100000000
          -88 -525 -77 callsubr
          hintmask 1000001000000000
          -316 -146 -106 callgsubr
          endchar
        </CharString>
        <CharString name="I">
          52 callsubr
          39 callsubr
          hintmask 11010100
          -88 callgsubr
          hintmask 10101000
          -76 callsubr
          endchar
        </CharString>
        <CharString name="I_J">
          862 -22 25 -3 31 29 108 484 31 hstemhm
          33 109 -104 109 -84 90 0 90 -2 90 0 90 -84 109 -104 109 -50 109 147 90 hintmask 0100000100010000
          337 -16 callsubr
          -25 hlineto
          -80 0 12 36 6 hvcurveto
          hintmask 0001000001000000
          158 callsubr
          36 6 4 12 80 hhcurveto
          hintmask 0001000000100000
          25 hlineto
          hintmask 0001010000010000
          41 callsubr
          -68 0 -43 hhcurveto
          -43 -68 0 3 -40 hvcurveto
          hintmask 0001100010000000
          -86 callsubr
          25 hlineto
          40 callgsubr
          hintmask 0000000100000000
          -88 -525 rlineto
          hintmask 0100001000000000
          37 callsubr
          hintmask 0100010000000000
          -25 hlineto
          hintmask 0100100000000000
          -86 callsubr
          hintmask 1000000000000000
          3 42 68 0 43 hhcurveto
          hintmask 0101000000100100
          43 68 0 -3 40 hvcurveto
          581 652 55 callgsubr
          -67 -12 0 -54 hhcurveto
          -40 -88 0 3 -34 -30 callsubr
          34 hlineto
          95 1 -12 -37 -6 hvcurveto
          -76 -455 rlineto
          hintmask 1011000000001000
          -92 -16 -60 -53 -52 hhcurveto
          -40 -45 19 38 -19 hvcurveto
          38 -4 28 27 5 31 rrcurveto
          30 5 -18 24 -32 hhcurveto
          -31 -27 -21 -35 -6 hvcurveto
          -73 -12 59 -61 92 hhcurveto
          85 98 52 96 30 hvcurveto
          2 8 8 44 4 26 68 407 rcurveline
          41 7 15 0 61 hhcurveto
          endchar
        </CharString>
        <CharString name="Iacute">
          52 callsubr
          84 -21 165 -51 callgsubr
          133 865 -98 callsubr
        </CharString>
        <CharString name="Ibreve">
          52 callsubr
          63 41 133 -51 callgsubr
          156 920 -72 callgsubr
          endchar
        </CharString>
        <CharString name="Icaron">
          10 callsubr
          hintmask 00110000
          142 853 -45 callgsubr
        </CharString>
        <CharString name="Icircumflex">
          10 callsubr
          hintmask 00110001
          125 752 rmoveto
          -71 callgsubr
          endchar
        </CharString>
        <CharString name="Idblgrave">
          52 callsubr
          84 -21 188 -65 callsubr
          hintmask 00110010
          101 759 -60 callgsubr
        </CharString>
        <CharString name="Idieresis">
          52 callsubr
          53 97 123 callgsubr
          -79 97 -20 90 0 90 -47 97 hintmask 1100100100000000
          -88 callgsubr
          hintmask 1001001000000000
          -76 callsubr
          hintmask 0010010010000000
          -76 785 -87 callgsubr
          endchar
        </CharString>
        <CharString name="Idieresisacute">
          52 callsubr
          53 97 83 -21 165 -20 123 callgsubr
          -79 97 -20 90 0 90 -47 97 hintmask 1100001001000000
          -88 callgsubr
          hintmask 1000010010000000
          -76 callsubr
          hintmask 0011100100100000
          -76 785 -87 callgsubr
          24 229 -98 callsubr
        </CharString>
        <CharString name="Idotaccent">
          52 callsubr
          75 108 58 callgsubr
          -63 108 -45 90 hintmask 11001001
          -88 callgsubr
          hintmask 10010100
          -76 callsubr
          hintmask 00100001
          39 812 rmoveto
          -59 callgsubr
          hintmask 00100010
          126 callgsubr
        </CharString>
        <CharString name="Idotbelow">
          371 48 callsubr
          hstemhm
          63 90 -45 108 -63 90 -2 90 0 90 hintmask 01100101
          -88 callgsubr
          hintmask 01010010
          -76 callsubr
          hintmask 10001000
          -121 149 callgsubr
          -30 -28 -24 -30 -5 hvcurveto
          hintmask 10000100
          -30 -5 20 -24 30 hhcurveto
          hintmask 00001000
          30 28 24 30 5 hvcurveto
          endchar
        </CharString>
        <CharString name="Igrave">
          52 callsubr
          84 -21 165 -51 callgsubr
          47 770 -62 callgsubr
        </CharString>
        <CharString name="Ihookabove">
          52 callsubr
          96 -21 208 -51 callgsubr
          98 899 -93 callsubr
        </CharString>
        <CharString name="Imacron">
          52 callsubr
          73 35 39 callsubr
          hintmask 11001010
          -88 callgsubr
          hintmask 10010100
          -76 callsubr
          hintmask 00100000
          160 756 -41 callsubr
        </CharString>
        <CharString name="Imacron.alt">
          52 callsubr
          73 35 39 callsubr
          hintmask 11001010
          -88 callgsubr
          hintmask 10010100
          -76 callsubr
          hintmask 00100000
          74 756 109 callgsubr
          124 -49 0 124 hhcurveto
          endchar
        </CharString>
        <CharString name="Iogonek">
          371 182 callgsubr
          621 31 161 callgsubr
          hintmask 1100010000000000
          61 callgsubr
          hintmask 0010001010000000
          -80 0 12 36 6 hvcurveto
          158 callsubr
          36 6 4 12 80 hhcurveto
          25 hlineto
          41 callsubr
          -68 0 -43 hhcurveto
          hintmask 0010010100000000
          139 callgsubr
          hintmask 0000001000000000
          -88 -525 rlineto
          hintmask 0101000000000000
          183 callgsubr
          hintmask 1000100000000000
          3 42 68 0 43 hhcurveto
          1 hlineto
          -40 -29 -44 -54 -7 -41 -19 callsubr
          endchar
        </CharString>
        <CharString name="Iogonekacute">
          371 182 callgsubr
          621 31 84 -21 165 -20 161 callgsubr
          hintmask 1100000100000000
          61 callgsubr
          hintmask 0010000010100000
          -80 0 12 36 6 hvcurveto
          158 callsubr
          36 6 4 12 80 hhcurveto
          25 hlineto
          41 callsubr
          -68 0 -43 hhcurveto
          hintmask 0010000101000000
          139 callgsubr
          hintmask 0000000010000000
          -88 -525 rlineto
          hintmask 0100010000000000
          183 callgsubr
          hintmask 1000001000000000
          3 42 68 0 43 hhcurveto
          1 hlineto
          -40 -29 -44 -54 -7 -41 -19 callsubr
          hintmask 0001100000000000
          154 991 -98 callsubr
        </CharString>
        <CharString name="Iota">
          52 callsubr
          39 callsubr
          hintmask 11010100
          -88 callgsubr
          hintmask 10101000
          -76 callsubr
          endchar
        </CharString>
        <CharString name="Itilde">
          52 callsubr
          53 50 -4 50 -74 callsubr
          hintmask 00010000
          155 815 -67 callsubr
        </CharString>
        <CharString name="J">
          141 callsubr
          hstem
          67 109 vstem
          -51 callsubr
          endchar
        </CharString>
        <CharString name="J_uni030C.cap">
          528.08333 -22 25 57 108 310 -21 145 81 -31 31 hstemhm
          67 109 hintmask 11001100
          -51 callsubr
          120 -48 rmoveto
          51 8 -15 28 -29 hhcurveto
          -26 -18 -20 -20 -4 hvcurveto
          hintmask 00110000
          -21 -3 11 -20 26 hhcurveto
          19 13 12 0 hvcurveto
          -4 -25 -10 -61 -66 -54 rrcurveto
          -4 -4 0 -4 0 vvcurveto
          -3 -1 3 -6 6 hhcurveto
          8 71 58 89 15 hvcurveto
          endchar
        </CharString>
        <CharString name="Jacute">
          141 callsubr
          137 callsubr
          67 109 hintmask 11100100
          -51 callsubr
          hintmask 00011000
          27 213 -98 callsubr
        </CharString>
        <CharString name="Jcircumflex">
          141 callsubr
          102 callsubr
          67 109 hintmask 11100100
          -51 callsubr
          hintmask 00011000
          19 100 rmoveto
          -71 callgsubr
          endchar
        </CharString>
        <CharString name="K">
          799 0 148 callgsubr
          hintmask 11001000
          755 -16 callsubr
          -63 -12 9 46 -25 hvcurveto
          -178 332 216 173 72 59 63 1 17 1 rlinecurve
          hintmask 01010100
          -35 callsubr
          hintmask 10100000
          -38 callgsubr
          endchar
        </CharString>
        <CharString name="Kappa">
          799 0 148 callgsubr
          hintmask 11001000
          755 -16 callsubr
          -63 -12 9 46 -25 hvcurveto
          -178 332 216 173 72 59 63 1 17 1 rlinecurve
          hintmask 01010100
          -35 callsubr
          hintmask 10100000
          -38 callgsubr
          endchar
        </CharString>
        <CharString name="Kcedilla">
          -1 callsubr
          hintmask 11101000
          -38 callgsubr
          -334 -145 -100 callgsubr
        </CharString>
        <CharString name="Kcommaaccent">
          -1 callsubr
          hintmask 00101000
          -38 callgsubr
          hintmask 11000000
          -334 -145 -100 callgsubr
        </CharString>
        <CharString name="L">
          642 0 192 callsubr
          hintmask 10100000
          -29 callgsubr
          hintmask 01010000
          -15 callsubr
          hintmask 01100000
          -46 -62 -32 callgsubr
          hintmask 10010000
          -68 callsubr
          532 hlineto
          endchar
        </CharString>
        <CharString name="L_uni0303">
          642 41 callgsubr
          53 50 -4 50 88 callgsubr
          hintmask 01000100
          -15 callsubr
          hintmask 01001000
          -46 -62 -32 callgsubr
          hintmask 10000100
          -68 callsubr
          532 hlineto
          hintmask 00010000
          -73 815 -67 callsubr
        </CharString>
        <CharString name="Lacute">
          642 41 callgsubr
          84 -21 165 -20 88 callgsubr
          hintmask 01000100
          -15 callsubr
          hintmask 01001000
          -46 -62 -32 callgsubr
          hintmask 10000100
          -68 callsubr
          532 hlineto
          hintmask 00110000
          -95 865 -98 callsubr
        </CharString>
        <CharString name="Lambda">
          714 0 31 0 31 11 31 612 -20 hstemhm
          hintmask 10110000
          680 -16 callsubr
          -61 -17 0 42 -7 hvcurveto
          -104 622 rlineto
          13 -3 -2 8 -16 hhcurveto
          -16 -4 -9 -12 -6 hvcurveto
          -298 -594 rlineto
          -31 -15 -28 -39 -70 147 callgsubr
          3 33 30 0 32 hhcurveto
          42 16 -1 -2 52 hvcurveto
          5 31 -49 1 -22 23 5 28 rlinecurve
          1 5 0 2 7 14 236 471 rcurveline
          84 -494 rlineto
          hintmask 01000000
          2 -13 0 -2 -1 -4 rrcurveto
          -31 -5 -55 0 -28 hhcurveto
          hintmask 10000000
          -86 callsubr
          3 46 51 0 46 hhcurveto
          endchar
        </CharString>
        <CharString name="Lcaron">
          642 0 31 447 -21 145 81 -31 31 88 callgsubr
          hintmask 00010100
          -15 callsubr
          hintmask 00011000
          -46 -62 -32 callgsubr
          hintmask 10010100
          -68 callsubr
          532 hlineto
          35 604 rmoveto
          51 8 -15 28 -29 hhcurveto
          -26 -18 -20 -20 -4 hvcurveto
          hintmask 01100000
          -21 -3 11 -20 26 hhcurveto
          19 13 12 0 hvcurveto
          -4 -25 -10 -61 -66 -54 rrcurveto
          -4 -4 0 -4 0 vvcurveto
          -3 -1 3 -6 6 hhcurveto
          8 71 58 89 15 hvcurveto
          endchar
        </CharString>
        <CharString name="Lcedilla">
          642 48 callgsubr
          hstemhm
          152 90 -1 90 hintmask 00101000
          -29 callgsubr
          hintmask 00010100
          -15 callsubr
          hintmask 00011000
          -46 -62 -32 callgsubr
          hintmask 11100100
          -68 callsubr
          532 hlineto
          -228 -145 -100 callgsubr
        </CharString>
        <CharString name="Lcommaaccent">
          642 48 callgsubr
          hstemhm
          152 90 -1 90 hintmask 00101000
          -29 callgsubr
          hintmask 00010100
          -15 callsubr
          hintmask 00011000
          -46 -62 -32 callgsubr
          hintmask 00100100
          -68 callsubr
          532 hlineto
          hintmask 11000000
          -228 -145 -100 callgsubr
        </CharString>
        <CharString name="Ldot">
          642 0 31 323 108 190 31 hstemhm
          152 90 -1 90 189 108 hintmask 10010000
          -29 callgsubr
          hintmask 00101000
          -15 callsubr
          hintmask 00110000
          -46 -62 -32 callgsubr
          hintmask 11001100
          -68 callsubr
          532 hlineto
          58 408 -106 callgsubr
          endchar
        </CharString>
        <CharString name="Ldotbelow">
          642 -200 108 92 192 callsubr
          -88 108 hintmask 01010000
          -29 callgsubr
          hintmask 00101000
          -15 callsubr
          hintmask 00110000
          -46 -62 -32 callgsubr
          hintmask 01001000
          -68 callsubr
          532 hlineto
          hintmask 10000100
          -219 -146 -106 callgsubr
          endchar
        </CharString>
        <CharString name="Ldotbelowmacron">
          642 48 callsubr
          73 35 hstemhm
          152 90 -1 90 -88 108 hintmask 01001000
          -29 callgsubr
          hintmask 00100100
          -15 callsubr
          hintmask 00101000
          -46 -62 -32 callgsubr
          hintmask 11000100
          -68 callsubr
          532 hlineto
          -219 149 callgsubr
          hintmask 10000010
          -30 -28 -24 -30 -5 hvcurveto
          -30 -5 20 -24 30 hhcurveto
          30 28 24 30 5 hvcurveto
          hintmask 00010000
          158 902 -41 callsubr
        </CharString>
        <CharString name="Lslash">
          642 0 192 callsubr
          hintmask 10100000
          -29 callgsubr
          49 294 203 142 -19 28 -176 -124 rlineto
          hintmask 01010000
          32 191 rlineto
          37 6 6 12 91 hhcurveto
          32 106 callsubr
          -36 -91 0 -40 hhcurveto
          hintmask 01100000
          -46 -62 -32 callgsubr
          hintmask 10010000
          77 0 -11 -37 -6 hvcurveto
          -44 -264 -101 -71 18 -28 75 53 -36 -215 -91 callgsubr
          532 hlineto
          endchar
        </CharString>
        <CharString name="M">
          942 41 callgsubr
          hstemhm
          163 31 534 81 13 81 0 81 hintmask 11110100
          -44 callsubr
          hintmask 10011000
          32 callsubr
          endchar
        </CharString>
        <CharString name="Mdotbelow">
          942 48 callsubr
          hstemhm
          163 31 199 108 227 81 13 81 0 81 hintmask 01110101
          -44 callsubr
          hintmask 01000110
          32 callsubr
          hintmask 10001000
          -397 -146 -106 callgsubr
          endchar
        </CharString>
        <CharString name="Mu">
          942 41 callgsubr
          hstemhm
          163 31 534 81 13 81 0 81 hintmask 11110100
          -44 callsubr
          hintmask 10011000
          32 callsubr
          endchar
        </CharString>
        <CharString name="N">
          77 callsubr
          hstem
          122 callsubr
          vstem
          -97 callsubr
          endchar
        </CharString>
        <CharString name="Nacute">
          77 callsubr
          84 -21 165 -20 184 callgsubr
          hintmask 11001100
          -97 callsubr
          hintmask 00110000
          -171 213 -98 callsubr
        </CharString>
        <CharString name="Ncaron">
          77 callsubr
          74 -21 133 -20 184 callgsubr
          hintmask 11001100
          -97 callsubr
          hintmask 00110000
          -162 201 -45 callgsubr
        </CharString>
        <CharString name="Ncedilla">
          771 48 callgsubr
          hstem
          122 callsubr
          vstem
          -97 callsubr
          -435 -797 -100 callgsubr
        </CharString>
        <CharString name="Ncommaaccent">
          771 48 callgsubr
          184 callgsubr
          hintmask 00111100
          -97 callsubr
          hintmask 11000000
          -435 -797 -100 callgsubr
        </CharString>
        <CharString name="Ndotaccent">
          77 callsubr
          53 108 hstemhm
          158 31 275 108 123 31 hintmask 11010100
          -97 callsubr
          hintmask 00101000
          -269 138 -106 callgsubr
          endchar
        </CharString>
        <CharString name="Ndotbelow">
          771 48 callsubr
          hstemhm
          158 31 119 108 279 31 hintmask 01110100
          -97 callsubr
          hintmask 10001000
          -425 -798 -106 callgsubr
          endchar
        </CharString>
        <CharString name="Ntilde">
          77 callsubr
          53 50 -4 50 184 callgsubr
          hintmask 11001100
          -97 callsubr
          hintmask 00010000
          -149 163 -67 callsubr
        </CharString>
        <CharString name="Nu">
          77 callsubr
          hstem
          122 callsubr
          vstem
          -97 callsubr
          endchar
        </CharString>
        <CharString name="O">
          18 callgsubr
          hstem
          -103 callgsubr
          endchar
        </CharString>
        <CharString name="OE">
          -39 callsubr
        </CharString>
        <CharString name="OE.dup">
          -39 callsubr
        </CharString>
        <CharString name="Oacute">
          121 callgsubr
          165 -20 hstemhm
          hintmask 11000000
          -103 callgsubr
          hintmask 00110000
          -14 511 -98 callsubr
        </CharString>
        <CharString name="Obreve">
          18 callgsubr
          41 41 15 callsubr
          9 566 -72 callgsubr
          endchar
        </CharString>
        <CharString name="Ocaron">
          18 callgsubr
          52 -21 15 callsubr
          -5 499 -45 callgsubr
        </CharString>
        <CharString name="Ocircumflex">
          18 callgsubr
          52 -21 15 callsubr
          118 callsubr
          endchar
        </CharString>
        <CharString name="Ocircumflexacute">
          18 callgsubr
          52 -21 318 -20 hstemhm
          hintmask 11000000
          -103 callgsubr
          hintmask 00110000
          118 callsubr
          11 272 rmoveto
          24 8 -14 22 -24 hhcurveto
          -11 -7 -6 -7 -11 8 callgsubr
        </CharString>
        <CharString name="Ocircumflexdotbelow">
          131 callsubr
          179 callsubr
          322 108 hintmask 01111000
          -103 callgsubr
          118 callsubr
          hintmask 10000100
          -232 -882 -106 callgsubr
          endchar
        </CharString>
        <CharString name="Ocircumflexgrave">
          18 callgsubr
          52 -21 15 callsubr
          -22 398 14 callgsubr
        </CharString>
        <CharString name="Ocircumflexhookabove">
          18 callgsubr
          52 -21 341 -20 hstemhm
          hintmask 11000000
          -103 callgsubr
          hintmask 00110000
          -22 398 -43 callgsubr
        </CharString>
        <CharString name="Ocircumflextilde">
          18 callgsubr
          47 85 callgsubr
          hintmask 11000000
          -103 callgsubr
          hintmask 00100000
          -22 398 141 callgsubr
          hintmask 00010000
          8 124 callgsubr
          -16 17 rlineto
          hintmask 00001000
          -27 -31 -26 -19 -31 hhcurveto
          -22 -18 71 callsubr
          hintmask 00000100
          51 callgsubr
          hintmask 00001000
          15 -17 rlineto
          hintmask 00000100
          27 32 26 19 31 hhcurveto
          22 18 -9 -17 28 hvcurveto
          hintmask 00001000
          80 callsubr
        </CharString>
        <CharString name="Odblgrave">
          121 callgsubr
          188 -20 hstemhm
          hintmask 11000000
          -103 callgsubr
          hintmask 00110000
          -46 405 -60 callgsubr
        </CharString>
        <CharString name="Odieresis">
          18 callgsubr
          31 97 hstemhm
          378 97 113 97 hintmask 11000000
          -103 callgsubr
          hintmask 00111000
          -223 431 -87 callgsubr
          endchar
        </CharString>
        <CharString name="Odotbelow">
          131 callsubr
          hstemhm
          322 108 hintmask 01100000
          -103 callgsubr
          hintmask 10010000
          -268 -500 -106 callgsubr
          endchar
        </CharString>
        <CharString name="Ograve">
          121 callgsubr
          165 -20 hstemhm
          hintmask 11000000
          -103 callgsubr
          hintmask 00110000
          -100 416 -62 callgsubr
        </CharString>
        <CharString name="Ohookabove">
          18 callgsubr
          74 170 callgsubr
          hintmask 11000000
          -103 callgsubr
          hintmask 00110000
          -48 545 -93 callsubr
        </CharString>
        <CharString name="Ohorn">
          18 callgsubr
          86 182 callsubr
          hintmask 00101000
          796 338 rmoveto
          16 96 -19 93 -53 70 -7 9 -7 8 -7 8 44 12 35 44 8 49 rrcurveto
          34 6 -17 30 -32 47 callgsubr
          hintmask 11000100
          4 3 0 1 4 hvcurveto
          -15 -20 -22 -16 -24 -5 rrcurveto
          39 -48 -62 23 -69 hhcurveto
          -91 -94 -40 -68 -74 hvcurveto
          -77 -70 -51 -93 -16 -96 -15 -94 19 -92 54 -68 rrcurveto
          -67 52 80 -39 91 hhcurveto
          92 94 39 67 74 hvcurveto
          76 68 51 92 15 94 rrcurveto
          -99 17 rmoveto
          hintmask 11011000
          -14 -87 -29 -89 -62 -72 rrcurveto
          -59 -51 -70 -40 -72 hhcurveto
          -71 -56 40 59 -31 hvcurveto
          -38 72 1 89 14 87 14 82 29 82 59 65 rrcurveto
          56 52 70 37 69 hhcurveto
          70 58 -37 -56 32 hvcurveto
          39 -65 1 -82 -14 -82 rrcurveto
          endchar
        </CharString>
        <CharString name="Ohornacute">
          121 callgsubr
          45 -20 140 182 callsubr
          hintmask 00010010
          -76 callgsubr
          hintmask 00101000
          -42 510 -98 callsubr
        </CharString>
        <CharString name="Ohorndotbelow">
          131 callsubr
          86 167 callsubr
          2 108 162 108 -46 102 hintmask 00010010
          796 338 rmoveto
          16 96 -19 93 -53 70 -7 9 -7 8 -7 8 44 12 35 44 8 49 rrcurveto
          34 6 -17 30 -32 47 callgsubr
          hintmask 01100001
          4 3 0 1 4 hvcurveto
          -15 -20 -22 -16 -24 -5 rrcurveto
          39 -48 -62 23 -69 hhcurveto
          -91 -94 -40 -68 -74 hvcurveto
          -77 -70 -51 -93 -16 -96 -15 -94 19 -92 54 -68 rrcurveto
          -67 52 80 -39 91 hhcurveto
          92 94 39 67 74 hvcurveto
          76 68 51 92 15 94 rrcurveto
          -99 17 rmoveto
          hintmask 01101010
          -14 -87 -29 -89 -62 -72 rrcurveto
          -59 -51 -70 -40 -72 hhcurveto
          -71 -56 40 59 -31 hvcurveto
          -38 72 1 89 14 87 14 82 29 82 59 65 rrcurveto
          56 52 70 37 69 hhcurveto
          70 58 -37 -56 32 hvcurveto
          39 -65 1 -82 -14 -82 rrcurveto
          hintmask 10000100
          -267 -501 -106 callgsubr
          endchar
        </CharString>
        <CharString name="Ohorngrave">
          121 callgsubr
          45 -20 140 182 callsubr
          hintmask 00010010
          -76 callgsubr
          hintmask 00101000
          -99 415 -62 callgsubr
        </CharString>
        <CharString name="Ohornhookabove">
          18 callgsubr
          74 -21 33 -20 195 182 callsubr
          hintmask 00010010
          -76 callgsubr
          hintmask 00101000
          -48 544 -93 callsubr
        </CharString>
        <CharString name="Ohorntilde">
          18 callgsubr
          31 50 -4 50 -41 182 callsubr
          hintmask 00001010
          -76 callgsubr
          hintmask 00010000
          9 460 -67 callsubr
        </CharString>
        <CharString name="Ohungarumlaut">
          121 callgsubr
          188 -20 hstemhm
          hintmask 11000000
          -103 callgsubr
          hintmask 00110000
          -146 542 rmoveto
          -2 callgsubr
          171 hmoveto
          -2 callgsubr
          endchar
        </CharString>
        <CharString name="Omacron">
          18 callgsubr
          51 35 hstemhm
          hintmask 11000000
          -103 callgsubr
          hintmask 00100000
          13 402 -41 callsubr
        </CharString>
        <CharString name="Omega">
          -23 callgsubr
        </CharString>
        <CharString name="Omicron">
          18 callgsubr
          hstem
          -103 callgsubr
          endchar
        </CharString>
        <CharString name="Oogonek">
          799 -22 30 -28 28 669 28 hstemhm
          293 102 15 102 hintmask 01111000
          22 callsubr
          hintmask 10111000
          45 callgsubr
          endchar
        </CharString>
        <CharString name="Oogonekacute">
          799 -22 30 -28 28 669 28 62 169 callgsubr
          293 102 15 102 hintmask 01100110
          22 callsubr
          hintmask 10100110
          45 callgsubr
          hintmask 00011000
          -14 511 -98 callsubr
        </CharString>
        <CharString name="Orogate">
          799 44 callgsubr
          33 200 -122 159 -181 7 29 173 rcurveline
          -24 hlineto
          -29 -173 -182 -7 -175 -160 -33 -199 rlinecurve
          -34 -199 124 -155 179 -7 -28 -172 rcurveline
          24 hlineto
          28 172 182 7 175 155 34 199 rlinecurve
          -100 15 rmoveto
          -258 -43 -154 -88 -101 hhcurveto
          -101 -124 88 258 43 hvcurveto
          244 41 156 79 97 hhcurveto
          97 130 -79 -244 -41 hvcurveto
          endchar
        </CharString>
        <CharString name="Oslash">
          130 callsubr
          hstem
          114 90 504 90 vstem
          -47 callsubr
          endchar
        </CharString>
        <CharString name="Oslash.dup">
          130 callsubr
          hstem
          114 90 504 90 vstem
          -47 callsubr
          endchar
        </CharString>
        <CharString name="Oslashacute">
          130 callsubr
          47 169 callgsubr
          114 90 504 90 hintmask 11110011
          -47 callsubr
          hintmask 00001100
          -24 526 -98 callsubr
        </CharString>
        <CharString name="Otilde">
          18 callgsubr
          31 104 callsubr
          hintmask 11000000
          -103 callgsubr
          hintmask 00010000
          8 461 -67 callsubr
        </CharString>
        <CharString name="P">
          -10 callsubr
        </CharString>
        <CharString name="Phi">
          742 0 31 104 25 -24 25 362 25 104 31 hstemhm
          114 99 126 84 -74 84 -80 84 -24 84 -80 84 -74 84 131 99 hintmask 0001000000100000
          741 341 rmoveto
          17 103 -99 92 -158 12 rrcurveto
          hintmask 0000100000010000
          10 55 72 callsubr
          hintmask 0001010000100000
          -10 -55 -171 -17 -116 -95 -16 -94 rlinecurve
          hintmask 0100000100000000
          -16 -98 89 -93 162 -16 rrcurveto
          hintmask 1000001000000000
          68 callgsubr
          hintmask 0100010100001000
          10 55 165 12 126 95 17 99 rlinecurve
          -388 -180 rmoveto
          -107 13 -51 59 18 108 rrcurveto
          hintmask 0000000001000000
          17 100 62 66 121 15 rrcurveto
          hintmask 0010000010000000
          229 -180 rmoveto
          hintmask 0100000010000000
          -19 -114 -76 -56 -110 -12 rrcurveto
          hintmask 0001000001001000
          60 363 94 -10 72 -47 -21 -124 rlinecurve
          endchar
        </CharString>
        <CharString name="Pi">
          771 0 31 618 31 hstem
          153 90 310 90 vstem
          732 hmoveto
          1 callsubr
          87 522 rlineto
          37 6 4 11 77 hhcurveto
          23 66 callgsubr
          -694 -62 callsubr
          -87 -522 -64 callgsubr
          95 570 rlineto
          310 hlineto
          -95 -570 -70 callgsubr
          endchar
        </CharString>
        <CharString name="Psi">
          799 0 31 493 31 97 31 hstemhm
          367 84 -74 84 -80 84 -10 84 hintmask 01000100
          831 542 rmoveto
          13 3 -11 0 -16 hhcurveto
          -35 hlineto
          -49 -48 -21 -134 -23 hvcurveto
          -17 -96 -49 -116 -121 -25 rrcurveto
          hintmask 00100010
          74 440 72 callsubr
          hintmask 01000100
          -74 -440 -134 32 26 167 9 53 rlinecurve
          3 16 6 51 -14 36 rrcurveto
          37 -15 -31 0 -19 hhcurveto
          -35 hlineto
          -16 -11 0 -13 -3 hvcurveto
          -1 -10 9 -1 9 -1 51 -8 -13 -87 -7 -40 -5 -27 -4 -77 29 -56 rrcurveto
          hintmask 00001000
          33 -62 54 -28 75 -10 rrcurveto
          hintmask 10010000
          68 callgsubr
          hintmask 00001000
          10 55 205 24 54 152 19 110 rlinecurve
          3 14 15 87 57 8 6 1 10 1 1 10 rrcurveto
          endchar
        </CharString>
        <CharString name="Q">
          799 -194 102 70 28 -14 28 104 25 528 28 hstemhm
          326 25 -25 99 -25 25 cntrmask 00000111
          hintmask 11001111
          745 -9 rmoveto
          9 2 2 12 -13 hhcurveto
          -7 -5 -6 -5 -2 hvcurveto
          -87 -22 -69 -6 -16 hhcurveto
          -54 -14 43 56 -14 hvcurveto
          115 44 122 123 28 165 rrcurveto
          -84 callsubr
          hintmask 10111111
          35 39 7 7 26 hvcurveto
          -99 1 1 -87 93 hhcurveto
          104 43 134 51 8 hvcurveto
          -46 348 rmoveto
          -22 -132 -58 -106 -96 -58 rrcurveto
          50 -11 -22 56 -65 hhcurveto
          -49 -43 -39 -46 -7 hvcurveto
          -4 -24 8 -20 0 vvcurveto
          -90 37 -57 103 30 179 rrcurveto
          248 41 154 90 104 hhcurveto
          104 124 -89 -249 -41 hvcurveto
          -206 -312 rmoveto
          hintmask 01010111
          -15 -32 -35 -6 -26 hhcurveto
          -49 -3 42 16 3 hvcurveto
          30 5 27 30 39 hhcurveto
          53 14 -42 -55 4 hvcurveto
          endchar
        </CharString>
        <CharString name="R">
          -99 callsubr
          endchar
        </CharString>
        <CharString name="Racute">
          -99 callsubr
          hintmask 11100000
          53 362 -98 callsubr
        </CharString>
        <CharString name="Rcaron">
          -99 callsubr
          hintmask 11100000
          62 350 -45 callgsubr
        </CharString>
        <CharString name="Rcedilla">
          -99 callsubr
          -210 -648 -100 callgsubr
        </CharString>
        <CharString name="Rcommaaccent">
          -99 callsubr
          hintmask 11100000
          -210 -648 -100 callgsubr
        </CharString>
        <CharString name="Rdblgrave">
          -99 callsubr
          hintmask 11100000
          -7 256 -60 callgsubr
        </CharString>
        <CharString name="Rdotaccent">
          756 0 31 298 25 298 195 callsubr
          0 87 -56 102 172 108 -57 -61 callsubr
          hintmask 1110010010000000
          -116 hlineto
          43 257 4 26 4 9 19 4 rlinecurve
          2 10 32 0 21 hhcurveto
          86 127 0 -149 -25 hvcurveto
          hintmask 1110001000000000
          -41 309 -106 callgsubr
          endchar
        </CharString>
        <CharString name="Rdotbelow">
          756 0 31 298 25 298 195 callsubr
          0 87 -56 102 12 108 103 -61 callsubr
          hintmask 1110010010000000
          -116 hlineto
          43 257 4 26 4 9 19 4 rlinecurve
          2 10 32 0 21 hhcurveto
          86 127 0 -149 -25 hvcurveto
          hintmask 1110001000000000
          -201 -649 -106 callgsubr
          endchar
        </CharString>
        <CharString name="Rdotbelowmacron">
          756 0 31 298 25 298 195 callsubr
          0 87 -56 102 12 108 103 -61 callsubr
          hintmask 1110011010000000
          -116 hlineto
          43 257 4 26 4 9 19 4 rlinecurve
          2 10 32 0 21 hhcurveto
          86 127 0 -149 -25 hvcurveto
          -201 -649 -106 callgsubr
          hintmask 1110000000000000
          281 902 -41 callsubr
        </CharString>
        <CharString name="Rho">
          -10 callsubr
        </CharString>
        <CharString name="S">
          571 -22 50 callsubr
          hintmask 00010100
          544 185 rmoveto
          -80 callgsubr
          hintmask 01101010
          -75 callsubr
          hintmask 10000000
          188 callsubr
          -36 callsubr
          endchar
        </CharString>
        <CharString name="S_S">
          1142 -22 50 callsubr
          392 64 -57 64 -39 64 19 64 hintmask 0001010100000000
          544 185 rmoveto
          9 57 -13 44 -19 30 -34 55 -43 11 -63 15 -84 21 rcurveline
          -77 20 -15 64 7 44 rrcurveto
          67 11 65 64 84 hhcurveto
          129 36 -96 -101 -3 hvcurveto
          -19 0 -5 12 14 1 7 21 4 vhcurveto
          hintmask 0000010001000000
          32 193 rlineto
          20 3 2 8 -12 hhcurveto
          hintmask 0110111010000000
          -7 -2 -1 -12 -9 hvcurveto
          -16 -18 13 13 -42 -52 rrcurveto
          20 -14 -43 50 -94 hhcurveto
          -75 callsubr
          hintmask 1001010000000000
          188 callsubr
          -36 callsubr
          571 hmoveto
          -80 callgsubr
          hintmask 0110100001100000
          -75 callsubr
          hintmask 1000000100000000
          188 callsubr
          hintmask 1000000010000000
          -36 callsubr
          endchar
        </CharString>
        <CharString name="Sacute">
          53 callsubr
          62 169 callgsubr
          109 64 hintmask 0001010000000000
          544 185 rmoveto
          -80 callgsubr
          hintmask 0110100010000000
          -75 callsubr
          hintmask 1000000000000000
          188 callsubr
          -36 callsubr
          hintmask 0000001100000000
          26 680 -98 callsubr
        </CharString>
        <CharString name="Scaron">
          53 callsubr
          179 callsubr
          109 64 hintmask 0001010000000000
          544 185 rmoveto
          -80 callgsubr
          hintmask 0110100010000000
          -75 callsubr
          hintmask 1000000000000000
          188 callsubr
          -36 callsubr
          hintmask 0000001100000000
          35 668 -45 callgsubr
        </CharString>
        <CharString name="Scedilla">
          571 -200 28 78 28 44 50 callsubr
          hintmask 0000010100000000
          544 185 rmoveto
          -80 callgsubr
          hintmask 0001101010000000
          -75 callsubr
          hintmask 1110000000000000
          188 callsubr
          -20 -3 -2 -8 12 hhcurveto
          7 1 1 12 9 hvcurveto
          17 18 -13 -13 42 52 36 -42 48 -17 43 -7 -13 -76 rcurveline
          37 40 -7 -32 -5 hvcurveto
          -39 -7 -97 0 -77 hhcurveto
          -14 hlineto
          -4 -28 rlineto
          28 hlineto
          110 177 callgsubr
          7 44 121 2 95 99 18 106 rlinecurve
          endchar
        </CharString>
        <CharString name="Scircumflex">
          53 callsubr
          179 callsubr
          109 64 hintmask 0001010000000000
          544 185 rmoveto
          -80 callgsubr
          hintmask 0110100010000000
          -75 callsubr
          hintmask 1000000000000000
          188 callsubr
          -36 callsubr
          hintmask 0000001100000000
          18 567 rmoveto
          -71 callgsubr
          endchar
        </CharString>
        <CharString name="Sdotbelow">
          571 53 callgsubr
          70 50 callsubr
          35 108 hintmask 0000101000000000
          544 185 rmoveto
          -80 callgsubr
          hintmask 0011010100000000
          -75 callsubr
          hintmask 0100000000000000
          188 callsubr
          -36 callsubr
          hintmask 1000000010000000
          -228 -331 -106 callgsubr
          endchar
        </CharString>
        <CharString name="Sigma">
          742 0 43 283 31 295 31 hstem
          724 237 rmoveto
          -28 hlineto
          -164 -48 -66 -30 -168 hhcurveto
          -285 hlineto
          304 283 12 10 0 2 1 4 rlinecurve
          0 1 6 -5 9 vhcurveto
          -160 295 rlineto
          237 hlineto
          156 66 -25 -169 -9 hvcurveto
          28 hlineto
          10 225 rlineto
          -572 hlineto
          -22 -5 0 -22 -4 hvcurveto
          196 -363 -290 -269 -11 -10 -2 -2 -1 -4 rlinecurve
          -13 -2 11 0 16 hhcurveto
          572 hlineto
          endchar
        </CharString>
        <CharString name="T">
          742 0 142 callgsubr
          hintmask 01010000
          -55 callgsubr
          hintmask 10100000
          -48 callgsubr
          hintmask 01010000
          -26 callsubr
          endchar
        </CharString>
        <CharString name="T_uni0303">
          184 callsubr
          59 104 callsubr
          339 90 -2 90 hintmask 01000100
          -55 callgsubr
          hintmask 10001000
          -48 callgsubr
          hintmask 01000100
          -26 callsubr
          hintmask 00010000
          -74 363 79 callgsubr
          hintmask 00100000
          77 callgsubr
          -18 71 callsubr
          hintmask 00010000
          7 -12 -20 13 -24 hhcurveto
          -37 -23 -20 -59 -64 hvcurveto
          hintmask 00100000
          16 -17 rlineto
          hintmask 00011000
          -63 callgsubr
          hintmask 00100000
          -71 callsubr
        </CharString>
        <CharString name="T_uni0308">
          184 callsubr
          59 97 hstemhm
          339 90 -80 97 -19 90 42 97 hintmask 01000100
          -55 callgsubr
          hintmask 10010000
          -48 callgsubr
          hintmask 01000100
          -26 callsubr
          hintmask 00101010
          -305 333 -87 callgsubr
          endchar
        </CharString>
        <CharString name="Tau">
          742 0 142 callgsubr
          hintmask 01010000
          -55 callgsubr
          hintmask 10100000
          -48 callgsubr
          hintmask 01010000
          -26 callsubr
          endchar
        </CharString>
        <CharString name="Tcaron">
          184 callsubr
          80 186 callsubr
          339 90 -2 90 hintmask 01000100
          -55 callgsubr
          hintmask 10001000
          -48 callgsubr
          hintmask 01000100
          -26 callsubr
          hintmask 00110000
          -87 401 -45 callgsubr
        </CharString>
        <CharString name="Tcedilla">
          742 -200 28 78 28 66 166 callgsubr
          -85 56 0 86 -59 90 hintmask 00010001
          -55 callgsubr
          hintmask 01101000
          -88 -525 rlineto
          -34 -5 -3 -15 -105 hhcurveto
          -39 107 callgsubr
          2 30 80 1 51 hhcurveto
          -16 -97 rlineto
          hintmask 10000100
          19 callgsubr
          hintmask 01100010
          113 callsubr
          136 callsubr
          11 69 rlineto
          52 80 -1 -2 29 hvcurveto
          -77 callgsubr
          -39 hlineto
          hintmask 00001000
          -105 3 15 34 5 hvcurveto
          hintmask 00010001
          -26 callsubr
          endchar
        </CharString>
        <CharString name="Tdotbelow">
          742 110 callgsubr
          615 31 hstemhm
          293 108 -62 90 -2 90 hintmask 00100100
          -55 callgsubr
          hintmask 01001000
          -48 callgsubr
          hintmask 00100100
          -26 callsubr
          hintmask 10010000
          -350 -598 -106 callgsubr
          endchar
        </CharString>
        <CharString name="Theta">
          799 -22 27 299 77 299 25 hstemhm
          114 96 46 28 -4 28 296 28 -4 28 46 96 hintmask 1111010110000000
          798 339 rmoveto
          -84 callsubr
          186 183 158 203 34 hvcurveto
          -96 hmoveto
          -247 -42 -156 -87 -104 hhcurveto
          -103 -129 87 247 42 hvcurveto
          247 41 154 94 107 hhcurveto
          108 123 -95 -246 -41 hvcurveto
          -70 -69 rmoveto
          24 145 rlineto
          -28 hlineto
          -5 -34 rlineto
          -320 hlineto
          5 34 rlineto
          -28 hlineto
          hintmask 0100101000000000
          -24 -145 rlineto
          28 hlineto
          6 34 rlineto
          320 hlineto
          -6 -34 rlineto
          endchar
        </CharString>
        <CharString name="Thorn">
          642 0 31 147 31 311 31 101 31 hstem
          644 364 rmoveto
          97 16 -72 90 -128 hhcurveto
          -142 hlineto
          8 51 6 32 4 10 29 5 rlinecurve
          3 19 33 0 20 hhcurveto
          5 31 -145 -3 -143 3 -86 callsubr
          28 27 0 -4 18 hvcurveto
          26 -5 -1 -14 -5 -27 -86 -521 rcurveline
          -6 -32 -4 -10 -29 -5 rrcurveto
          -3 -19 -33 0 -20 hhcurveto
          -5 -31 145 3 143 -3 -77 callgsubr
          -28 -27 0 4 -18 hvcurveto
          -26 5 1 14 5 27 16 97 rcurveline
          145 hlineto
          122 104 88 98 17 hvcurveto
          -99 1 rmoveto
          -75 -13 -64 -81 -97 hhcurveto
          -110 hlineto
          52 311 rlineto
          121 hlineto
          101 20 -93 -62 -10 hvcurveto
          endchar
        </CharString>
        <CharString name="Tlinebelow">
          742 -163 35 128 142 callgsubr
          hintmask 00101000
          -55 callgsubr
          hintmask 01010000
          -48 callgsubr
          hintmask 00101000
          -26 callsubr
          hintmask 10000000
          -222 -615 -41 callsubr
        </CharString>
        <CharString name="U">
          771 -22 175 callgsubr
          308 31 58 31 hintmask 11001110
          841 652 69 callgsubr
          -2 -54 -16 -1 -48 hhcurveto
          -49 -12 1 2 -56 -30 callsubr
          102 -8 -48 -27 -5 hvcurveto
          -58 -347 rlineto
          -136 -22 -112 -85 -100 hhcurveto
          -58 -108 35 180 30 hvcurveto
          hintmask 01010000
          64 380 rlineto
          37 6 4 11 77 hhcurveto
          23 66 callgsubr
          hintmask 01101000
          -49 callgsubr
          hintmask 11110010
          77 0 -11 -37 -6 hvcurveto
          -63 -374 rlineto
          -146 -24 103 -106 138 hhcurveto
          147 107 137 100 17 hvcurveto
          60 360 rlineto
          30 5 8 47 102 hhcurveto
          endchar
        </CharString>
        <CharString name="U_uni032F">
          771 -212 -21 133 41 37 175 callgsubr
          308 31 58 31 hintmask 0011001110000000
          841 652 69 callgsubr
          -2 -54 -16 -1 -48 hhcurveto
          -49 -12 1 2 -56 -30 callsubr
          102 -8 -48 -27 -5 hvcurveto
          -58 -347 rlineto
          -136 -22 -112 -85 -100 hhcurveto
          -58 -108 35 180 30 hvcurveto
          hintmask 0001010000000000
          64 380 rlineto
          37 6 4 11 77 hhcurveto
          23 66 callgsubr
          hintmask 0001101000000000
          -49 callgsubr
          hintmask 0011110010000000
          77 0 -11 -37 -6 hvcurveto
          -63 -374 rlineto
          -146 -24 103 -106 138 hhcurveto
          147 107 137 100 17 hvcurveto
          60 360 rlineto
          30 5 8 47 102 hhcurveto
          hintmask 1100000000000000
          -318 -885 -12 callgsubr
          57 -47 -86 -12 hvcurveto
          endchar
        </CharString>
        <CharString name="Uacute">
          52 callgsubr
          84 -21 165 -96 callsubr
          -149 213 -98 callsubr
        </CharString>
        <CharString name="Ubreve">
          52 callgsubr
          63 41 133 -96 callsubr
          -126 268 -72 callgsubr
          endchar
        </CharString>
        <CharString name="Ucaron">
          52 callgsubr
          74 -21 133 -96 callsubr
          -140 201 -45 callgsubr
        </CharString>
        <CharString name="Ucircumflex">
          52 callgsubr
          74 -21 133 -96 callsubr
          -157 100 rmoveto
          -71 callgsubr
          endchar
        </CharString>
        <CharString name="Udblgrave">
          52 callgsubr
          84 -21 188 -96 callsubr
          -181 107 -60 callgsubr
        </CharString>
        <CharString name="Udieresis">
          52 callgsubr
          53 97 57 callsubr
          88 97 113 97 -87 31 58 31 hintmask 1100010011000000
          841 652 69 callgsubr
          -2 -54 -16 -1 -48 hhcurveto
          -49 -12 1 2 -56 -30 callsubr
          102 -8 -48 -27 -5 hvcurveto
          -58 -347 rlineto
          -136 -22 -112 -85 -100 hhcurveto
          -58 -108 35 180 30 hvcurveto
          hintmask 0100100000000000
          64 380 rlineto
          37 6 4 11 77 hhcurveto
          23 66 callgsubr
          hintmask 0101010000000000
          -49 callgsubr
          hintmask 1101100001000000
          77 0 -11 -37 -6 hvcurveto
          -63 -374 rlineto
          -146 -24 103 -106 138 hhcurveto
          147 107 137 100 17 hvcurveto
          60 360 rlineto
          30 5 8 47 102 hhcurveto
          hintmask 0010001100000000
          -358 2 callsubr
          hintmask 0010000010000000
          -54 callsubr
          hintmask 0000000100000000
          27 24 22 27 5 hvcurveto
          endchar
        </CharString>
        <CharString name="Udieresisacute">
          52 callgsubr
          53 97 83 -21 165 -68 callgsubr
          hintmask 0001100001000000
          27 24 22 27 5 hvcurveto
          24 229 -98 callsubr
        </CharString>
        <CharString name="Udieresiscaron">
          52 callgsubr
          53 97 73 -21 133 -68 callgsubr
          hintmask 0001100001010000
          27 24 22 27 5 hvcurveto
          33 217 -45 callgsubr
        </CharString>
        <CharString name="Udieresisgrave">
          52 callgsubr
          53 97 83 -21 165 -68 callgsubr
          hintmask 0001100011000000
          27 24 22 27 5 hvcurveto
          -62 134 -62 callgsubr
        </CharString>
        <CharString name="Udotbelow">
          771 53 callgsubr
          70 175 callgsubr
          32 108 168 31 58 31 hintmask 0110010110000000
          841 652 69 callgsubr
          -2 -54 -16 -1 -48 hhcurveto
          -49 -12 1 2 -56 -30 callsubr
          102 -8 -48 -27 -5 hvcurveto
          -58 -347 rlineto
          -136 -22 -112 -85 -100 hhcurveto
          -58 -108 35 180 30 hvcurveto
          hintmask 0010100000000000
          64 380 rlineto
          37 6 4 11 77 hhcurveto
          23 66 callgsubr
          hintmask 0011010000000000
          -49 callgsubr
          hintmask 0111100010000000
          77 0 -11 -37 -6 hvcurveto
          -63 -374 rlineto
          -146 -24 103 -106 138 hhcurveto
          147 107 137 100 17 hvcurveto
          60 360 rlineto
          30 5 8 47 102 hhcurveto
          hintmask 1000001000000000
          -403 -798 -106 callgsubr
          endchar
        </CharString>
        <CharString name="Ugrave">
          52 callgsubr
          84 -21 165 -95 callgsubr
          hintmask 0011000100000000
          -235 118 -62 callgsubr
        </CharString>
        <CharString name="Uhookabove">
          52 callgsubr
          96 -21 208 -96 callsubr
          -183 247 -93 callsubr
        </CharString>
        <CharString name="Uhorn">
          56 callsubr
          108 16 callsubr
          hintmask 0100110000000000
          865 725 rmoveto
          35 6 -16 31 -33 47 callgsubr
          6 5 1 1 5 hvcurveto
          -19 -26 -33 -18 -34 -5 8 47 rcurveline
          hintmask 0001000000000010
          -2 -5 -6 -1 -5 hhcurveto
          hintmask 0000100000001000
          -116 3 -86 callsubr
          hintmask 0100000000010010
          26 26 -2 -14 21 hvcurveto
          14 -10 6 -19 -3 -19 rrcurveto
          hintmask 1000000100000100
          -60 -360 -10 -59 -29 -55 -45 -42 rlinecurve
          -40 -43 -54 -23 -53 hhcurveto
          -49 -44 23 39 -23 hvcurveto
          -25 40 -3 53 11 64 rrcurveto
          hintmask 0011000001100000
          65 387 2 13 7 14 13 4 rlinecurve
          6 18 39 0 28 hhcurveto
          hintmask 0000100000100000
          -77 callgsubr
          hintmask 0001000000000000
          -147 -3 rlineto
          hintmask 0010101000000000
          -145 3 -86 callsubr
          28 39 0 -6 16 hvcurveto
          11 -4 3 -14 -2 -13 rrcurveto
          hintmask 0000000100000000
          -65 -387 rlineto
          hintmask 1000000010010000
          -11 -67 17 -63 41 -47 rrcurveto
          -47 41 61 -26 68 hhcurveto
          61 64 28 46 50 hvcurveto
          hintmask 0100000000000100
          52 47 33 63 11 66 63 380 rcurveline
          66 7 60 48 10 62 rrcurveto
          endchar
        </CharString>
        <CharString name="Uhornacute">
          56 callsubr
          84 -21 45 -20 140 16 callsubr
          hintmask 010010100000000000000000
          -87 callsubr
          hintmask 000001010000000000000000
          -201 140 -98 callsubr
        </CharString>
        <CharString name="Uhorndotbelow">
          771 53 callgsubr
          70 31 599 28 -21 31 6 28 -28 31 108 171 callgsubr
          -65 90 -43 108 -90 90 -25 108 -61 90 125 108 -73 90 -60 31 29 31 hintmask 001001100000000000000000
          865 725 rmoveto
          35 6 -16 31 -33 47 callgsubr
          6 5 1 1 5 hvcurveto
          -19 -26 -33 -18 -34 -5 8 47 rcurveline
          hintmask 000010000000000010000000
          -2 -5 -6 -1 -5 hhcurveto
          hintmask 000001000000001000000000
          -116 3 -86 callsubr
          hintmask 001000000000010010000000
          26 26 -2 -14 21 hvcurveto
          14 -10 6 -19 -3 -19 rrcurveto
          hintmask 010000001000000100000000
          -60 -360 -10 -59 -29 -55 -45 -42 rlinecurve
          -40 -43 -54 -23 -53 hhcurveto
          -49 -44 23 39 -23 hvcurveto
          -25 40 -3 53 11 64 rrcurveto
          hintmask 000110000010100000000000
          65 387 2 13 7 14 13 4 rlinecurve
          6 18 39 0 28 hhcurveto
          hintmask 000001000000100000000000
          -77 callgsubr
          hintmask 000010000000000000000000
          -147 -3 rlineto
          hintmask 000101010000000000000000
          -145 3 -86 callsubr
          28 39 0 -6 16 hvcurveto
          11 -4 3 -14 -2 -13 rrcurveto
          hintmask 000000001000000000000000
          -65 -387 rlineto
          hintmask 010000000100010000000000
          -11 -67 17 -63 41 -47 rrcurveto
          -47 41 61 -26 68 hhcurveto
          61 64 28 46 50 hvcurveto
          hintmask 001000000000000100000000
          52 47 33 63 11 66 63 380 rcurveline
          66 7 60 48 10 62 rrcurveto
          hintmask 100000000001000000000000
          -449 -871 -106 callgsubr
          endchar
        </CharString>
        <CharString name="Uhorngrave">
          56 callsubr
          84 -21 45 -20 140 16 callsubr
          hintmask 010010100000000000000000
          -87 callsubr
          hintmask 000001010000000000000000
          -259 45 -62 callgsubr
        </CharString>
        <CharString name="Uhornhookabove">
          56 callsubr
          96 -21 33 -20 195 16 callsubr
          hintmask 010010100000000000000000
          -87 callsubr
          hintmask 000001010000000000000000
          -207 174 -93 callsubr
        </CharString>
        <CharString name="Uhorntilde">
          56 callsubr
          53 50 -4 50 -41 16 callsubr
          hintmask 010010010000000000000000
          -87 callsubr
          hintmask 000000100000000000000000
          -151 90 79 callgsubr
          hintmask 000001000000000000000000
          77 callgsubr
          -18 71 callsubr
          hintmask 000000100000000000000000
          7 -12 -20 13 -24 hhcurveto
          -37 -23 -20 -59 -64 hvcurveto
          hintmask 000001000000000000000000
          16 -17 rlineto
          hintmask 000000100000000000000000
          -63 callgsubr
          hintmask 000001000000000000000000
          -71 callsubr
        </CharString>
        <CharString name="Uhungarumlaut">
          52 callgsubr
          84 -21 188 -96 callsubr
          -281 244 rmoveto
          -2 callgsubr
          171 hmoveto
          -2 callgsubr
          endchar
        </CharString>
        <CharString name="Umacron">
          52 callgsubr
          73 35 57 callsubr
          308 31 58 31 hintmask 11000111
          841 652 69 callgsubr
          -2 -54 -16 -1 -48 hhcurveto
          -49 -12 1 2 -56 -30 callsubr
          102 -8 -48 -27 -5 hvcurveto
          -58 -347 rlineto
          -136 -22 -112 -85 -100 hhcurveto
          -58 -108 35 180 30 hvcurveto
          hintmask 01001000
          64 380 rlineto
          37 6 4 11 77 hhcurveto
          23 66 callgsubr
          hintmask 01010100
          -49 callgsubr
          hintmask 11011001
          77 0 -11 -37 -6 hvcurveto
          -63 -374 rlineto
          -146 -24 103 -106 138 hhcurveto
          147 107 137 100 17 hvcurveto
          60 360 rlineto
          30 5 8 47 102 hhcurveto
          hintmask 00100000
          -122 104 -41 callsubr
        </CharString>
        <CharString name="Uogonek">
          771 -215 49 144 175 callgsubr
          -15 90 233 31 58 31 hintmask 0110010110000000
          841 652 69 callgsubr
          -2 -54 -16 -1 -48 hhcurveto
          -49 -12 1 2 -56 -30 callsubr
          102 -8 -48 -27 -5 hvcurveto
          -58 -347 rlineto
          -136 -22 -112 -85 -100 hhcurveto
          -58 -108 35 180 30 hvcurveto
          hintmask 0010100000000000
          64 380 rlineto
          37 6 4 11 77 hhcurveto
          23 66 callgsubr
          hintmask 0011010000000000
          -49 callgsubr
          hintmask 0001100000000000
          77 0 -11 -37 -6 hvcurveto
          -63 -374 -21 -129 79 -98 113 -21 rlinecurve
          hintmask 1110001010000000
          -32 -30 -29 -40 -5 -33 -50 callgsubr
          -66 3 -18 52 33 49 9 15 12 14 14 11 rrcurveto
          11 hlineto
          147 107 137 100 17 hvcurveto
          60 360 rlineto
          30 5 8 47 102 hhcurveto
          endchar
        </CharString>
        <CharString name="Upsilon">
          799 0 31 -28 77 548 77 hstemhm
          367 90 -45 90 hintmask 00101000
          833 552 rmoveto
          62 10 -27 91 -91 hhcurveto
          -161 -71 -198 -45 -16 hvcurveto
          -2 hlineto
          45 -5 198 -161 -91 -59 -92 -61 -10 vhcurveto
          -8 -1 -2 -10 16 hhcurveto
          13 2 7 11 3 hvcurveto
          52 15 53 24 47 hhcurveto
          144 -14 -203 -75 -13 hvcurveto
          hintmask 01010000
          -45 -270 rlineto
          hintmask 10000000
          -37 -6 -6 -12 -91 hhcurveto
          -32 107 callgsubr
          hintmask 01000000
          3 36 96 0 41 hhcurveto
          hintmask 10000000
          41 96 0 -3 34 hvcurveto
          -77 callgsubr
          -32 hlineto
          hintmask 01010000
          -91 -2 12 37 6 hvcurveto
          hintmask 00101000
          45 270 rlineto
          85 15 56 193 140 hhcurveto
          43 49 -21 -57 -3 hvcurveto
          -8 -1 0 -8 13 hhcurveto
          16 2 10 8 1 hvcurveto
          endchar
        </CharString>
        <CharString name="Uring">
          52 callgsubr
          33 157 callsubr
          -101 callgsubr
          hintmask 0011000100000000
          -235 152 -57 callgsubr
        </CharString>
        <CharString name="Utilde">
          52 callgsubr
          53 50 -4 50 -101 callgsubr
          hintmask 0001000000000000
          -127 22 callgsubr
        </CharString>
        <CharString name="V">
          771 -1 -21 604 31 39 31 hstem
          859 652 55 callgsubr
          -36 -29 0 -34 hhcurveto
          -111 3 -5 -31 49 -1 18 -23 -5 -26 rlinecurve
          -1 -8 -1 -2 -6 -10 -272 -485 rcurveline
          -115 506 rlineto
          -3 12 1 7 0 vvcurveto
          30 5 51 0 29 hhcurveto
          103 callsubr
          -51 0 -46 hhcurveto
          -127 3 -86 callsubr
          73 10 -4 -35 8 hvcurveto
          140 -613 rlineto
          -15 3 2 -7 16 hhcurveto
          16 4 6 14 8 hvcurveto
          330 587 rlineto
          53 29 44 14 47 hhcurveto
          endchar
        </CharString>
        <CharString name="W">
          74 callsubr
          hstemhm
          -92 callsubr
          endchar
        </CharString>
        <CharString name="Wacute">
          74 callsubr
          137 callsubr
          -92 callsubr
          hintmask 00001100
          -333 213 -98 callsubr
        </CharString>
        <CharString name="Wcircumflex">
          74 callsubr
          102 callsubr
          -92 callsubr
          hintmask 00001100
          -341 100 rmoveto
          -71 callgsubr
          endchar
        </CharString>
        <CharString name="Wdieresis">
          74 callsubr
          53 97 hstemhm
          506 97 113 97 -92 callsubr
          hintmask 00001110
          -542 133 -87 callgsubr
          endchar
        </CharString>
        <CharString name="Wgrave">
          74 callsubr
          137 callsubr
          -92 callsubr
          hintmask 00001100
          -419 118 -62 callgsubr
        </CharString>
        <CharString name="X">
          -28 callgsubr
        </CharString>
        <CharString name="Xi">
          685 0 71 97 -20 139 -21 51 71 51 -20 122 -21 86 71 hstem
          71 28 37 28 23 28 1 28 313 28 1 28 27 28 25 28 vstem
          722 520 rmoveto
          17 157 rlineto
          -568 hlineto
          -35 -157 rlineto
          28 hlineto
          6 26 8 38 12 13 rrcurveto
          9 6 60 0 11 hhcurveto
          352 hlineto
          0 69 0 5 -8 vhcurveto
          8 -11 -4 -41 -3 -26 rrcurveto
          -25 -352 rmoveto
          -28 hlineto
          -5 -25 -9 -44 -12 -17 rrcurveto
          -11 -8 -53 0 -23 hhcurveto
          -354 hlineto
          -9 -66 0 9 -5 hvcurveto
          -6 16 4 43 4 29 rrcurveto
          -28 hlineto
          -19 -168 rlineto
          580 hlineto
          -47 266 rmoveto
          29 173 rlineto
          -28 hlineto
          -8 -51 rlineto
          -342 hlineto
          8 51 rlineto
          -28 hlineto
          -29 -173 rlineto
          28 hlineto
          9 51 rlineto
          342 hlineto
          -9 -51 rlineto
          endchar
        </CharString>
        <CharString name="Y">
          77 callsubr
          86 callgsubr
          0 87 -54 87 hintmask 01010000
          866 652 55 callgsubr
          -36 -29 0 -34 hhcurveto
          -112 3 -86 callsubr
          36 16 -16 -23 -4 hvcurveto
          -2 -12 -4 -5 -10 -12 -215 -269 rcurveline
          -140 292 rlineto
          hintmask 01100010
          -4 10 -2 5 1 5 rrcurveto
          24 4 37 1 31 hhcurveto
          41 callsubr
          -61 0 -43 hhcurveto
          -131 3 -86 callsubr
          17 hlineto
          60 12 -8 -28 14 hvcurveto
          163 -343 rlineto
          hintmask 10001000
          -33 -194 -67 callgsubr
          hintmask 10010000
          -23 hlineto
          hintmask 10100100
          -86 callsubr
          3 48 50 0 48 hhcurveto
          48 50 0 -3 47 40 callsubr
          -76 -1 11 36 6 hvcurveto
          hintmask 01000010
          33 195 249 310 26 32 37 36 79 1 rlinecurve
          endchar
        </CharString>
        <CharString name="Yacute">
          77 callsubr
          84 -21 165 -20 -88 callsubr
          hintmask 0011000000000000
          -196 213 -98 callsubr
        </CharString>
        <CharString name="Ycircumflex">
          77 callsubr
          74 -21 133 -20 -88 callsubr
          hintmask 0011000000000000
          -204 100 rmoveto
          -71 callgsubr
          endchar
        </CharString>
        <CharString name="Ydieresis">
          77 callsubr
          53 97 86 callgsubr
          0 87 -78 97 -73 87 99 97 hintmask 0100100000000000
          866 652 55 callgsubr
          -36 -29 0 -34 hhcurveto
          -112 3 -86 callsubr
          36 16 -16 -23 -4 hvcurveto
          -2 -12 -4 -5 -10 -12 -215 -269 rcurveline
          -140 292 rlineto
          hintmask 0101000010000000
          -4 10 -2 5 1 5 rrcurveto
          24 4 37 1 31 hhcurveto
          41 callsubr
          -61 0 -43 hhcurveto
          -131 3 -86 callsubr
          17 hlineto
          60 12 -8 -28 14 hvcurveto
          163 -343 rlineto
          hintmask 1000010000000000
          -33 -194 -67 callgsubr
          hintmask 1000100000000000
          -23 hlineto
          hintmask 1001001000000000
          -86 callsubr
          3 48 50 0 48 hhcurveto
          48 50 0 -3 47 40 callsubr
          -76 -1 11 36 6 hvcurveto
          hintmask 0100000010000000
          33 195 249 310 26 32 37 36 79 1 rlinecurve
          hintmask 0010000101000000
          -405 133 -87 callgsubr
          endchar
        </CharString>
        <CharString name="Ydotbelow">
          771 48 callsubr
          86 callgsubr
          -47 108 -61 87 -54 87 hintmask 0010100000000000
          866 652 55 callgsubr
          -36 -29 0 -34 hhcurveto
          -112 3 -86 callsubr
          36 16 -16 -23 -4 hvcurveto
          -2 -12 -4 -5 -10 -12 -215 -269 rcurveline
          -140 292 rlineto
          hintmask 0011000010000000
          -4 10 -2 5 1 5 rrcurveto
          24 4 37 1 31 hhcurveto
          41 callsubr
          -61 0 -43 hhcurveto
          -131 3 -86 callsubr
          17 hlineto
          60 12 -8 -28 14 hvcurveto
          163 -343 rlineto
          hintmask 0100010000000000
          -33 -194 -67 callgsubr
          hintmask 0100100000000000
          -23 hlineto
          hintmask 0101000100000000
          -86 callsubr
          3 48 50 0 48 hhcurveto
          48 50 0 -3 47 40 callsubr
          -76 -1 11 36 6 hvcurveto
          hintmask 0010000010000000
          33 195 249 310 26 32 37 36 79 1 rlinecurve
          hintmask 1000001000000000
          -450 -798 -106 callgsubr
          endchar
        </CharString>
        <CharString name="Ygrave">
          77 callsubr
          84 -21 165 -20 -88 callsubr
          hintmask 0011000000000000
          -282 118 -62 callgsubr
        </CharString>
        <CharString name="Yhookabove">
          77 callsubr
          96 -21 208 -20 -88 callsubr
          hintmask 0011000000000000
          -231 247 -93 callsubr
        </CharString>
        <CharString name="Ytilde">
          77 callsubr
          53 50 -4 50 -88 callsubr
          hintmask 0001000000000000
          -174 22 callgsubr
        </CharString>
        <CharString name="Z">
          132 callgsubr
          hstem
          -65 callgsubr
          endchar
        </CharString>
        <CharString name="Zacute">
          132 callgsubr
          137 callsubr
          hintmask 11000000
          -65 callgsubr
          hintmask 00110000
          39 865 -98 callsubr
        </CharString>
        <CharString name="Zcaron">
          132 callgsubr
          102 callsubr
          hintmask 11000000
          -65 callgsubr
          hintmask 00110000
          48 853 -45 callgsubr
        </CharString>
        <CharString name="Zdotaccent">
          132 callgsubr
          75 108 hstemhm
          396 108 hintmask 11000000
          -65 callgsubr
          hintmask 00110000
          -55 812 -106 callgsubr
          endchar
        </CharString>
        <CharString name="Zdotbelow">
          628 53 callgsubr
          92 34 618 31 hstemhm
          236 108 hintmask 01100000
          -65 callgsubr
          hintmask 10010000
          -215 -146 -106 callgsubr
          endchar
        </CharString>
        <CharString name="Zeta">
          132 callgsubr
          hstem
          -65 callgsubr
          endchar
        </CharString>
        <CharString name="a">
          -34 callsubr
          -106 callsubr
          endchar
        </CharString>
        <CharString name="aacute">
          -34 callsubr
          81 -21 190 -102 callgsubr
          131 419 -89 callsubr
        </CharString>
        <CharString name="abreve">
          -34 callsubr
          68 41 133 -28 callsubr
          endchar
        </CharString>
        <CharString name="abreveacute">
          -34 callsubr
          68 41 318 -28 callsubr
          -27 139 -98 callsubr
        </CharString>
        <CharString name="abrevedotbelow">
          514 53 callgsubr
          81 25 -20 35 211 25 158 25 68 41 133 -20 -46 callgsubr
          hintmask 01010110
          -97 -17 -80 -30 -44 hhcurveto
          -47 -38 34 50 8 hvcurveto
          11 66 69 70 154 6 rrcurveto
          12 callsubr
          hintmask 10000001
          -239 -836 -106 callgsubr
          endchar
        </CharString>
        <CharString name="abrevegrave">
          -34 callsubr
          68 41 133 -28 callsubr
          -42 44 3 callgsubr
        </CharString>
        <CharString name="abrevehookabove">
          -34 callsubr
          68 41 341 -28 callsubr
          -30 141 -79 callgsubr
        </CharString>
        <CharString name="abrevetilde">
          -34 callsubr
          68 41 173 50 -4 50 -106 callsubr
          hintmask 00001010
          12 callsubr
          36 119 27 callsubr
        </CharString>
        <CharString name="acaron">
          -34 callsubr
          88 -21 176 -102 callgsubr
          159 437 -42 callgsubr
        </CharString>
        <CharString name="acircumflex">
          -34 callsubr
          88 -21 176 -102 callgsubr
          134 289 -57 callsubr
          endchar
        </CharString>
        <CharString name="acircumflexacute">
          -34 callsubr
          88 -21 318 -21 callgsubr
          11 272 -98 callsubr
        </CharString>
        <CharString name="acircumflexdotbelow">
          514 53 callgsubr
          81 25 -20 35 211 25 158 25 88 196 callsubr
          -46 callgsubr
          hintmask 01010110
          -97 -17 -80 -30 -44 hhcurveto
          -47 -38 34 50 8 hvcurveto
          11 66 69 70 154 6 rrcurveto
          134 289 -57 callsubr
          hintmask 10000001
          -195 -661 -106 callgsubr
          endchar
        </CharString>
        <CharString name="acircumflexgrave">
          -34 callsubr
          88 -21 133 -21 callgsubr
          -5 177 3 callgsubr
        </CharString>
        <CharString name="acircumflexhookabove">
          -34 callsubr
          88 -21 341 -21 callgsubr
          107 274 -79 callgsubr
        </CharString>
        <CharString name="acircumflextilde">
          -34 callsubr
          83 50 -45 -21 173 50 -4 50 -106 callsubr
          hintmask 00001000
          134 291 rmoveto
          -132 117 -170 -117 rlineto
          hintmask 00000100
          7 -16 rlineto
          hintmask 00001000
          151 66 rlineto
          hintmask 00000100
          129 -66 rlineto
          hintmask 00001001
          74 252 79 callgsubr
          hintmask 00000010
          38 callsubr
          hintmask 00000001
          38 callgsubr
          hintmask 00000010
          15 -17 rlineto
          hintmask 00000001
          -63 callgsubr
          hintmask 00000010
          -71 callsubr
        </CharString>
        <CharString name="acute">
          514 529 98 callsubr
          hstem
          494 659 -89 callsubr
        </CharString>
        <CharString name="acute.cap">
          514 514 159 callgsubr
          hstem
          499 612 -98 callsubr
        </CharString>
        <CharString name="acute.dup">
          514 529 98 callsubr
          hstem
          494 659 -89 callsubr
        </CharString>
        <CharString name="acute.ts1">
          514 530 98 callsubr
          hstem
          513 660 rmoveto
          21 4 -16 18 -20 hhcurveto
          -23 -15 -22 -15 -15 hvcurveto
          -113 -117 -4 -4 -7 -5 -1 -5 rlinecurve
          -1 -2 -1 -6 10 -8 5 -6 rlinecurve
          49 31 49 36 48 33 19 13 28 13 4 25 rrcurveto
          endchar
        </CharString>
        <CharString name="adblgrave">
          -34 callsubr
          82 -21 188 -102 callgsubr
          107 282 -73 callgsubr
        </CharString>
        <CharString name="adieresis">
          -34 callsubr
          107 97 hstemhm
          221 97 81 97 -107 callgsubr
          hintmask 00001110
          -45 364 -58 callsubr
        </CharString>
        <CharString name="adotbelow">
          514 53 callgsubr
          81 25 -20 35 211 25 158 25 -46 callgsubr
          hintmask 01010000
          -97 -17 -80 -30 -44 hhcurveto
          -47 -38 34 50 8 hvcurveto
          11 66 69 70 154 6 rrcurveto
          hintmask 10000100
          -76 -386 -106 callgsubr
          endchar
        </CharString>
        <CharString name="ae">
          -40 callsubr
        </CharString>
        <CharString name="ae.dup">
          -40 callsubr
        </CharString>
        <CharString name="aeacute">
          742 -11 25 -25 28 77 25 108 24 -22 24 41 94 35 25 138 callgsubr
          62 80 81 80 81 62 -62 67 236 67 hintmask 0100100000010000
          732 119 rmoveto
          7 1 -4 6 -9 hhcurveto
          -11 -3 -7 -4 -2 hvcurveto
          -101 -49 -78 -3 -16 hhcurveto
          -12 -138 1 211 35 hvcurveto
          277 hlineto
          hintmask 0111011001110100
          23 4 0 22 4 hvcurveto
          108 18 -43 89 -113 hhcurveto
          -87 -56 -54 -21 -23 hvcurveto
          31 -18 -44 44 -85 hhcurveto
          -86 -76 -43 -63 -11 hvcurveto
          -31 -5 18 -17 26 hhcurveto
          27 22 20 26 5 hvcurveto
          7 43 -44 5 0 vvcurveto
          32 42 52 3 17 hhcurveto
          51 50 -38 -88 -14 hvcurveto
          -8 -46 rlineto
          -162 -136 -59 -98 -16 hvcurveto
          -78 -13 86 -27 72 hhcurveto
          123 58 76 10 8 hvcurveto
          -57 33 61 -29 61 hhcurveto
          115 63 110 20 3 hvcurveto
          -45 134 rmoveto
          hintmask 1010101001001100
          -236 hlineto
          132 31 83 38 46 hhcurveto
          98 -18 -134 -36 -4 hvcurveto
          -319 -121 rmoveto
          -71 -12 -75 -47 -63 hhcurveto
          -52 -32 36 44 8 hvcurveto
          hintmask 0001000000000000
          9 54 57 73 164 6 -4 -23 -2 -15 2 -37 2 -8 0 -2 -2 -10 rrcurveto
          hintmask 0000000110000000
          240 527 -89 callsubr
        </CharString>
        <CharString name="agrave">
          -34 callsubr
          81 -21 190 -102 callgsubr
          46 289 -50 callsubr
        </CharString>
        <CharString name="ahookabove">
          -34 callsubr
          72 -21 208 -102 callgsubr
          101 400 -100 callsubr
        </CharString>
        <CharString name="amacron">
          -34 callsubr
          138 35 -106 callsubr
          hintmask 00001000
          177 346 -41 callsubr
        </CharString>
        <CharString name="ampersand">
          799 -22 31 317 25 -25 31 43 31 260 25 hstemhm
          65 86 0 86 231 28 74 28 135 28 -28 86 hintmask 0011100110100000
          814 400 69 callgsubr
          -36 -3 -65 0 0 vvcurveto
          -120 3 -86 callsubr
          48 17 -21 -22 -3 hvcurveto
          -2 -11 -3 -3 -12 -16 -68 -87 rcurveline
          -33 -43 -36 -42 -41 -36 -6 10 -90 138 -27 116 94 89 54 52 11 62 rrcurveto
          43 7 -3 87 -73 hhcurveto
          -65 -86 -56 -108 -18 hvcurveto
          hintmask 1101110101000000
          -5 -30 -9 -76 22 -95 -75 -66 37 34 -77 -68 -49 -44 -28 -24 -9 -54 rrcurveto
          -87 -15 74 -64 101 hhcurveto
          68 68 28 47 63 hvcurveto
          -66 65 65 -9 38 hhcurveto
          77 76 57 86 16 hvcurveto
          -28 hlineto
          -76 -14 -68 -36 -50 hhcurveto
          -53 -35 41 47 -38 hvcurveto
          54 50 50 62 44 57 53 68 rcurveline
          38 47 44 18 56 1 rrcurveto
          -346 186 rmoveto
          -12 -69 -109 -94 -16 -13 -15 81 12 76 2 13 rrcurveto
          56 9 37 55 48 hhcurveto
          59 -14 -96 -9 -1 hvcurveto
          -62 -513 rmoveto
          hintmask 1010001000000000
          -29 -38 -63 -35 -68 hhcurveto
          -81 -10 92 57 9 hvcurveto
          14 81 35 30 68 57 16 -64 31 -57 15 -26 29 -53 11 -14 32 -39 rrcurveto
          endchar
        </CharString>
        <CharString name="anglearc">
          799 -71 -21 686 -20 hstemhm
          608 42 -36 42 -40 42 hintmask 00010000
          745 21 rmoveto
          1 9 -5 8 -7 3 -130 49 rcurveline
          26 52 17 54 9 55 rrcurveto
          hintmask 00001000
          9 55 1 54 -8 52 146 49 rcurveline
          8 3 8 8 1 9 3 15 -13 10 -14 -5 rrcurveto
          hintmask 11100000
          -147 -50 -11 49 -19 45 -26 41 rlinecurve
          5 -3 -6 3 -6 hhcurveto
          -12 -10 -9 -12 -2 hvcurveto
          -1 -5 0 -5 2 -3 24 -38 18 -41 10 -44 -492 -166 rcurveline
          -8 -3 -8 -8 -1 -9 -2 -9 5 -8 8 -3 436 -166 rcurveline
          -24 -44 -32 -41 -37 -38 -3 -3 -2 -5 -1 -5 rrcurveto
          -12 -2 8 -9 12 hhcurveto
          6 6 3 5 5 hvcurveto
          40 41 34 45 28 49 129 -50 rcurveline
          13 -5 16 10 3 15 rrcurveto
          -131 230 rmoveto
          -8 -50 -17 -50 -22 -47 -385 147 rcurveline
          hintmask 00001000
          434 147 rlineto
          hintmask 00010000
          7 -47 -1 -50 -8 -50 rrcurveto
          endchar
        </CharString>
        <CharString name="angleleft">
          400 -229 -21 1000 -20 21 -20 hstemhm
          hintmask 00100000
          304 -228 rmoveto
          2 vlineto
          12 -5 13 -3 12 vhcurveto
          -79 361 -12 54 -1 7 -5 9 2 8 rlinecurve
          4 3 5 3 4 vhcurveto
          49 88 178 323 9 16 17 21 2 17 rlinecurve
          12 2 -6 11 -12 hhcurveto
          hintmask 11000000
          -5 -1 -18 -3 -9 -27 -10 -16 rlinecurve
          -233 -421 -5 -10 -9 -12 -2 -11 rlinecurve
          -2 -10 4 -11 3 -9 12 -54 rcurveline
          81 -366 2 -9 0 -40 23 -1 rlinecurve
          12 12 10 12 2 hvcurveto
          endchar
        </CharString>
        <CharString name="angleright">
          400 -229 -21 469 20 491 20 1 -20 hstemhm
          hintmask 00010000
          328 251 rmoveto
          2 11 -5 11 -3 10 -93 420 rcurveline
          11 -3 0 37 -22 hhcurveto
          hintmask 11100000
          -5 -1 rlineto
          -10 -9 -13 -7 -1 hvcurveto
          -2 -12 6 -13 2 -10 92 -417 rcurveline
          2 -8 4 -10 -1 -9 -1 -4 -2 -4 -2 -4 -11 -19 rcurveline
          -38 -68 -128 -231 -76 -137 -3 -5 -2 -5 -1 -6 rlinecurve
          -11 9 -7 11 vhcurveto
          21 2 9 27 9 15 236 425 rcurveline
          4 10 9 11 2 11 rrcurveto
          endchar
        </CharString>
        <CharString name="aogonek">
          514 -11 25 -20 35 394 25 -31 callgsubr
          endchar
        </CharString>
        <CharString name="aogonekacute">
          514 -11 25 -20 35 394 25 81 -21 190 -20 -31 callgsubr
          hintmask 00011000
          131 419 -89 callsubr
        </CharString>
        <CharString name="aring">
          -34 callsubr
          81 157 callsubr
          -104 callsubr
          61 377 -57 callgsubr
        </CharString>
        <CharString name="aringacute">
          -34 callsubr
          81 157 callsubr
          185 -20 -106 callsubr
          hintmask 00001110
          61 377 -83 callsubr
          43 228 rmoveto
          24 8 -15 22 -24 hhcurveto
          -11 -7 -6 -7 -10 8 callgsubr
        </CharString>
        <CharString name="asciicircum">
          556 583 -21 123 59 hstem
          92 566 vstem
          658 584 rmoveto
          -256 160 -310 -160 8 -22 291 123 252 -123 rlineto
          endchar
        </CharString>
        <CharString name="asciitilde">
          556 193 189 callgsubr
          603 290 156 callgsubr
          -31 hvcurveto
          17 -27 155 callgsubr
          -21 -10 -22 87 callgsubr
          28 8 10 23 174 callgsubr
        </CharString>
        <CharString name="asciitilde.low">
          556 0 189 callgsubr
          571 97 156 callgsubr
          -32 hvcurveto
          17 -26 155 callgsubr
          -22 -10 -21 87 callgsubr
          27 8 10 24 174 callgsubr
        </CharString>
        <CharString name="asterisk">
          514 340 -21 431 -20 hstem
          167 59 0 59 0 59 cntrmask 00111000
          520 442 rmoveto
          3 18 -11 5 -10 5 -130 64 rcurveline
          152 65 11 5 13 5 3 18 rlinecurve
          14 2 -8 16 -18 hhcurveto
          -5 -5 0 -9 -14 hvcurveto
          -140 -91 39 153 5 13 rlineto
          13 2 -10 14 -17 hhcurveto
          -21 -12 -16 -11 -1 hvcurveto
          -1 -13 -11 -152 -110 89 rlineto
          10 -11 -2 0 -7 hhcurveto
          -18 -14 -16 -14 -2 hvcurveto
          -3 -18 11 -5 9 -5 130 -64 rcurveline
          -152 -65 -10 -5 -13 -5 -3 -18 rlinecurve
          -14 -3 9 -16 18 hhcurveto
          5 5 0 9 13 hvcurveto
          140 91 -39 -153 -4 -13 rlineto
          -13 -2 9 -14 17 hhcurveto
          21 12 16 11 2 hvcurveto
          13 vlineto
          11 152 110 -89 rlineto
          -10 12 2 0 7 hhcurveto
          18 13 16 14 3 hvcurveto
          endchar
        </CharString>
        <CharString name="asterisk.math">
          514 57 -21 430 -20 hstemhm
          262 27 -8 27 -19 27 -15 58 -51 27 hintmask 00001000
          473 160 rmoveto
          4 27 -49 13 -20 10 -28 14 -26 15 -28 11 rrcurveto
          2 vlineto
          45 16 46 25 46 16 17 8 20 5 3 20 3 15 -9 15 -16 1 rrcurveto
          -3 hlineto
          -14 -19 -15 -9 -13 hvcurveto
          -39 -24 -40 -30 -37 -20 rrcurveto
          hintmask 00000100
          12 55 23 57 8 53 rrcurveto
          hintmask 01000010
          16 2 -12 10 -14 hhcurveto
          hintmask 00100100
          -22 -10 -17 -14 -2 hvcurveto
          -9 -52 3 -56 -6 -52 -31 20 -30 30 -31 24 rrcurveto
          9 -9 -15 15 -14 hhcurveto
          -3 hlineto
          -16 -1 -13 -15 -3 -15 -4 -27 48 -13 21 -10 27 -14 27 -15 28 -11 rrcurveto
          -2 vlineto
          -45 -16 -46 -25 -46 -16 -17 -8 -20 -5 -3 -20 -3 -15 9 -15 16 -1 rrcurveto
          3 hlineto
          14 19 15 9 13 hvcurveto
          hintmask 00010000
          39 24 40 30 37 20 -12 -55 -23 -57 -9 -53 rrcurveto
          hintmask 10100010
          -16 -1 12 -10 14 hhcurveto
          22 10 17 14 2 hvcurveto
          9 52 -3 56 6 52 31 -20 30 -30 31 -24 rrcurveto
          -9 9 15 -15 14 hhcurveto
          3 hlineto
          16 1 13 15 3 15 rrcurveto
          endchar
        </CharString>
        <CharString name="at">
          799 -11 25 42 25 46 25 390 25 113 25 hstemhm
          115 28 109 74 93 74 -3 74 10 28 hintmask 1111111100000000
          44 callgsubr
          228 38 -148 138 -171 hhcurveto
          -187 -182 -158 -200 -33 hvcurveto
          -186 -31 111 -172 208 hhcurveto
          95 121 20 47 117 hvcurveto
          9 4 5 2 2 8 rrcurveto
          11 2 -8 0 -16 hhcurveto
          -9 hlineto
          -15 -2 0 -7 -16 hvcurveto
          -38 -92 -96 -22 -94 hhcurveto
          -189 -103 158 175 29 hvcurveto
          186 31 167 147 171 hhcurveto
          146 149 -116 -229 -38 hvcurveto
          -102 -17 -27 -81 -61 hhcurveto
          -29 0 33 33 5 hvcurveto
          40 239 rlineto
          25 4 1 1 -28 hhcurveto
          -34 hlineto
          43 -20 -44 41 -66 hhcurveto
          -108 -112 -95 -125 168 callsubr
          80 -95 108 hhcurveto
          hintmask 0011001011000000
          70 53 45 23 22 hvcurveto
          -57 4 59 -11 28 hhcurveto
          93 32 109 103 18 hvcurveto
          -224 -78 rmoveto
          -3 -18 -1 -3 -17 -21 rrcurveto
          -48 -42 -50 -19 -36 hhcurveto
          -72 -45 86 109 18 hvcurveto
          109 18 74 86 72 hhcurveto
          35 45 -18 -52 27 hvcurveto
          9 -19 -1 -1 -3 -19 rrcurveto
          endchar
        </CharString>
        <CharString name="atilde">
          -34 callsubr
          107 50 -4 50 -106 callsubr
          hintmask 00000100
          170 394 27 callgsubr
        </CharString>
        <CharString name="b">
          160 callsubr
          135 71 2 86 -60 71 0 86 95 86 hintmask 1111110110000000
          128 callsubr
          53 314 -150 -82 callsubr
          -99 -596 rlineto
          28 hlineto
          80 callgsubr
          164 callgsubr
          hintmask 0110001010000000
          89 callgsubr
        </CharString>
        <CharString name="backslash">
          514 750 -20 hstem
          418 -228 rmoveto
          1 4 -2 4 -1 9 -193 938 rcurveline
          12 -2 -2 11 -16 hhcurveto
          -9 -13 -7 -15 -3 hvcurveto
          -4 1 -4 2 -9 vhcurveto
          192 -938 rlineto
          -12 2 2 -11 16 hhcurveto
          9 13 7 15 3 hvcurveto
          endchar
        </CharString>
        <CharString name="baht">
          728 0 31 312 25 284 31 hstem
          336 30 32 30 32 30 cntrmask 00011100
          700 182 rmoveto
          15 90 -74 73 -109 12 102 20 80 63 13 74 rrcurveto
          88 14 -82 81 -132 hhcurveto
          -42 173 callgsubr
          9 1 -6 6 -8 hhcurveto
          -8 -8 -6 -9 -1 hvcurveto
          -5 -30 rlineto
          -300 -56 callgsubr
          300 172 callsubr
          181 callsubr
          8 9 7 8 1 hvcurveto
          5 30 rlineto
          70 hlineto
          135 109 89 93 15 hvcurveto
          -69 332 rmoveto
          -77 -13 -79 -69 -94 hhcurveto
          -13 hlineto
          48 284 rlineto
          35 hlineto
          98 28 -78 -60 -10 hvcurveto
          -229 -146 rmoveto
          -114 hlineto
          41 243 rlineto
          34 6 3 7 47 hhcurveto
          65 hlineto
          152 -468 rmoveto
          -77 -13 -73 -76 -103 hhcurveto
          -37 hlineto
          52 312 rlineto
          45 hlineto
          116 23 -98 -61 -10 hvcurveto
          -256 -153 rmoveto
          -65 -30 callgsubr
          45 271 rlineto
          114 hlineto
          endchar
        </CharString>
        <CharString name="bar">
          286 750 -20 hstem
          85 43 112 43 vstem
          62 callsubr
          endchar
        </CharString>
        <CharString name="bigcircle">
          683 0 42 599 42 hstem
          57 42 599 -61 callgsubr
          endchar
        </CharString>
        <CharString name="blanksymbol">
          160 callsubr
          111 71 -65 71 -53 71 2 86 -60 71 -29 86 -57 86 95 86 hintmask 0110000000100000
          128 callsubr
          28 168 109 87 3 3 3 4 1 4 rlinecurve
          9 1 -5 6 -9 hhcurveto
          hintmask 0000000001000000
          -4 -3 -1 -3 -3 hvcurveto
          -86 -68 rlineto
          hintmask 0001001100000000
          18 105 -150 -82 callsubr
          -12 -72 rlineto
          hintmask 0000100000000000
          -83 -67 -3 -3 -3 -4 -1 -4 rlinecurve
          hintmask 0000010000000000
          -8 -1 6 -7 8 hhcurveto
          4 3 2 2 4 hvcurveto
          60 48 -81 -483 rlineto
          hintmask 0000001000000000
          28 hlineto
          hintmask 1000100010010000
          80 callgsubr
          hintmask 0000000100000000
          164 callgsubr
          hintmask 0110000010010000
          89 callgsubr
        </CharString>
        <CharString name="braceleft">
          176 callgsubr
          244 71 cntrmask 11100000
          400 -237 rmoveto
          11 2 -8 1 -9 hhcurveto
          -63 4 -45 30 -6 50 -1 12 2 8 5 30 25 150 rcurveline
          5 29 8 49 9 vvcurveto
          56 -46 32 -51 16 vhcurveto
          122 35 10 65 8 45 25 150 rcurveline
          16 98 3 16 38 29 42 33 42 2 27 2 5 1 6 4 1 7 rrcurveto
          13 2 -9 0 -12 hhcurveto
          -109 -97 -53 -72 -13 hvcurveto
          -32 -196 -14 -79 -3 -20 -40 -32 rlinecurve
          -43 -32 -45 -2 -18 -1 rrcurveto
          -5 -9 -3 -10 -1 hvcurveto
          -10 -2 8 -3 5 hhcurveto
          72 -3 41 -35 5 -52 rrcurveto
          -8 0 -2 -6 -37 vhcurveto
          -33 -198 -7 -39 -7 -42 55 -37 rlinecurve
          -30 44 64 -4 23 hhcurveto
          12 9 0 13 2 hvcurveto
          endchar
        </CharString>
        <CharString name="braceright">
          176 callgsubr
          cntrmask 11100000
          482 250 rmoveto
          10 1 -7 3 -5 hhcurveto
          -73 3 -41 35 -4 52 -1 8 1 2 6 37 33 198 rcurveline
          6 39 7 42 -55 37 rrcurveto
          31 -45 -67 3 -18 hhcurveto
          -12 -10 0 -13 -2 hvcurveto
          -2 -11 8 0 9 -1 63 -4 45 -30 6 -50 1 -12 -1 -8 -5 -30 -25 -150 rcurveline
          -5 -29 -8 -49 -1 -9 1 -56 45 -32 52 -16 -122 -35 -11 -65 -7 -45 -26 -150 rcurveline
          -16 -98 -3 -16 -37 -29 -43 -33 -41 -2 -28 -2 -5 -1 -5 -4 -2 -7 rrcurveto
          -13 -2 10 0 12 hhcurveto
          105 100 52 73 13 hvcurveto
          33 196 13 79 3 20 41 32 rlinecurve
          42 32 45 2 19 1 rrcurveto
          5 8 3 10 2 hvcurveto
          endchar
        </CharString>
        <CharString name="bracketleft">
          286 -250 43 914 43 hstem
          220 -250 rmoveto
          7 43 rlineto
          -99 hlineto
          153 914 rlineto
          99 hlineto
          7 43 rlineto
          -142 hlineto
          -167 -1000 rlineto
          endchar
        </CharString>
        <CharString name="bracketright">
          286 -250 43 914 43 hstem
          122 -250 rmoveto
          167 1000 rlineto
          -142 hlineto
          -7 -43 rlineto
          99 hlineto
          -153 -914 rlineto
          -99 hlineto
          -7 -43 rlineto
          endchar
        </CharString>
        <CharString name="breve">
          186 callgsubr
          133 69 callsubr
          endchar
        </CharString>
        <CharString name="breve.cap">
          514 493 41 133 -20 hstem
          522 667 -72 callgsubr
          endchar
        </CharString>
        <CharString name="breve.ts1">
          628 520 40 135 -20 hstem
          218 25 373 25 vstem
          641 695 rmoveto
          -25 hlineto
          -92 -15 -113 -43 -82 hhcurveto
          -84 -94 45 90 15 hvcurveto
          -25 hlineto
          -102 -17 87 -73 112 hhcurveto
          98 124 59 116 19 hvcurveto
          endchar
        </CharString>
        <CharString name="brokenbar">
          286 750 -20 hstemhm
          85 43 19 43 -12 43 19 43 hintmask 10011000
          221 343 rmoveto
          62 372 84 callgsubr
          -62 -372 rlineto
          -10 -1 10 -5 11 hhcurveto
          10 12 5 10 1 hvcurveto
          -93 -558 rmoveto
          hintmask 01100000
          62 372 rlineto
          10 2 -10 5 -10 hhcurveto
          -11 -12 -5 -10 -2 hvcurveto
          -62 -372 83 callgsubr
          endchar
        </CharString>
        <CharString name="bullet">
          799 81 292 hstem
          292 292 92 callgsubr
          endchar
        </CharString>
        <CharString name="c">
          84 callsubr
          hstemhm
          70 86 177 86 -38 93 hintmask 10110100
          -43 callsubr
          hintmask 01001000
          111 callgsubr
          hintmask 00000100
          110 callsubr
          hintmask 10111000
          62 10 -63 38 -88 hhcurveto
          -128 -114 -107 -125 -21 hvcurveto
          -129 -21 87 -98 118 hhcurveto
          139 52 121 9 2 hvcurveto
          endchar
        </CharString>
        <CharString name="cacute">
          84 callsubr
          81 -21 190 -37 callgsubr
          41 540 -89 callsubr
        </CharString>
        <CharString name="caron">
          514 132 callsubr
          522 677 -42 callgsubr
        </CharString>
        <CharString name="caron.cap">
          169 callsubr
          133 -20 hstem
          508 600 -45 callgsubr
        </CharString>
        <CharString name="caron.ts1">
          628 572 -21 156 -20 hstem
          620 682 rmoveto
          -10 25 -179 -93 -17 -7 -121 75 -40 25 -18 -25 170 -131 17 8 rlineto
          endchar
        </CharString>
        <CharString name="ccaron">
          84 callsubr
          88 -21 176 -37 callgsubr
          69 558 -42 callgsubr
        </CharString>
</ttFont>
